<svg width="88" height="101" viewBox="0 0 88 101" fill="none" xmlns="http://www.w3.org/2000/svg">
<g clip-path="url(#clip0_231_21)">
<path d="M29.8571 12.625H58.1429V4.73438C58.1429 2.12061 60.2446 0 62.8571 0C65.4696 0 67.5714 2.12061 67.5714 4.73438V12.625H75.4286C82.3625 12.625 88 18.2767 88 25.25V88.375C88 95.3385 82.3625 101 75.4286 101H12.5714C5.62768 101 0 95.3385 0 88.375V25.25C0 18.2767 5.62768 12.625 12.5714 12.625H20.4286V4.73438C20.4286 2.12061 22.5304 0 25.1429 0C27.7554 0 29.8571 2.12061 29.8571 4.73438V12.625ZM9.42857 88.375C9.42857 90.1109 10.835 91.5312 12.5714 91.5312H75.4286C77.1571 91.5312 78.5714 90.1109 78.5714 88.375V37.875H9.42857V88.375Z" fill="#FFB259"/>
</g>
<defs>
<clipPath id="clip0_231_21">
<rect width="88" height="101" fill="white"/>
</clipPath>
</defs>
</svg>
