<svg width="352" height="352" viewBox="0 0 352 352" fill="none" xmlns="http://www.w3.org/2000/svg">
<g clip-path="url(#clip0_172_547)">
<path d="M242.72 176L342.79 75.93C348.687 70.0309 352 62.0312 352 53.69C352 45.3487 348.687 37.349 342.79 31.45L320.55 9.20996C314.651 3.31274 306.651 -0.00012207 298.31 -0.00012207C289.969 -0.00012207 281.969 3.31274 276.07 9.20996L176 109.28L75.9301 9.20996C70.031 3.31274 62.0313 -0.00012207 53.6901 -0.00012207C45.3489 -0.00012207 37.3491 3.31274 31.4501 9.20996L9.21008 31.45C3.31287 37.349 0 45.3487 0 53.69C0 62.0312 3.31287 70.0309 9.21008 75.93L109.28 176L9.21008 276.07C3.31287 281.969 0 289.969 0 298.31C0 306.651 3.31287 314.651 9.21008 320.55L31.4501 342.79C37.3491 348.687 45.3489 352 53.6901 352C62.0313 352 70.031 348.687 75.9301 342.79L176 242.72L276.07 342.79C281.969 348.687 289.969 352 298.31 352C306.651 352 314.651 348.687 320.55 342.79L342.79 320.55C348.687 314.651 352 306.651 352 298.31C352 289.969 348.687 281.969 342.79 276.07L242.72 176Z" fill="#FFB259"/>
</g>
<defs>
<clipPath id="clip0_172_547">
<rect width="352" height="352" fill="white"/>
</clipPath>
</defs>
</svg>
