<svg width="399" height="877" viewBox="0 0 399 877" fill="none" xmlns="http://www.w3.org/2000/svg">
<path d="M768.135 546.574C827.968 364.376 728.772 168.171 546.574 108.338C364.376 48.5044 168.171 147.701 108.338 329.899C48.5044 512.097 147.701 708.302 329.899 768.135C512.097 827.968 708.302 728.772 768.135 546.574Z" fill="url(#paint0_linear_141_35)"/>
<g style="mix-blend-mode:overlay">
<path d="M407.908 290.71C407.908 290.348 407.908 290.089 408.219 289.779V290.555L410.339 289.831C410.454 289.534 410.611 289.256 410.804 289.003C410.715 289.218 410.715 289.46 410.804 289.676H411.477C411.477 286.572 413.39 282.59 413.235 280.573C413.604 278.9 414.535 277.403 415.873 276.332C414.994 277.005 414.166 278.349 415.459 279.177C418.148 278.815 421.769 281.349 422.389 275.97L420.683 277.522L420.993 269.971C423.889 270.488 420.993 273.695 421.613 275.712C422.855 271.005 430.354 274.264 428.44 269.351C430.561 271.264 434.129 274.522 435.888 272.35C432.267 271.316 435.888 269.713 432.112 268.264C431.647 266.454 435.008 266.972 433.612 265.317L434.284 266.351C440.697 266.351 436.87 260.3 436.663 257.352C439.611 252.749 442.507 252.18 445.248 248.612C446.748 249.801 451.455 252.491 452.541 250.991C451.196 248.663 453.11 244.94 450.782 242.406C447.731 243.905 451.144 246.181 450.42 248.095C446.748 246.905 447.783 245.871 444.783 246.078C447.007 245.716 448.713 239.199 452.282 239.82V240.285C455.644 239.303 462.626 244.061 461.798 236.975V233.82C461.798 234.131 462.315 234.389 462.47 234.596C465.315 231.804 467.642 234.855 467.642 229.424C467.642 229.838 468.004 229.89 468.004 230.304C470.952 229.373 469.452 225.132 469.918 223.115C472.814 223.787 471.935 224.925 473.176 226.632C476.744 223.684 475.555 217.064 474.003 212.927L476.848 211.427C476.848 213.392 478.296 216.599 480.003 217.219C480.365 215.564 479.072 215.15 480.675 213.495C482.063 215.073 483.261 216.809 484.244 218.667C489.415 216.185 479.434 214.478 485.795 214.478C486.571 213.237 484.812 211.22 483.054 209.979L486.881 209.151C484.709 207.6 486.157 204.703 486.881 202.583C485.95 201.807 483.571 202.583 484.14 203.928C483.417 203.373 482.916 202.579 482.726 201.688C482.537 200.797 482.671 199.867 483.106 199.066C488.278 201.238 486.571 190.481 491.846 194.929C492.622 191.671 493.346 187.74 494.07 184.223C494.857 181.222 495.137 178.111 494.897 175.018C496.759 174.19 497.587 171.449 499.655 173.931C501.103 168.76 496.345 164.881 498.983 160.433C499.759 160.433 498.621 162.657 500.431 162.916C498.931 159.244 503.845 157.485 503.276 152.107C503.276 152.986 504.31 153.4 504.879 153.606C503.948 153.606 503.327 151.227 502.655 149.831C503.224 149.159 503.12 150.865 503.896 150.555C505.528 146.104 505.38 141.195 503.483 136.85C501.7 132.645 500.381 128.257 499.552 123.765C499.552 126.403 503.534 127.179 505.086 127.127V124.334C503.12 123.455 502.965 121.438 501.414 119.938C502.086 119.628 502.81 118.645 503.741 119.369C506.43 113.267 495.208 112.491 495.828 105.974L500.328 108.767L504.879 111.922L507.051 109.284L511.24 112.284C512.792 109.595 507.62 108.716 510.361 107.785C511.24 108.095 511.24 109.284 512.792 108.974C513.412 106.543 511.24 106.854 510.361 105.354C516.826 108.198 519.205 117.146 520.704 121.904C521.222 122.628 519.256 121.386 518.636 121.335C518.998 123.3 517.291 124.593 518.636 126.972C521.222 128.368 520.342 125.679 520.498 124.438C522.67 124.438 522.566 125.058 523.032 126.403C520.136 126.92 522.773 134.109 518.894 135.867C519.515 143.108 526.342 134.781 524.79 142.022L521.429 143.987C522.72 146.253 523.628 148.717 524.118 151.279C524.582 153.776 524.44 156.348 523.704 158.778V157.744C522.411 156.865 521.377 157.744 520.601 158.209C518.584 161.416 522.049 165.45 518.325 166.794C520.36 172.295 521.444 178.101 521.532 183.965C517.136 183.965 519.774 176.879 517.757 174.293L516.567 178.379C517.239 175.845 515.998 174.397 514.033 172.277C512.274 175.483 515.584 177.707 515.636 181.431C514.55 180.81 513.826 181.017 513.257 182.517L515.791 183.861C515.533 183.861 515.274 183.861 514.912 184.327L514.291 190.688C515.895 189.912 518.274 190.688 518.894 189.188C517.136 189.188 517.291 187.792 517.963 186.292C519.153 188.257 520.032 185.309 521.48 185.878C520.175 188.837 519.321 191.975 518.946 195.187L516.257 194.825C514.447 197.411 514.705 201.187 512.947 202.686L511.964 201.549C509.585 204.445 509.43 208.479 505.706 210.186C506.896 214.53 507.154 219.443 508.344 223.322C510.464 226.373 499.552 229.425 501.621 235.217C501.155 235.217 500.845 231.597 500.431 230.045C498.673 231.855 501.155 235.889 497.742 234.545C501.724 230.511 495.259 233.2 495.725 230.562C494.385 232.452 493.662 234.71 493.656 237.027C496.087 233.614 496.863 241.009 498.052 236.717C498.357 238.821 498.107 240.967 497.327 242.945C496.546 244.922 495.263 246.662 493.604 247.991C493.138 247.566 492.529 247.33 491.898 247.33C491.266 247.33 490.658 247.566 490.191 247.991L491.277 250.267C489.881 251.56 491.277 245.819 488.433 248.301C489.26 253.784 479.641 255.697 484.037 261.541C480.054 261.955 485.381 255.49 479.951 256.68C479.589 253.111 484.037 252.335 481.813 249.491C481.037 251.973 478.917 248.301 477.882 249.491V252.904L478.348 252.542C477.986 258.128 472.297 262.886 468.677 267.282C467.901 273.229 469.297 279.332 464.849 283.418C464.849 280.78 459.678 285.435 459.678 280.159C459.098 280.207 458.54 280.403 458.057 280.727C457.574 281.05 457.182 281.492 456.918 282.011C456.654 282.529 456.526 283.106 456.548 283.687C456.569 284.268 456.738 284.834 457.04 285.331C459.16 284.038 458.023 285.331 459.988 284.193C460.034 285.282 459.664 286.347 458.953 287.173C458.242 287.999 457.244 288.524 456.161 288.641C456.678 288.331 456.161 288.227 456.161 287.71C453.213 288.796 456.471 290.038 455.489 292.055C453.213 290.606 451.661 294.692 449.334 295.002L449.748 299.605C449.282 296.813 447.162 300.691 445.3 299.243C444.99 301.829 445.714 305.243 442.921 306.691C442.921 304.932 439.663 307.104 437.749 305.243C432.578 306.794 435.474 315.948 429.371 316.155C429.113 315.638 428.906 313.724 427.406 314.086C426.94 315.327 425.182 316.31 424.406 317.241C424.314 317.332 424.241 317.441 424.191 317.561C424.141 317.681 424.115 317.809 424.115 317.939C424.115 318.069 424.141 318.198 424.191 318.317C424.241 318.437 424.314 318.546 424.406 318.637C424.76 322.055 424.244 325.506 422.906 328.671C424.82 330.739 426.94 327.74 427.561 326.085L426.682 323.033C430.302 325.723 429.164 320.189 430.767 320.758C431.905 325.93 425.596 329.757 423.889 334.67C428.388 336.48 433.302 333.274 437.025 329.86H434.233L436.25 328.205L432.422 327.378C434.698 326.292 435.888 324.326 437.594 323.137C435.526 324.74 432.422 322.309 433.871 321.896C437.905 322.309 435.112 318.586 436.974 317.396C435.836 317.913 434.543 318.896 434.336 316.982C439.922 316.982 439.508 314.5 444.68 314.707C441.266 311.397 448.196 311.087 446.128 307.777L444.473 308.656L445.507 303.95C450.679 304.519 445.507 309.121 451.661 307.466C455.851 304.519 452.437 300.95 455.075 297.899C455.598 299.463 455.657 301.146 455.244 302.743C454.831 304.34 453.964 305.783 452.747 306.898L455.126 306.639C455.437 308.501 451.817 311.19 449.955 312.535C450.627 307.673 447.989 312.897 445.093 312.069C446.593 314.345 448.145 312.483 447.421 315.948C448.84 314.368 450.612 313.146 452.592 312.38C446.283 316.155 453.678 323.861 447.421 326.292C448.92 323.447 444.162 323.913 443.025 323.085C441.801 324.475 440.742 326.002 439.87 327.636L443.128 330.067C441.214 333.687 435.112 327.895 434.181 333.739C435.163 335.963 437.646 332.084 437.336 332.911C434.129 338.445 428.699 334.825 422.751 335.342C423.874 337.084 424.467 339.114 424.458 341.186C423.579 338.911 421.769 338.704 422.389 336.015C420.424 336.015 419.752 338.756 419.079 340.359C422.803 339.428 419.803 343.979 420.062 345.531C418.304 346.255 419.183 343.255 419.752 342.066C418.148 342.376 414.58 340.566 416.028 343.927C415.478 342.288 415.327 340.542 415.588 338.833C415.849 337.123 416.514 335.501 417.528 334.101L415.821 334.825C416.131 333.067 416.493 333.222 418.2 332.498C417.191 332.255 416.261 331.756 415.5 331.049C414.739 330.343 414.173 329.452 413.856 328.464C414.27 328.464 413.856 328.981 414.476 329.188C416.028 328.826 416.545 327.636 415.511 326.757C414.632 323.344 412.666 326.24 410.908 325.464L409.512 327.223V340.411C407.546 343.307 404.909 342.014 401.961 341.91L402.943 344.703C400.409 345.944 397.772 346.617 397.254 342.583C397.823 343.358 398.03 342.996 398.599 342.583C398.532 342.276 398.532 341.958 398.599 341.652V341.135C396.582 343.514 395.341 345.065 395.237 345.22C397.306 339.014 392.652 340.721 390.635 335.963L387.273 340.1C390.686 339.79 388.618 342.169 388.049 343.358C386.29 341.031 384.635 345.582 382.877 346.151V345.582C381.752 345.733 380.669 346.109 379.692 346.686C378.714 347.264 377.863 348.031 377.188 348.944C377.754 351.98 378.048 355.061 378.067 358.15C381.739 357.271 380.446 359.339 381.584 360.736C381.222 360.736 380.601 361.098 380.705 361.46C380.808 361.822 381.843 362.029 382.411 362.804C385.101 359.701 388.359 357.633 387.583 353.185C385.67 352.254 386.756 355.667 384.997 355.305C384.997 352.047 387.635 351.323 390.169 349.668L392.29 351.116L394.307 348.323C393.841 350.082 395.858 351.788 393.272 354.012C394.824 355.719 395.806 351.788 397.978 351.323L397.151 348.065C397.772 349.771 401.702 347.651 400.306 351.426L397.358 356.598L399.737 357.633L396.324 360.529V358.563C391.514 364.201 391.152 354.323 387.17 361.098C387.17 365.494 385.359 367.097 381.119 368.442C383.394 366.114 380.084 365.907 379.981 363.27C376.412 363.27 377.085 366.735 376.361 368.907C374.654 367.511 373.361 366.373 375.947 365.183C374.188 361.304 373.102 367.717 370.775 363.994C362.655 368.442 370.775 379.975 358.363 380.233L357.949 378.475C352.777 383.647 347.968 383.336 342.434 387.37L335.917 385.457C336.693 384.319 338.089 379.975 335.917 378.578C340.003 381.733 341.71 379.147 345.175 380.285C345.175 379.095 343.572 378.785 342.847 378.32C344.296 377.647 345.899 379.147 347.502 377.544C346.985 376.768 344.399 376.716 345.744 375.475L349.571 376.768C352.467 373.975 348.33 369.993 352.881 369.114C353.529 371.785 353.237 374.598 352.053 377.078C354.174 376.665 350.191 379.613 352.57 380.13C353.656 375.527 356.191 377.44 358.725 373.562C358.725 374.234 358.725 374.906 357.949 375.579L363.845 374.286C361.569 373.044 366.948 369.993 364.983 367.407C358.932 369.062 361.414 369.941 354.639 371.493C356.244 368.842 356.883 365.718 356.449 362.649C356.52 362.69 356.6 362.711 356.682 362.711C356.764 362.711 356.844 362.69 356.915 362.649C356.398 359.339 355.053 359.081 352.519 354.116C351.588 359.029 348.278 357.115 346.106 360.787C346.83 363.839 349.674 363.321 350.967 361.77L349.002 365.08V363.528C349.002 363.528 347.088 364.252 345.071 364.873L341.141 366.114C342.485 365.338 342.227 363.528 342.382 361.977C341.18 362.302 339.912 362.302 338.71 361.977C340.158 364.511 340.882 366.425 339.951 366.787C337.976 367.508 335.851 367.721 333.772 367.405C331.693 367.088 329.727 366.253 328.056 364.976L327.591 365.442C329.608 367.769 326.401 371.907 326.039 375.268C324.901 372.424 322.833 374.596 320.867 373.717C321.726 377.599 323.992 381.026 327.229 383.336C329.297 378.992 327.849 379.561 327.591 374.699L331.521 369.528V372.682C334.676 372.682 335.607 368.079 336.693 371.493C336.331 374.337 333.435 374.027 333.073 376.665L335.348 377.078C333.745 381.785 332.349 374.648 329.659 378.63C332.297 380.905 329.659 378.992 328.625 381.578C330.797 383.078 334.831 377.802 335.866 383.181C334.883 386.284 326.815 380.388 326.246 386.284V385.663C322.109 386.646 321.85 390.008 321.074 392.387C318.799 391.456 317.351 394.611 315.592 395.542L315.127 394.093L313.937 394.921L312.748 395.697C312.748 392.645 315.799 394.559 317.92 393.318L316.575 390.784C320.35 392.904 320.143 387.422 321.126 384.319C319.264 387.784 312.955 386.905 314.299 392.438L311.507 390.422L310.989 391.663C310.548 391.219 310.209 390.685 309.993 390.098C309.778 389.511 309.691 388.884 309.74 388.26C309.79 387.636 309.973 387.031 310.278 386.484C310.582 385.938 311.002 385.464 311.507 385.095C312.179 385.612 312.541 385.819 312.644 386.439C313.317 384.784 313.575 382.302 316.627 381.785L315.696 383.802C319.264 382.56 322.005 380.233 322.109 377.13C316.924 378.143 311.862 379.703 307.007 381.785C307.886 388.353 307.421 392.128 308.714 398.283C307.277 399.623 305.567 400.636 303.701 401.252C301.835 401.868 299.857 402.072 297.905 401.851V400.61C297.2 400.575 296.498 400.712 295.858 401.009C295.218 401.307 294.66 401.755 294.233 402.317C292.216 401.282 294.233 398.955 292.94 398.489L288.751 401.851C288.234 399.162 292.319 398.024 293.923 397.145C293.612 397.455 293.043 398.179 293.405 398.438C295.94 398.438 298.577 392.852 300.749 396.266C301.629 395.231 299.508 399.782 303.232 398.696C306.18 399.214 305.766 395.593 305.611 394.404C305.456 393.214 301.111 393.783 301.835 391.559C300.025 392.387 299.922 394.507 297.077 393.99C298.888 393.111 300.336 389.284 302.249 391.197C304.938 387.215 301.939 380.854 300.129 380.854C301.318 382.871 294.491 386.026 300.129 386.956C298.939 390.422 294.957 392.128 292.785 394.559V393.99L289.423 395.8C289.733 394.869 290.561 393.887 290.147 392.438L286.424 397.61C288.389 394.093 284.148 396.266 282.545 395.49C282.545 397.869 281.2 400.144 283.476 400.662C285.751 401.179 284.355 399.058 286.165 398.334L284.562 402.679L284.2 402.42L283.424 405.833C279.649 406.713 283.062 398.541 279.131 402.834L280.941 406.609C275.201 407.85 266.771 405.006 263.306 407.799C263.563 406.413 263.506 404.988 263.139 403.627C262.772 402.266 262.105 401.006 261.185 399.938C263.778 399.963 266.343 399.397 268.684 398.283C269.357 398.903 266.926 403.765 264.03 403.454C266.978 409.712 269.667 397.869 271.684 404.437C279.08 404.902 274.839 396.628 281.562 398.851C280.786 395.904 282.752 396.938 282.234 394.249C279.183 389.956 274.891 396.628 270.805 396.007C271.263 395.602 271.572 395.056 271.684 394.455C270.698 394.351 269.703 394.507 268.796 394.906C267.889 395.305 267.101 395.934 266.512 396.731L266.823 397.041C264.392 400.713 264.288 395.283 262.116 394.455C261.496 395.024 258.703 394.818 259.634 396.886L256.014 394.973L256.944 398.283C255.083 398.955 254.152 396.834 252.859 399.317L253.428 402.317H258.599C256.376 403.868 258.599 405.316 256.014 406.609C258.289 402.627 253.531 405.471 252.6 402.73L250.945 404.799L251.307 403.92C249.445 402.679 249.652 405.368 247.739 405.316C250.221 406.557 252.186 408.523 254.462 405.73C252.746 407.878 250.596 409.641 248.153 410.902C246.239 412.557 244.325 410.54 242.257 410.54C245.877 408.626 239.257 401.593 247.428 402.42C247.428 402.989 246.756 402.989 246.446 402.42C248.256 406.092 250.997 401.334 252.238 399.576C251.359 397.403 252.962 396.576 249.807 395.904C251.1 397.145 248.411 401.075 245.308 399.938L244.325 395.438H240.498L240.809 395.128C238.792 392.335 236.723 396.472 233.723 395.128C232.12 397.3 224.259 396.731 228.241 401.386C225.345 398.696 223.638 402.782 220.949 403.765L224.621 405.316C220.949 409.195 221.88 406.868 219.139 412.712C218.673 411.471 217.846 410.436 218.363 408.988C212.829 409.609 204.658 408.264 201.555 412.453C197.469 412.453 196.849 407.023 191.211 409.04C190.022 409.712 192.142 413.591 188.367 412.091C188.367 411.729 191.987 408.626 187.85 408.885C184.747 412.505 180.971 406.661 176.937 409.764C174.972 408.316 171.352 408.316 172.334 405.523C175.541 406.661 180.092 406.144 180.868 404.696C180.299 406.506 183.04 406.506 180.609 407.799C185.419 410.178 183.816 406.092 188.108 407.799C188.47 406.661 185.988 404.489 185.057 405.523C185.057 401.489 193.487 403.816 189.763 398.851C185.367 398.438 183.661 406.764 179.885 402.42C181.592 399.989 183.971 402.42 186.091 397.972L182.988 396.266L180.506 399.11V398.541C175.334 394.766 175.024 402.317 169.593 403.713C172.386 406.868 168.145 410.591 170.317 412.557C166.645 412.557 164.008 411.833 164.473 407.799C171.507 405.316 165.404 403.661 171.817 400.351C170.99 398.8 173.731 394.611 170.369 393.783C166.128 396.214 171.197 397.248 167.111 398.127C166.993 397.923 166.931 397.691 166.931 397.455C166.931 397.219 166.993 396.987 167.111 396.783C164.99 398.645 165.094 395.8 162.56 397.817L163.232 397.093C160.905 394.352 159.819 399.627 158.06 396.472C158.526 399.576 156.095 398.541 154.285 400.041C156.457 401.593 157.129 406.351 162.043 406.609C162.922 404.334 162.767 402.989 164.887 402.11H161.732C162.335 401.65 162.906 401.149 163.439 400.61L166.232 402.161C162.249 403.403 163.646 406.092 161.681 408.368C158.267 406.868 158.629 408.73 156.509 407.54C157.233 404.127 150.665 400.3 147.251 397.197C147.82 397.455 148.648 397.559 149.061 397.714C152.371 396.214 147.717 394.507 147.872 393.576L145.39 394.818C145.855 394.818 146.579 393.99 145.803 393.318C142.907 393.318 142.183 396.783 139.183 396.472C139.494 394.559 142.597 392.542 141.149 390.99C141.149 389.18 140.476 384.371 136.442 384.836C135.977 385.457 134.943 385.56 133.753 385.508C133.753 385.508 134.167 385.508 134.27 385.508L132.667 382.767C135.667 380.337 136.132 385.508 139.132 383.078L140.218 380.181C141.129 380.357 142.069 380.323 142.965 380.081C143.861 379.839 144.69 379.396 145.39 378.785C143.321 377.544 142.648 378.164 140.218 377.958C140.218 375.992 142.597 375.165 142.907 375.061L142.028 376.613C144.303 380.026 147.2 375.32 150.716 376.613C151.285 376.613 150.716 377.027 150.716 377.544C154.337 375.268 156.457 379.923 160.129 376.613L158.888 378.061C159.974 377.596 161.629 376.871 163.491 375.889L169.542 372.269V371.079C169.18 370.303 170.576 370.51 171.3 371.079L176.782 367.821C176.462 367.083 175.895 366.48 175.179 366.114C174.507 367.459 171.3 366.114 171.352 369.166C170.059 367.097 167.214 369.528 166.18 368.235C167.938 370.51 164.266 371.027 163.594 372.734C163.18 370.665 160.439 372.269 161.215 369.631C160.905 368.855 161.887 371.648 163.077 370.2C165.611 368.183 159.508 367.2 162.612 365.39C158.94 366.528 154.699 364.77 150.561 366.476L152.268 367.976C150.768 367.407 147.096 366.838 147.096 365.442C148.459 365.709 149.846 365.83 151.234 365.804C152.009 362.959 147.769 364.821 148.131 362.908L145.338 364.666L142.493 366.425L144.303 367.2C142.545 368.597 139.132 365.183 136.649 363.839C139.804 360.425 140.994 365.132 144.51 364.511C147.096 363.683 144.51 360.218 146.734 359.908C146.734 358.822 145.234 358.512 144.252 359.287L143.735 358.305C146.734 355.254 150.199 357.374 153.561 354.891C153.224 355.222 152.944 355.607 152.733 356.029C153.44 356.86 154.378 357.462 155.429 357.757C156.479 358.052 157.593 358.026 158.629 357.684C157.853 356.288 157.285 357.012 156.561 357.322C156.561 356.391 158.681 356.391 159.56 355.512C158.009 354.012 159.56 353.237 158.733 352.357C160.077 351.685 160.905 352.357 162.249 352.875C162.663 354.426 161.267 354.685 161.008 356.546C162.663 355.771 162.56 360.374 165.094 358.667C162.405 357.219 166.542 354.891 167.732 353.495H167.266C168.507 351.426 169.283 351.426 169.645 353.495C168.3 354.271 167.266 353.495 167.266 355.771C168.165 355.835 169.063 355.638 169.852 355.202L168.818 356.702H172.852C174.003 354.177 174.955 351.566 175.696 348.892C176.42 350.806 177.868 349.461 178.747 348.892L178.282 349.668C179.782 351.685 183.764 350.185 184.126 348.478C185.419 350.082 174.61 359.494 183.712 358.046C187.177 358.046 186.04 352.512 187.953 350.599C187.864 350.903 187.864 351.226 187.953 351.53C189.401 351.995 189.556 349.875 190.746 348.996C189.918 348.116 188.677 348.013 188.263 348.996C188.729 346.617 191.211 349.306 192.297 347.444C190.901 351.064 195.09 348.892 194.004 350.754C197.004 352.926 200.107 349.875 201.451 347.134C203.675 351.582 204.865 346.358 208.226 348.323C207.709 348.323 206.882 348.944 206.106 348.323C204.503 351.271 209.623 349.668 206.934 352.461C207.554 351.944 206.934 350.909 206.313 351.375C205.716 351.586 205.214 352.006 204.901 352.557C204.587 353.107 204.483 353.753 204.606 354.374L207.502 356.805L206.623 357.529L208.847 359.236C209.562 359.774 210.304 360.274 211.071 360.736C211.074 360.157 210.851 359.601 210.45 359.184C215.622 360.115 220.794 357.477 225.19 357.477C224.776 349.254 235.068 352.306 237.499 346.565C237.019 349.309 237.287 352.132 238.274 354.736C237.55 355.202 236.619 358.719 234.706 358.357C234.189 357.167 231.758 356.081 232.896 354.374C228.241 356.133 234.137 357.736 233.258 360.994C238.43 359.184 240.809 354.116 243.601 351.323L243.912 352.254L246.032 349.875C243.808 349.875 242.929 345.324 246.032 346.255V346.565C247.997 348.065 250.583 345.117 252.962 344.858L253.841 341.859C256.22 341.6 257.617 346.41 259.013 349.047C262.84 348.272 263.823 343.876 265.685 340.617C267.495 342.324 273.132 341.186 270.857 344.548C273.649 341.703 269.357 330.998 276.856 335.135L276.08 337.618C281.252 335.291 287.354 328.826 290.561 329.912C291.285 337.721 299.87 334.36 303.646 340.773C302.766 339.324 304.576 337.98 304.525 337.049C305.249 337.67 306.335 338.135 306.542 336.428C303.852 335.911 305.042 328.774 302.197 333.118C302.197 327.585 303.283 323.085 307.369 321.378L308.559 324.223L306.697 324.533L304.835 324.844C306.076 326.757 304.214 327.326 303.904 328.567C310.989 327.533 305.921 335.653 312.334 332.394C312.334 330.274 312.334 331.205 313.42 329.705C312.696 330.17 313.42 332.187 314.713 331.619V328.826C319.161 332.446 312.334 333.584 315.747 336.015C314.196 339.428 310.214 342.531 312.541 345.737C317.713 345.272 313.42 337.307 318.54 336.945L319.73 338.29C320.816 336.532 319.73 333.946 320.04 332.084C320.232 332.503 320.565 332.842 320.981 333.04C321.397 333.239 321.869 333.285 322.316 333.17C323.442 329.484 324.357 325.737 325.057 321.947C320.195 327.74 318.437 321.947 313.265 327.119C313.73 325.464 317.816 322.516 316.316 318.586L317.558 321.378C318.954 318.948 320.299 316.62 323.298 316.207L322.522 318.534C324.953 314.965 330.228 319.775 330.59 313.879C330.139 313.93 329.706 314.088 329.328 314.34C328.95 314.591 328.638 314.93 328.418 315.327C329.038 314.382 329.852 313.58 330.806 312.973C331.761 312.367 332.833 311.971 333.952 311.811L335.452 305.346C336.124 306.691 338.607 305.346 338.607 308.294C342.485 308.811 341.555 304.001 342.744 302.45C347.14 303.691 341.037 305.087 342.744 308.966C344.822 308.569 346.746 307.598 348.3 306.162C349.854 304.727 350.975 302.886 351.536 300.847C350.45 300.847 349.829 300.536 349.467 299.864C350.088 300.64 351.484 299.554 352.364 299.088L351.95 297.019C354.07 297.33 354.484 298.468 354.018 300.485C355.622 300.019 355.208 295.675 358.104 297.278C357.07 300.847 352.932 300.795 352.519 302.76C356.449 298.261 360.587 304.984 365.448 298.985C366.017 299.709 365.965 301.933 367.206 301.209C369.534 298.83 365.707 297.278 365.345 294.899C363.948 297.278 362.293 296.864 359.759 295.468L359.449 293.761C359.966 294.434 361.311 293.761 362.086 294.072L360.69 291.072C362.448 294.278 365.862 295.261 367 293.037C363.897 291.899 364.414 291.693 361.828 288.486C361.828 283.728 366.534 290.089 367 284.969C367.465 286.107 365.707 288.227 368.137 287.762C370.568 287.297 368.137 284.659 368.551 283.159C369.068 286.521 370.672 288.331 371.344 292.055C368.655 294.227 370.154 292.727 368.034 295.675L371.861 296.295C369.637 298.261 371.861 300.381 372.378 301.467C378.326 301.467 373.102 295.623 376.154 294.434C376.154 291.848 373.464 295.83 374.24 292.572C376.929 291.227 373.671 290.555 375.636 287.4L375.998 288.848C377.86 289.779 377.395 287.348 378.222 286.417C379.05 285.486 370.982 278.556 375.119 275.401C375.303 275.96 375.546 276.497 375.843 277.005L381.015 288.952C383.549 295.002 386.187 301.002 386.187 301.002C391.378 297.424 396.924 294.391 402.737 291.951C406.977 295.002 401.495 298.157 403.15 299.709L401.65 300.226L400.099 300.691C399.013 298.933 404.754 296.347 400.099 295.002C396.737 299.45 393.324 298.726 391.721 305.346C395.91 308.552 396.892 300.795 401.65 301.984C401.058 302.281 400.532 302.695 400.105 303.202C399.678 303.709 399.359 304.298 399.168 304.932C402.116 303.691 405.219 302.243 408.477 300.64V299.192C407.159 299.845 405.793 300.398 404.391 300.847C405.06 300.393 405.625 299.803 406.05 299.116C406.474 298.43 406.75 297.661 406.857 296.86C406.964 296.06 406.902 295.245 406.673 294.471C406.444 293.696 406.054 292.979 405.529 292.365L405.012 292.623V291.02L407.908 290.71ZM505.293 124.541C505.71 124.706 506.143 124.827 506.586 124.903C506.017 124.8 505.706 124.955 505.293 124.541Z" fill="#52000E"/>
<path d="M129.255 526.956C137.271 523.284 147.356 527.628 155.838 524.629C156.82 524.629 155.838 527.111 157.907 526.387C162.621 524.506 167.676 523.625 172.75 523.801C178.304 523.757 183.854 524.138 189.351 524.939L188.834 525.715C190.799 525.715 192.816 523.284 194.885 523.284C194.885 523.75 194.316 524.06 194.885 524.577C195.195 523.129 198.401 523.387 199.125 522.25C200.005 522.663 200.108 523.75 201.194 524.163L202.125 522.457C204.659 518.371 209.883 521.319 213.865 518.578C213.865 518.94 213.348 519.302 213.865 519.612C217.397 517.79 221.128 516.384 224.984 515.423C228.863 514.182 232.897 513.044 236.621 511.699C236.621 512.32 236.621 513.406 237.035 513.871C237.035 512.165 239.258 511.182 241.224 510.406C242.62 511.854 244.327 507.924 246.964 508.131V508.545C248.206 506.321 249.809 508.545 250.688 506.321L252.136 507.303C252.136 504.769 255.032 507.769 256.17 506.166V505.7C257.36 504.769 258.446 505.7 259.583 504.924C262.376 503.476 264.445 504.097 263.824 502.338C265.324 503.424 261.187 503.942 263.462 505.493C272.788 500.987 282.393 497.083 292.217 493.805C293.562 494.115 294.338 494.064 294.855 494.632C295.682 493.908 298.32 492.926 298.889 491.736C298.579 491.736 299.82 492.409 300.389 492.253C302.354 492.253 301.526 489.616 303.699 489.564C303.13 490.34 303.078 491.012 303.699 491.581C304.785 489.564 307.06 488.892 308.87 487.651C308.87 488.064 308.301 488.426 308.87 488.944C310.318 486.513 312.801 487.702 314.042 485.944V487.237C317.507 487.237 314.042 484.806 316.887 484.444C316.421 485.013 316.887 485.323 316.887 485.789C318.542 483.048 322.575 481.858 324.644 480.203C324.611 480.276 324.594 480.356 324.594 480.436C324.594 480.516 324.611 480.596 324.644 480.669C327.379 479.574 329.995 478.206 332.454 476.583C333.643 476.583 333.229 479.117 335.764 477.514C334.729 475.6 339.953 474.669 337.315 473.17C340.02 472.584 342.584 471.478 344.866 469.911C344.193 471.153 347.141 471.773 345.331 472.859L347.297 473.325C347.297 474.204 345.693 473.79 346.676 474.566C347.555 473.997 349.934 471.877 350.969 471.773C352.106 469.705 352.623 466.601 355.313 465.05C354.382 466.446 357.175 466.808 356.399 467.584L358.416 461.843C359.295 461.275 359.398 463.292 360.485 461.843C360.174 461.378 360.485 460.757 360.485 460.137C360.485 459.516 364.053 457.603 365.656 459.258C366.432 459.775 364.363 460.447 365.656 460.551C367.363 459.62 367.104 458.947 368.811 458.016C370.104 457.706 371.707 455.43 369.897 455.068C369.07 455.43 370.828 456.051 369.38 456.103C369.38 454.603 371.345 453.207 373.052 452.276C372.638 452.896 373.052 453.362 373.052 454.034C374.608 451.541 376.545 449.308 378.793 447.414C378.327 446.535 378.793 449.535 378.12 449.328C382.051 448.655 383.757 443.742 387.481 444.156C387.119 444.57 386.499 443.018 386.654 443.277C388.257 442.501 388.929 443.794 389.705 442.708C390.222 443.432 390.791 441.777 391.722 440.95C392.653 440.122 392.187 440.95 391.36 441.725C393.949 438.791 397.191 436.506 400.824 435.054C400.462 434.64 401.704 432.054 402.479 431.64L402.893 432.933C404.031 432.933 405.375 431.278 406.099 432.158C406.875 429.779 400.928 437.329 402.169 434.795C403.307 435.364 404.083 431.071 404.548 432.882C406.048 431.899 406.668 429.727 408.841 429.882C408.272 429.882 408.841 432.209 409.771 431.33C411.788 429.779 410.03 430.451 411.53 428.951L412.254 427.762C411.633 426.624 414.219 426.624 412.668 425.951C413.495 426.675 415.357 423.366 416.34 425.279L416.96 426.882C417.788 426.158 417.477 424.4 417.736 423.262C418.039 423.327 418.312 423.491 418.512 423.728C417.167 421.452 420.787 422.435 420.736 420.056C423.115 419.487 425.597 416.849 427.407 417.573C428.442 415.918 429.166 414.212 431.131 413.487C431.131 413.901 430.51 414.315 430.769 414.832C432.217 414.832 432.062 413.953 432.786 412.919C432.786 413.384 435.682 412.66 437.389 412.608C438.32 410.902 437.027 410.126 436.665 409.35C439.457 410.488 439.664 405.109 442.664 405.782C442.354 406.402 441.371 408.316 442.922 407.954C445.715 409.04 444.371 404.54 447.215 403.971L445.405 402.678C447.163 403.041 447.629 399.369 448.767 401.23C448.767 400.093 451.559 399.886 450.111 398.438C454.507 397.196 457.507 391.249 461.851 392.49C462.161 391.87 463.558 391.197 462.627 390.577C461.696 389.956 462.058 392.076 461.231 391.714C461.369 391.547 461.445 391.337 461.445 391.12C461.445 390.902 461.369 390.692 461.231 390.525C462.575 390.111 463.506 389.542 463.61 391.663C466.764 390.835 463.61 387.008 467.023 385.25C467.488 386.025 467.902 386.077 468.626 385.25L469.247 382.767C471.315 381.474 471.574 383.388 472.557 384.474C473.384 383.44 474.625 382.457 474.367 381.267L476.746 381.629C475.039 381.629 476.746 380.285 477.211 379.612V380.285C477.78 380.595 478.659 379.302 479.125 378.681C478.401 378.113 477.004 378.682 476.177 379.199C476.177 378.268 477.16 377.699 477.315 376.561C478.039 377.854 479.59 375.992 480.469 375.423C481.349 374.854 480.469 373.561 480.883 373.406C481.297 373.251 482.383 372.165 482.383 373.406C482.383 373.872 481.245 373.406 481.194 374.441C482.124 374.441 482.9 375.372 483.469 373.561C484.038 371.751 481.349 371.7 483.469 370.82C483.394 371.439 483.394 372.064 483.469 372.682L485.59 371.751L484.762 370.717C485.176 370.717 485.124 370.717 485.331 371.027C484.865 369.579 487.451 368.493 486.779 367.045C487.503 366.218 489.055 366.114 489.934 365.545C490.619 365.325 491.224 364.909 491.675 364.348C492.125 363.788 492.401 363.107 492.468 362.39V362.39C493.353 361.694 493.958 360.703 494.175 359.598C496.14 359.132 498.053 362.752 498.26 360.218C499.502 358.925 498.571 356.546 497.485 356.443C500.381 354.788 501.415 350.754 504.932 350.082C504.932 349.409 504.467 349.358 504.932 348.478C508.656 345.582 510.776 340.462 515.276 339.428C514.758 340.824 516.155 340.41 516.724 340.876C516.724 339.273 518.534 340.876 517.344 339.066C516.413 338.342 516.051 337.876 514.81 338.497C516.269 336.262 518.331 334.487 520.758 333.377C519.827 333.377 519.93 332.911 520.085 332.239C521.378 333.635 522.981 332.239 523.499 330.739L522.826 329.808H524.378C524.378 329.136 523.033 327.74 524.843 327.326C525.21 327.577 525.64 327.72 526.084 327.74C526.395 325.93 526.653 323.188 528.515 322.568H530.687C530.998 321.844 531.049 320.292 529.86 320.965C532.497 319.361 533.842 317.965 535.549 318.12C536.924 311.908 539.963 306.187 544.341 301.57L544.91 302.191C546.513 301.415 544.237 300.64 545.375 300.122C545.685 301.053 547.547 300.122 547.547 301.829C549.668 300.536 548.168 298.623 548.737 297.174C547.961 296.347 548.737 298.571 547.651 297.485C546.565 296.399 550.237 295.52 549.099 294.227C549.978 294.227 550.702 295.261 551.064 295.882V294.278C553.65 294.278 551.581 299.45 554.633 299.45L555.202 298.261C557.374 298.261 554.736 302.191 557.219 299.967C557.219 298.312 556.029 295.83 554.736 296.45C556.029 293.761 552.202 292.985 554.064 290.503C555.408 290.503 552.874 292.675 554.374 292.985C555.874 293.296 555.408 290.141 556.546 289.313C555.202 290.141 554.477 288.124 554.736 287.193C556.339 286.366 555.512 288.951 556.908 287.193C556.339 286.366 556.908 284.245 555.305 285.331C553.96 283.366 557.167 283.728 556.391 281.763C558.098 282.021 558.098 285.693 560.115 284.09C558.667 283.573 560.115 280.418 557.58 280.263C557.805 280.156 558.051 280.101 558.3 280.102C558.549 280.104 558.795 280.161 559.019 280.27C559.242 280.38 559.438 280.538 559.592 280.734C559.746 280.93 559.854 281.157 559.908 281.401C561.459 280.728 559.494 277.108 562.235 278.401L561.252 277.16C561.925 277.16 562.545 276.746 563.631 276.591C564.304 275.557 563.631 272.143 565.804 273.488C565.804 273.022 567.355 270.695 565.442 270.747C563.683 271.678 565.442 273.074 563.063 272.712C565.183 272.712 564.149 270.488 564.2 269.35L565.028 269.661C565.028 268.988 565.907 267.902 565.286 267.075C565.313 267.211 565.373 267.338 565.461 267.445C565.549 267.552 565.663 267.635 565.792 267.687C565.92 267.738 566.06 267.756 566.198 267.74C566.335 267.723 566.467 267.672 566.579 267.592L565.7 266.351C566.373 263.92 568.079 267.127 568.958 264.903V266.971C568.958 266.506 570.51 266.506 570.717 265.316C569.889 264.282 569.01 262.834 568.389 262.007C568.389 260.61 569.889 262.006 569.476 260.507L569.889 262.679C569.889 263.144 572.268 262.679 573.199 261.231C574.13 259.783 572.734 257.662 571.234 258.852C571.699 258.076 572.889 257.352 573.354 258.438C573.923 256.473 572.061 257.973 572.217 256.059C573.251 256.059 575.32 254.507 577.026 253.939L578.009 256.576L578.578 255.49C579.302 257.714 580.078 255.49 581.215 257.042C581.836 256.473 581.784 255.283 581.784 254.352C578.164 255.128 579.664 250.111 577.078 249.491C578.009 246.284 583.594 250.629 581.681 245.715C580.802 245.715 579.819 243.595 579.509 245.715C580.75 244.009 577.854 243.285 579.974 241.681C579.974 243.698 583.181 241.164 583.336 244.164C582.664 243.595 582.043 245.095 582.095 245.56C583.388 245.302 584.319 246.905 585.301 245.043C586.284 243.181 586.542 242.25 585.301 241.837C584.06 241.423 584.474 243.647 583.543 242.25C584.267 239.768 586.387 240.337 584.525 238.216C584.008 239.768 582.508 239.458 581.577 238.992V237.027L582.302 237.803C584.215 235.424 581.06 236.199 582.302 233.717L584.629 233.355C585.87 234.7 582.198 236.82 584.629 237.544C585.56 235.889 584.629 234.7 585.974 233.407C585.948 233.889 585.948 234.372 585.974 234.855C586.336 234.286 589.904 235.217 589.128 231.855C589.128 230.252 588.404 231.131 587.525 230.666C588.508 227.769 587.939 226.528 588.611 224.718C590.266 225.908 590.266 221.667 591.197 224.459C590.208 225.112 589.473 226.085 589.115 227.215C588.758 228.344 588.799 229.563 589.232 230.666C591.818 230.666 587.939 232.683 589.801 234.286C590.887 232.062 592.955 233.148 594.507 233.458C594.869 232.838 594.507 231.959 594.507 231.493C593.317 230.666 592.955 231.493 591.611 230.924C592.312 229.92 592.787 228.776 593.001 227.57C593.216 226.364 593.165 225.126 592.852 223.942C593.065 223.821 593.308 223.763 593.553 223.774C593.798 223.786 594.034 223.867 594.235 224.008C594.436 224.149 594.592 224.344 594.686 224.571C594.78 224.797 594.807 225.045 594.765 225.287C595.685 222.124 596.988 219.084 598.644 216.236C595.748 217.219 599.368 212.823 597.093 213.392C595.955 214.737 593.938 215.409 593.266 214.168C593.835 213.288 594.248 214.581 594.869 214.168C594.145 212.461 597.507 213.03 596.11 211.116C595.696 214.116 598.541 212.668 600.041 213.857C600.041 211.478 601.178 214.375 602.006 212.409C601.859 209.913 602.05 207.407 602.575 204.962C605.161 202.738 604.902 197.773 605.678 195.239C606.971 194.205 608.678 195.704 609.453 194.36C610.229 193.015 606.919 194.98 608.678 192.705L608.988 193.067C608.988 192.188 611.832 188.878 608.988 187.275L610.901 188.671C611.263 188.257 610.901 187.688 610.901 187.223C610.901 186.757 612.401 187.223 612.608 187.947C614.677 186.809 613.332 184.585 613.694 182.775L612.867 183.396C612.867 180.137 614.366 178.534 614.625 175.535L615.866 175.948L615.556 174.035C616.694 174.759 617.832 173.362 617.056 172.225L619.021 177.396C617.935 178.431 617.832 175.638 616.383 176.103C616.077 176.311 615.818 176.582 615.625 176.899C615.432 177.215 615.31 177.569 615.266 177.937C615.222 178.304 615.257 178.677 615.37 179.03C615.482 179.383 615.669 179.708 615.918 179.982C616.332 179 615.918 178.896 615.918 177.965C617.728 177.965 617.314 179.62 618.245 180.706C618.245 180.137 619.021 179.517 618.504 179.258C619.026 180.606 619.026 182.1 618.504 183.447C618.142 182.051 617.263 183.809 616.901 183.447C618.4 184.016 618.452 185.826 617.418 187.895C615.194 188.929 617.418 192.239 615.97 194.618C614.79 193.242 614.036 191.554 613.798 189.757C612.556 191.102 613.28 191.515 612.039 192.808C612.918 193.894 614.522 194.98 614.522 197.256L613.384 196.997C613.384 199.014 615.039 199.583 613.953 201.807C612.867 204.031 612.246 205.738 611.522 207.651C610.798 209.565 609.97 211.22 609.298 212.823L608.16 212.513C609.867 215.047 606.816 218.357 606.971 221.046C604.437 224.459 604.695 229.786 601.799 230.872C599.992 237.753 597.352 244.387 593.938 250.629L593.007 248.715C593.524 250.473 591.714 249.025 591.352 250.318C593.266 249.594 592.076 252.749 592.542 254.042C590.075 256.809 588.681 260.369 588.611 264.075L587.577 263.558C588.094 267.385 584.474 269.454 582.405 272.453C581.784 272.453 580.491 272.453 580.026 273.591C580.345 275.854 580.115 278.16 579.354 280.315C577.964 282.595 576.218 284.638 574.182 286.366C571.699 294.537 565.804 300.691 561.873 308.346L560.373 308.035C557.736 316.413 549.513 322.878 545.996 329.136L544.599 327.119C542.634 328.309 541.858 331.36 543.513 332.032C541.548 333.222 540.824 337.204 538.342 336.79C536.531 338.29 537.359 339.635 536.325 341.238C533.414 343.263 530.935 345.848 529.032 348.84L529.86 348.168C529.86 347.444 529.084 346.72 528.257 347.392C527.636 349.047 523.809 351.271 526.964 352.047C522.723 354.374 520.499 360.684 515.793 362.39C516.62 362.701 515.793 363.58 515.793 364.304C513 367.148 508.914 369.01 507.57 372.217C506.845 372.217 507.57 370.562 506.121 371.648C504.673 372.734 506.794 372.372 506.121 373.51C502.346 378.992 495.468 381.319 491.382 385.612C484.175 393.122 476.375 400.04 468.057 406.299L467.747 405.73C466.454 409.557 460.196 408.885 460.093 413.125C459.162 413.125 457.559 414.832 457.352 413.591C456.214 416.539 450.473 416.901 448.56 420.78C448.87 420.78 448.973 420.418 449.129 419.952C445.25 421.245 443.491 424.71 439.509 426.21C439.509 425.745 440.181 425.176 439.975 424.607C438.061 424.607 438.32 428.848 436.044 427.089C435.268 427.606 436.044 428.589 436.716 428.175C428.789 433.19 421.236 438.773 414.116 444.88C407.548 447.052 411.271 441.208 407.858 445.759C407.237 445.759 408.168 446.794 407.858 446.38C406.513 448.087 403.565 445.449 403.1 447.466C404.496 448.552 402.79 448.759 403.1 449.638C399.066 450.931 397.566 450 395.446 452.741V451.862C393.429 455.948 388.981 457.034 387.636 461.119C370.189 472.234 352.147 482.385 333.591 491.529C315.231 500.244 296.208 507.49 276.702 513.199C274.934 512.733 273.083 512.677 271.291 513.036C269.498 513.394 267.811 514.158 266.358 515.268C266.358 514.854 266.772 514.647 266.358 514.44C266.72 516.354 262.893 515.733 262.893 517.595C255.446 519.302 248.878 522.043 241.172 523.853C242.361 523.387 242.568 521.732 241.172 522.198L239.931 523.75L239.569 523.284C238.638 523.801 237.81 524.991 239 525.353C219.813 531.973 199.85 531.714 180.559 534.248C175.115 534.436 169.69 534.989 164.32 535.903L153.252 534.714C149.632 534.196 146.063 533.731 142.495 533.369C135.211 532.607 127.888 532.296 120.566 532.438C121.501 530.923 122.77 529.641 124.276 528.691C125.782 527.741 127.485 527.148 129.255 526.956V526.956Z" fill="#52000E"/>
<path d="M613.33 593.207C613.427 592.82 613.548 592.44 613.692 592.069V592.948L616.123 591.603C616.263 591.227 616.436 590.863 616.64 590.517C616.581 590.629 616.55 590.753 616.55 590.879C616.55 591.005 616.581 591.13 616.64 591.241L617.416 590.827C617.784 587.343 618.388 583.887 619.226 580.484C619.71 578.52 620.731 576.73 622.174 575.312C621.191 576.295 620.26 578.002 621.708 578.57C624.76 577.484 628.949 579.398 629.569 573.399L627.656 575.571V571.278V566.986C630.862 566.986 627.656 571.278 628.431 573.295C629.724 567.658 637.999 569.313 635.982 564.348C638.361 565.951 642.292 568.692 644.309 565.951C640.275 565.641 644.309 563.055 640.12 562.279C639.654 560.366 643.378 560.107 641.878 558.607L642.602 559.59C649.791 558.142 645.498 552.091 645.24 548.729C648.601 542.73 652.118 541.489 655.169 536.783C656.773 537.817 661.841 539.834 663.031 537.869C661.634 535.49 663.755 530.732 661.376 528.301C657.911 530.68 661.634 532.593 660.807 534.972C656.876 534.455 657.962 533.059 654.704 533.938C657.083 533.007 659.204 524.991 663.237 524.991V525.974C667.065 524.06 674.253 528.404 673.943 520.181V516.458C674.138 516.756 674.363 517.033 674.615 517.285C677.77 513.354 680.097 516.613 680.821 510.407C680.821 510.872 681.235 510.872 681.132 511.338C684.493 509.786 683.252 505.08 683.873 502.649C686.976 502.649 685.942 504.407 687.131 506.269C691.062 502.183 690.337 494.529 689.355 489.823L692.665 487.703C692.665 490.082 693.544 493.857 695.302 494.167C695.923 492.202 694.578 491.84 696.544 489.771C697.832 491.451 698.893 493.295 699.698 495.253C705.387 491.943 695.147 490.909 701.871 490.082C702.853 488.53 701.198 486.254 699.492 484.91L703.526 483.513C701.405 481.807 703.526 478.342 704.353 475.756C703.526 474.877 700.785 476.118 701.147 477.514C699.44 476.273 700.009 473.325 701.147 471.774C706.318 474.101 706.318 461.12 711.076 466.24C713.404 458.172 718.42 447.828 718.524 441.881C720.696 441.002 722.402 437.795 723.695 440.898C726.695 435.002 722.92 429.468 726.902 424.193C727.781 424.193 725.764 426.883 727.574 427.503C727.212 422.642 732.746 421.401 734.194 414.729C733.884 415.763 734.815 416.539 735.28 416.901C734.349 416.901 734.608 413.695 734.401 411.729C735.228 411.057 734.401 413.177 735.435 412.971C738.555 407.858 740.334 402.042 740.607 396.059C740.698 390.119 741.603 384.22 743.296 378.527C742.904 379.816 743.03 381.208 743.648 382.406C744.266 383.604 745.328 384.513 746.606 384.94L747.848 381.578C746.503 379.716 747.382 377.182 746.761 374.648C747.537 374.648 748.572 373.82 749.089 375.165C754.726 369.528 745.624 362.649 749.865 355.099L754.26 367.149L757.519 365.39L759.536 370.562C762.328 368.493 758.398 364.821 761.242 365.39C761.811 366.166 761.242 367.459 762.639 367.924C764.501 365.649 762.639 364.873 762.639 362.753C766.673 369.373 763.828 379.664 763.156 385.405C763.156 386.388 762.07 384.216 761.553 383.905C760.984 386.129 758.812 386.853 758.812 389.956C760.518 392.439 760.984 389.232 761.656 387.939C763.621 388.818 763.311 389.491 763.052 391.094C760.208 390.473 759.277 399.11 755.243 399.834C752.916 408.057 762.639 401.127 758.398 408.523L754.467 409.661C755.349 415.452 754.429 421.374 751.83 426.624L752.192 425.486C751.209 424.245 749.916 425.072 749.037 425.486C746.089 428.693 748.158 433.761 744.176 434.692C744.988 441.261 744.708 447.919 743.348 454.396C738.9 453.827 743.348 446.432 741.848 443.225L739.676 447.673C740.969 444.932 740.038 443.122 738.642 440.433C736.004 443.949 738.642 446.846 737.918 450.776C737.039 450 736.159 450.156 735.28 451.81L737.556 453.569C737.556 453.569 737.09 453.569 736.677 454.034L735.797 457.706C735.435 459.568 734.918 461.378 734.918 461.378C736.728 460.551 738.952 461.378 739.831 459.93C738.073 459.93 738.487 458.172 739.366 456.517C740.297 458.844 741.59 455.586 742.934 456.517C741.222 459.81 739.87 463.278 738.9 466.86L736.159 466.343C733.832 469.239 733.315 473.273 731.453 475.083L730.626 473.739C727.833 477.152 727.264 481.755 723.023 483.772C723.695 488.582 723.333 494.116 724.368 498.46C726.488 501.77 714.748 505.959 716.351 512.217C715.886 512.217 715.834 508.286 715.576 506.321C713.559 508.493 715.834 512.734 712.369 511.493C716.92 506.683 709.783 510.251 710.507 507.252C708.927 509.478 708.045 512.125 707.973 514.854C710.611 510.665 711.128 519.043 712.576 513.975C712.786 516.431 712.429 518.902 711.532 521.197C710.635 523.493 709.223 525.552 707.404 527.215C706.163 526.336 705.232 526.387 703.681 527.215L704.767 529.594C703.164 531.145 704.767 524.422 701.819 527.784C702.336 533.679 692.303 537.662 696.647 543.299C692.354 544.437 698.199 536.369 692.406 538.541C692.044 534.61 696.802 532.904 694.475 530.059C693.647 533.059 691.424 529.232 690.337 530.732V534.662L690.855 534.145C690.389 540.61 683.769 546.505 680.046 552.453C679.322 559.435 680.563 565.693 675.753 571.123C675.753 568.123 670.581 574.433 670.581 568.537C669.947 568.723 669.361 569.047 668.866 569.486C668.371 569.924 667.978 570.467 667.717 571.074C667.455 571.681 667.33 572.339 667.352 573C667.373 573.661 667.54 574.309 667.84 574.898C670.064 572.933 668.875 574.381 670.995 572.985C671.034 574.263 670.657 575.519 669.92 576.564C669.183 577.608 668.126 578.385 666.909 578.777C667.53 578.312 666.909 578.312 666.909 577.795C663.651 579.605 667.22 580.225 666.134 582.656C663.651 581.57 661.945 586.431 659.41 587.259L659.979 592.431C659.359 589.431 657.186 594.293 655.169 593.155C654.859 596.154 655.738 599.671 652.687 601.895C652.687 599.93 649.067 603.085 647.205 601.43C641.154 604.274 644.981 613.687 638.258 615.445C637.948 614.928 637.637 612.963 635.982 613.738C635.465 615.187 633.552 616.635 632.724 617.824C632.31 618.393 632.207 618.962 632.724 619.376C633.206 623.158 632.726 627 631.328 630.547C633.552 632.357 635.827 628.581 636.499 626.668L635.62 623.565C639.758 625.53 638.31 619.841 640.171 620.1C641.568 625.737 634.534 630.96 632.931 636.804C638.103 637.477 643.274 633.029 647.412 628.426L644.257 629.099L646.481 626.823H642.188C644.273 625.015 646.21 623.044 647.981 620.927C645.86 623.254 642.137 621.289 643.843 620.513C648.343 619.996 645.085 616.583 647.05 614.773C645.86 615.704 644.516 617.048 644.154 615.031C650.256 613.583 649.636 610.997 655.583 609.86C651.704 607.067 659.359 605.153 657.031 601.999L655.169 603.343L656.307 598.171C662.048 597.499 656.669 603.705 663.082 600.55C667.478 596.31 663.651 593.103 666.547 589.276C667.073 591.052 667.139 592.932 666.741 594.741C666.343 596.549 665.494 598.228 664.272 599.62L666.806 598.74C667.168 600.757 663.444 604.688 661.634 606.446C662.307 601.274 659.462 607.325 656.204 607.067C657.962 609.187 659.617 607.067 658.893 610.739C660.48 608.665 662.446 606.91 664.686 605.567C657.807 611.101 666.237 617.721 659.255 621.755C660.807 618.341 655.532 619.945 654.342 619.324C653.07 621.162 651.979 623.119 651.084 625.168L654.756 626.978C652.842 631.426 645.757 626.564 644.981 633.081C646.119 635.201 648.808 630.443 648.446 631.426C645.085 638.149 638.827 635.408 632.362 637.632C633.705 639.31 634.467 641.379 634.534 643.528C633.396 641.356 631.431 641.562 632 638.615C629.828 639.339 629.156 642.235 628.38 644.148C632.569 642.235 629.414 647.82 629.724 649.32C627.759 650.561 628.69 647.148 629.207 645.7C627.449 646.476 623.518 645.338 625.122 648.648C623.415 646.838 624.449 640.425 626.466 637.735L624.553 638.925C624.811 636.96 625.277 637.011 627.19 635.822C626.094 635.899 625.001 635.624 624.071 635.039C623.142 634.453 622.422 633.586 622.019 632.564C622.484 632.564 622.329 633.081 622.743 633.184C624.553 632.46 625.018 630.96 623.829 630.288C622.691 626.771 620.622 630.288 618.657 630.288L617.105 632.615L617.467 646.734C615.347 650.303 612.296 649.63 609.037 650.355L610.279 653.096C607.434 655.061 604.331 656.509 603.659 652.32C604.383 652.94 604.59 652.32 605.262 652.32C605.194 651.996 605.194 651.661 605.262 651.337V650.82C603.09 653.871 601.694 655.992 601.59 655.992C603.71 648.803 598.435 651.854 596.005 647.303L592.281 652.475C596.211 651.285 593.884 654.337 593.315 655.733C591.195 653.768 589.436 658.991 587.523 660.129L587.264 659.56C584.636 660.568 582.393 662.377 580.851 664.732C581.609 667.872 582.076 671.074 582.248 674.3C586.437 672.49 585.04 674.972 586.385 676.162C585.92 676.162 585.247 676.782 585.402 677.144C585.558 677.506 586.747 677.455 587.419 678.127C590.367 674.196 594.039 670.938 593.005 666.594C590.781 666.128 592.177 669.49 590.109 669.542C590.367 666.025 592.953 664.37 596.005 662.094L598.487 663.129L600.711 659.612C600.245 661.629 602.624 662.922 599.728 665.973C601.538 667.37 602.573 662.922 604.9 661.888L603.814 658.629C604.59 660.284 608.986 657.078 607.589 661.37L604.383 667.421L607.124 667.99L603.4 671.869V669.542C598.228 676.731 597.556 666.387 593.057 674.714C593.057 679.368 591.195 681.489 586.385 683.971C588.919 680.971 585.092 681.592 584.885 678.799C580.8 679.885 581.679 683.195 580.955 685.626C578.938 684.643 577.386 683.712 580.334 681.851C578.11 678.179 577.128 685.212 574.283 681.851C565.026 688.574 574.904 698.762 560.578 702.072L560.009 700.314C553.958 706.985 548.528 707.813 542.477 713.347H538.65L534.771 713.036C535.65 711.795 537.098 706.882 534.461 705.951C539.632 708.227 541.287 705.124 545.373 705.434C545.011 704.244 543.459 704.244 542.58 703.934C544.235 702.951 546.2 703.934 547.752 702.072C547.131 701.348 544.132 702.072 545.683 700.314L550.183 700.728C553.441 697.056 548.528 693.953 553.803 691.936C554.668 694.75 554.409 697.79 553.079 700.417C555.561 699.486 551.01 703.52 553.803 703.52C554.941 698.348 558.044 699.9 560.733 695.142C560.733 695.918 560.733 696.59 559.957 697.469L566.732 694.677C564.043 693.901 570.197 689.505 567.767 687.126C560.837 690.332 563.733 690.694 555.665 694.056C557.398 691.112 558.039 687.651 557.475 684.281C557.555 684.322 557.644 684.343 557.733 684.343C557.823 684.343 557.912 684.322 557.992 684.281C557.216 680.92 555.665 680.971 552.51 676.368C551.631 681.799 547.752 680.609 545.269 685.005C546.252 688.005 549.665 686.815 551.01 685.005L548.838 688.936V687.333L539.736 691.936C541.287 690.746 540.874 688.936 540.977 687.281C539.614 687.819 538.144 688.032 536.684 687.902C538.495 690.177 539.425 691.987 538.339 692.66C536.239 693.923 533.869 694.671 531.424 694.841C528.979 695.012 526.528 694.601 524.272 693.642L523.755 694.211C526.237 696.228 522.514 701.089 522.255 704.555C520.807 701.865 518.428 704.555 515.997 704.193C516.61 706.1 517.631 707.851 518.988 709.325C520.346 710.799 522.007 711.959 523.858 712.726C526.186 707.554 524.427 708.64 523.858 703.624L528.461 697.469V700.676C532.185 699.9 533.064 694.883 534.771 698.142C534.46 701.245 531.099 701.71 530.737 704.71H533.426C531.719 709.882 529.806 702.848 526.703 707.554C529.909 709.313 526.444 707.968 525.617 710.864C528.203 711.847 532.909 705.692 534.305 710.864C533.168 714.226 523.445 709.985 522.979 716.036V715.415C518.169 717.381 517.807 720.949 517.239 723.587C514.497 723.173 512.843 726.638 510.774 727.931L509.429 726.431L506.688 728.552C506.688 725.345 510.257 726.845 512.687 725.138L511.032 722.759C515.687 724.259 515.17 718.57 516.204 715.157C514.187 719.294 506.533 719.501 508.343 724.88L504.878 723.38L504.361 724.828C501.827 723.69 501.878 719.656 504.361 717.743C505.188 718.156 505.602 718.312 505.757 718.932C506.533 717.07 506.792 714.484 510.412 713.347L509.326 715.622C513.567 713.605 516.67 710.45 516.67 707.192C510.559 709.524 504.599 712.236 498.827 715.312C499.43 720.927 500.345 726.504 501.568 732.017C498.211 735.552 493.613 737.647 488.742 737.861V736.62C487.022 736.808 485.444 737.662 484.346 738.999C481.915 738.378 484.346 735.585 482.691 735.327L477.519 739.723C476.795 737.085 481.553 734.913 483.777 733.723C483.415 734.137 482.743 734.965 483.157 735.171C486.311 735.171 489.208 728.603 492.052 731.655C493.035 730.413 490.707 735.482 495.103 733.62C498.62 733.62 498 729.845 497.741 728.448C497.482 727.052 492.569 728.81 493.138 726.328C491.069 727.672 490.966 729.845 487.501 729.793C489.673 728.603 491.276 724.621 493.448 725.914C496.5 721.156 492.621 715.002 490.501 715.57C491.949 717.329 484.036 721.983 490.811 721.828C489.621 725.759 484.863 727.776 482.226 730.982V730.413L478.295 732.948C478.554 731.913 479.536 730.724 478.968 729.327L474.83 735.689C477.002 731.706 472.037 734.809 470.072 734.344C470.072 736.826 468.676 739.516 471.417 739.516C474.158 739.516 472.348 737.706 474.52 736.568L473.227 741.946H472.813L471.986 745.567C467.383 747.118 471.262 738.275 466.814 743.239L469.089 746.808C462.108 748.773 452.074 747.842 447.885 751.152C448.26 749.704 448.21 748.178 447.742 746.757C447.275 745.336 446.409 744.079 445.248 743.136C448.415 742.773 451.466 741.733 454.195 740.085C455.022 740.55 452.333 746.084 449.023 746.394C452.85 752.238 455.488 739.567 458.229 745.877C467.124 745.049 461.797 737.447 470.02 738.585C468.934 735.74 471.365 736.413 470.641 733.775C466.814 730 461.797 737.395 456.832 737.447C457.143 737.085 457.867 736.309 457.815 735.689C456.593 735.742 455.4 736.072 454.325 736.655C453.25 737.237 452.321 738.056 451.609 739.05H452.023C449.23 743.291 448.92 737.757 446.23 737.344C445.506 738.068 442.093 738.223 443.334 740.188L438.162 738.74L439.455 741.895C437.18 742.826 435.99 740.86 434.283 743.498L435.111 746.498L441.214 745.618C438.576 747.532 441.214 748.722 438.266 750.376C440.852 745.98 435.163 749.549 433.973 746.963L432.06 749.342L432.473 748.359C430.146 747.429 430.56 750.17 428.284 750.48C431.336 751.307 433.456 752.859 436.3 749.704C434.242 752.155 431.796 754.251 429.06 755.91C426.836 757.979 424.354 755.91 421.871 756.427C426.112 753.997 417.837 747.946 427.508 747.48C427.508 748.101 426.733 748.204 426.319 747.997C428.646 751.359 431.491 746.032 433.146 743.963C431.956 741.946 433.818 740.809 430.043 740.705C431.594 741.688 428.646 746.446 424.871 745.877L424.095 741.067L419.234 741.791L419.596 741.429C417.01 738.895 414.424 743.291 410.907 742.412C408.994 744.636 399.581 745.618 404.598 749.601C400.977 747.429 399.426 751.514 395.961 752.859L400.512 753.997C396.271 758.341 397.254 755.859 394.357 762.013C393.685 760.823 392.599 759.892 393.168 758.393C389.806 758.91 385.669 759.272 381.997 760.099C378.711 760.296 375.607 761.674 373.257 763.978C368.395 764.392 367.051 758.806 360.638 761.858C359.293 762.685 362.137 766.305 357.586 765.271C357.224 764.961 361.517 761.444 356.604 762.116C353.345 766.047 348.225 760.565 343.778 764.03C341.295 762.84 337.106 763.564 337.933 760.565C341.761 761.03 347.139 760.099 347.863 758.651C347.45 760.461 350.656 760.255 347.863 761.754C353.759 763.668 351.484 759.737 356.759 760.927C356.759 759.737 353.811 757.875 352.828 758.962C352.518 755.031 362.706 756.272 358 751.876C352.828 751.876 351.535 760.306 346.519 756.376C348.277 753.841 351.38 755.703 353.449 751.204L349.518 749.808L346.881 752.859V752.29C339.95 748.928 340.83 756.789 334.675 759.065C338.347 761.754 333.951 766.099 336.744 767.702C332.503 768.322 329.348 767.702 329.348 763.616C337.106 760.41 329.762 759.479 336.847 755.393C335.658 753.945 338.347 749.446 334.21 749.084C329.504 751.928 335.658 752.445 330.952 753.738C330.778 753.565 330.649 753.352 330.577 753.117C330.505 752.883 330.492 752.634 330.538 752.393C328.366 754.462 328.004 751.618 325.366 753.893L326.038 753.117C322.832 750.635 322.418 755.807 319.677 753.117C320.711 756.117 317.712 755.548 315.902 757.358C318.695 758.548 320.194 762.84 325.935 762.53C326.659 760.203 326.245 758.858 328.573 757.772H324.901C325.676 757.358 326.297 756.789 327.021 756.324L330.538 757.565C326.09 759.22 328.107 761.754 326.194 764.185C322.004 763.099 322.728 764.806 320.091 764.185C320.453 760.668 312.282 758.341 307.782 755.496C308.506 755.496 309.437 755.496 309.903 755.807C313.419 753.945 307.782 752.755 307.73 751.773L305.144 753.324C305.61 753.324 306.334 752.342 305.144 751.773C301.783 752.135 301.679 755.6 298.266 755.962C298.266 753.997 301.266 751.359 299.3 750.221C298.732 748.463 296.973 743.86 292.474 745.049C292.099 745.43 291.646 745.725 291.146 745.912C290.645 746.1 290.11 746.176 289.577 746.136C289.749 746.165 289.923 746.165 290.095 746.136L287.509 743.601C290.302 740.809 292.215 745.877 295.06 742.774L295.577 739.723C296.677 739.733 297.767 739.518 298.781 739.091C299.795 738.664 300.711 738.034 301.473 737.24C298.68 736.516 298.007 737.24 294.749 737.602C294.749 735.637 296.921 734.396 297.232 734.189L296.611 735.896C300.128 738.792 302.507 733.465 306.955 734.396C307.627 734.396 306.955 734.809 306.955 735.378C310.885 732.741 314.402 737.137 318.229 733.154L316.936 734.758C319.522 733.465 324.435 730.465 329.193 727.621V726.431C328.676 725.655 330.434 725.759 331.417 726.431C333.744 725.035 335.968 723.535 337.778 722.397C337.211 721.7 336.429 721.209 335.554 721.001C334.83 722.552 330.383 721.001 331.158 724.518C329.141 722.552 325.987 725.242 324.487 724.052C327.124 726.121 322.573 727.052 322.056 728.81C321.177 726.741 318.022 728.81 318.436 726.173C317.919 725.449 319.729 727.983 320.918 726.173C323.815 723.69 315.747 723.897 319.419 721.518C314.919 723.535 309.075 722.087 304.42 724.207L306.903 725.552C304.886 724.983 299.973 725.19 299.766 723.845C301.317 723.845 303.076 723.845 304.938 723.432C305.3 720.38 300.335 723.07 300.283 721.156L294.077 725.759L296.559 726.121C294.801 727.983 289.836 724.983 286.216 723.897C288.957 719.966 291.905 724.931 296.146 723.483C299.249 722.139 294.853 719.294 297.645 718.311C297.437 718.07 297.179 717.877 296.889 717.745C296.599 717.612 296.283 717.544 295.965 717.544C295.646 717.544 295.331 717.612 295.041 717.745C294.751 717.877 294.493 718.07 294.284 718.311L293.353 717.381C296.197 713.916 301.473 715.157 305.248 712.209C304.934 712.586 304.674 713.003 304.472 713.45C305.655 714.233 306.998 714.741 308.403 714.938C309.808 715.135 311.239 715.015 312.592 714.588C311.247 713.243 310.678 714.019 309.851 714.588C309.851 713.657 312.333 713.45 313.316 712.467C310.937 711.174 313.006 710.192 311.506 709.416C313.04 708.845 314.729 708.845 316.264 709.416C317.246 710.864 315.385 711.381 315.488 713.295C317.557 712.157 318.332 716.708 321.332 714.588C317.453 713.709 322.522 710.45 323.815 709.416H323.194C324.435 707.192 325.47 707.14 326.297 709.416C324.694 710.295 323.194 709.416 323.608 711.899C324.759 711.877 325.891 711.594 326.918 711.071L325.832 712.674L331.003 712.312C332.166 709.833 333.1 707.254 333.796 704.606C335.037 706.313 336.744 704.606 337.882 703.934L337.365 704.813C339.692 706.365 344.657 704.813 344.967 702.9C346.777 704.348 333.951 714.795 345.588 712.467C350.035 712.467 347.915 706.727 350.294 704.606C350.188 704.907 350.188 705.236 350.294 705.537C352.259 705.848 352.259 703.779 353.707 702.641C352.518 701.969 350.863 701.969 350.397 702.641C350.759 700.314 354.328 702.641 355.569 700.469C354.069 704.296 359.345 701.4 358.103 703.417C362.137 705.279 365.861 701.917 367.413 699.021C370.619 703.262 371.757 697.883 376.153 699.021C375.532 699.021 374.498 699.9 373.515 699.59C371.653 702.9 378.066 700.262 374.86 703.572C375.532 702.951 374.86 702.02 373.929 702.641C372.998 703.262 371.447 704.761 372.015 705.951L375.843 707.865L374.756 708.744L380.652 711.226C380.652 710.657 380.032 710.037 379.721 709.726C385.995 709.229 392.181 707.943 398.133 705.899C397.15 697.624 410.235 699.435 412.924 693.125C412.436 695.9 412.892 698.758 414.217 701.245C413.338 701.917 412.355 705.744 409.976 705.589C409.252 704.399 406.201 703.624 407.545 701.762C401.805 704.193 409.252 705.02 408.321 708.382C414.889 706.054 417.268 699.848 420.785 696.849L421.199 697.728L423.681 694.987C420.992 695.297 419.699 690.849 423.681 691.367L423.371 691.729C425.802 692.97 428.905 689.66 431.801 688.781L432.784 685.522C435.68 684.747 437.542 689.35 439.559 691.78C444.162 690.384 445.299 685.626 447.471 682.161C449.695 683.557 456.419 681.075 453.988 685.057C457.246 681.54 451.661 671.3 460.97 674.196L460.091 676.834C466.452 673.783 473.33 665.146 477.261 665.766C478.399 673.679 488.69 668.559 493.345 674.196C492.259 672.903 494.328 671.042 494.224 670.111C495.155 670.524 496.448 670.783 496.603 668.921C493.448 668.921 494.535 661.319 491.431 666.542C491.431 660.801 492.259 655.681 497.431 653.044L498.931 655.681L494.431 657.181C495.983 658.94 493.862 659.974 493.5 661.37C501.878 658.526 496.138 668.145 503.844 663.387C503.585 661.215 503.533 662.25 505.085 660.388C504.206 661.008 505.085 662.974 506.688 662.043V659.043C511.86 661.732 503.999 664.68 508.136 666.335C506.378 670.111 501.672 674.3 504.671 677.144C510.412 675.386 505.499 668.301 511.498 666.801L512.894 667.887C514.084 665.766 512.894 663.284 512.894 661.267C513.188 661.683 513.624 661.977 514.12 662.091C514.616 662.206 515.138 662.133 515.584 661.888C516.765 657.776 517.698 653.596 518.376 649.372C512.894 656.716 510.567 650.768 504.671 657.957C505.188 656.095 509.843 651.958 507.929 648.182L509.533 650.82C510.102 649.291 510.985 647.899 512.125 646.732C513.266 645.565 514.637 644.65 516.152 644.045L515.273 646.683C518.118 642.442 524.479 646.114 524.686 639.752C523.632 640.14 522.751 640.892 522.203 641.873C523.651 639.455 525.903 637.625 528.565 636.701L530.116 629.409C530.944 630.65 533.84 628.737 533.892 631.684C538.494 631.271 537.202 626.513 538.546 624.392C543.718 624.392 536.684 627.702 538.908 631.322C541.307 630.368 543.456 628.88 545.195 626.971C546.933 625.063 548.214 622.784 548.941 620.307C547.649 620.307 546.925 620.307 546.459 619.789C547.235 620.462 548.838 618.91 549.872 618.186L549.304 616.066C551.734 616.066 552.251 616.893 551.838 619.22C553.648 618.29 553.027 613.738 556.441 614.669C555.354 618.755 550.648 619.841 550.131 622.065C554.579 616.221 559.544 622.065 565.026 614.462C565.75 615.135 565.75 617.566 567.094 616.428C569.784 613.221 565.284 612.601 564.819 610.118C563.216 613.066 561.302 613.066 558.302 612.239L557.889 610.48C558.561 611.049 560.061 609.808 561.043 610.118L559.285 607.222C561.457 610.222 565.698 610.325 566.681 607.687C563.06 607.274 563.629 606.963 560.423 604.171C560.423 598.999 566.008 604.74 566.06 598.999C566.629 600.085 564.715 603.033 567.456 601.74C569.37 600.24 567.456 598.327 567.818 596.568C568.491 600.033 570.353 601.43 571.284 605.515C569.725 606.867 568.459 608.521 567.56 610.377L572.008 610.015C569.525 612.756 572.008 614.359 572.783 615.187C579.713 613.48 573.3 608.567 576.869 606.446C576.869 603.602 573.766 608.67 574.593 604.998C577.697 602.774 573.921 602.929 576.145 599.102L576.559 600.602C578.731 601.119 578.214 598.585 579.093 597.344C579.972 596.103 570.611 590.724 575.369 586.173C575.57 586.737 575.868 587.262 576.248 587.724L582.506 599.361L588.609 611.049C591.195 608.67 594.143 606.291 597.297 603.86C600.622 601.204 604.093 598.735 607.693 596.465C612.606 598.689 606.348 603.55 608.313 604.791L604.9 606.705C603.555 604.998 610.072 600.706 604.9 600.395C601.28 606.188 597.453 606.446 595.694 613.842C600.556 616.221 601.331 607.687 606.865 607.532C605.545 608.496 604.596 609.883 604.176 611.463L614.519 604.222V602.671C613.026 603.727 611.472 604.694 609.865 605.567C610.594 605.034 611.206 604.357 611.664 603.579C612.122 602.8 612.415 601.936 612.527 601.04C612.638 600.144 612.565 599.234 612.312 598.367C612.059 597.501 611.631 596.695 611.054 595.999L610.434 596.413V594.603L613.33 593.207ZM748.313 381.423C748.581 381.809 748.935 382.127 749.347 382.354C748.882 382.043 748.468 382.095 748.313 381.423V381.423ZM563.319 653.302C567.818 650.458 572.835 648.131 577.076 645.183C565.233 645.183 556.906 644.717 568.904 635.563L569.318 634.529C566.607 635.689 564.201 637.459 562.285 639.701C561.596 645.31 561.302 650.961 561.405 656.612C563.371 657.647 563.112 655.061 564.871 654.492L563.319 653.302ZM552.975 645.907C550.131 647.045 551.631 647.924 552.148 649.372L554.268 647.045C553.974 646.995 553.7 646.861 553.48 646.659C553.26 646.457 553.103 646.196 553.027 645.907H552.975ZM552.975 650.406C553.244 650.316 553.535 650.316 553.803 650.406H552.975ZM598.694 614.928L600.504 613.738C599.849 613.94 599.284 614.36 598.901 614.928H598.694ZM591.815 616.324L593.057 618.755L594.763 617.669C594.072 616.949 593.163 616.477 592.177 616.324H591.815ZM571.646 622.324C572.783 625.53 569.784 628.219 571.904 631.219C572.318 632.15 573.197 631.891 574.128 631.219L576.972 629.254C576.793 628.918 576.688 628.548 576.662 628.168C575.473 628.581 574.283 628.168 573.197 626.358C578.679 628.168 573.197 621.91 576.352 620.772C575.524 617.824 571.956 620.927 571.852 622.324H571.646ZM514.756 687.229C509.584 682.781 504.413 679.006 495.569 685.367L496.086 684.54C489.466 683.506 489.208 694.159 481.243 693.125C482.908 690.092 483.679 686.649 483.467 683.195L481.295 686.35C480.571 682.781 478.399 685.936 476.123 686.919V682.161C477.985 682.575 481.605 681.23 481.295 680.402C480.778 681.23 488.277 682.833 490.604 680.402C488.949 678.023 483.467 682.109 483.984 676.627C482.536 679.523 480.933 677.144 478.812 679.316C480.26 676.368 477.623 675.541 478.399 672.8L474.882 675.696C474.365 674.869 479.692 670.835 474.882 669.387C473.951 671.507 468.934 671.972 470.176 674.558L469.71 673.783C466.452 674.61 470.331 678.437 465.831 678.541C466.452 679.937 467.641 680.609 468.831 679.678C470.02 678.747 468.831 676.524 470.951 674.972C473.072 676.627 468.107 676.11 471.468 678.954C473.123 680.402 476.64 674.3 477.106 679.265L473.796 680.196C475.089 682.988 472.813 683.971 473.796 686.143C472.451 688.16 469.141 685.833 468.624 689.091C468.624 691.263 471.624 694.263 467.693 694.263C463.245 691.211 456.212 695.349 453.678 697.159L451.919 699.952C452.902 701.658 456.625 697.831 455.953 700.728L452.333 702.951V701.762C450.937 701.762 450.057 703.675 449.126 704.761C449.54 702.227 452.695 701.969 450.937 699.228C448.868 699.228 448.144 698.349 446.696 699.538C446.831 699.379 446.905 699.178 446.905 698.969C446.905 698.761 446.831 698.559 446.696 698.4C442.558 698.4 444.472 703.107 443.903 704.451C441.576 709.623 449.075 706.623 449.799 709.623L439.455 715.519C440.076 714.174 440.696 712.829 439.869 711.743C436.662 711.33 438.99 709.519 435.214 710.968C436.921 715.002 431.18 715.105 429.215 718.415C427.353 717.122 426.991 716.812 429.784 715.881C428.595 713.295 425.181 715.519 423.785 715.881C423.216 716.76 421.975 717.587 421.354 718.467C422.854 719.449 422.906 721.311 420.785 723.276V723.897C425.026 723.38 432.318 724.311 433.973 720.691L433.663 722.294C439.3 723.173 442.145 714.019 446.075 718.208C446.644 720.277 447.213 718.208 448.196 721.208L450.781 717.639V719.242L456.315 716.346V716.967C458.022 713.295 459.315 710.399 460.246 707.916C459.729 706.675 459.418 706.365 459.884 705.072C460.069 704.694 460.337 704.362 460.669 704.103C461 703.843 461.386 703.662 461.797 703.572V703.572C463.349 703.572 465.004 704.658 466.969 704.658L461.797 707.244C461.938 708.515 462.544 709.688 463.499 710.538C464.454 711.388 465.69 711.855 466.969 711.847C465.935 712.416 466.193 714.226 467.59 713.864C467.59 713.295 470.486 711.019 468.521 709.882C473.123 706.934 484.036 708.795 489.208 700.934C485.018 706.106 494.897 701.503 489.208 705.382C495 706.468 491.173 700.21 495.621 698.711C496.603 699.641 493.242 699.693 493.448 702.486C501.31 700.262 502.499 691.108 509.533 688.315L511.239 690.591L514.756 687.229ZM525.669 676.368L528.875 673.162H528.461L530.892 668.921C527.996 669.438 524.893 667.732 527.168 664.525C527.582 665.663 529.237 666.284 528.565 667.576C531.616 667.576 537.098 666.025 533.478 663.232C531.771 669.283 529.547 659.302 528.306 663.853C528.306 660.439 530.789 660.439 531.616 658.319C531.306 661.37 534.978 662.456 538.029 661.681C538.701 660.336 541.96 658.888 543.201 656.509C541.08 654.802 541.701 652.527 538.494 653.975C538.891 653.091 539.528 652.336 540.333 651.797C541.137 651.257 542.077 650.955 543.046 650.923C542.58 651.803 541.494 652.94 542.115 653.664C544.701 654.802 546.045 653.664 547.287 654.078L548.838 652.475C548.487 652.374 548.155 652.217 547.855 652.009L548.528 648.751C546.562 651.596 546.562 648.751 545.683 647.355C547.442 649.889 547.649 646.476 548.476 645.752L544.597 644.51C544.597 642.597 549.252 643.942 546.873 641.769C543.201 643.171 539.982 645.55 537.564 648.648L540.563 649.682C537.305 654.13 535.391 647.975 530.789 651.389C530.168 654.699 523.703 656.561 526.082 660.284C526.082 658.733 520.91 658.784 520.238 661.577C520.704 666.335 515.066 670.421 518.014 670.99C519.618 670.059 520.445 666.749 523.186 668.301L520.652 670.938L523.858 671.662C522.462 671.972 523.755 673.783 526.031 676.368H525.669Z" fill="#52000E"/>
<path d="M384.947 609.549C382.568 612.911 378.017 608.618 375.328 609.084L376.776 610.997L373.673 609.911L374.449 613.014C373.237 612.958 372.026 613.133 370.88 613.531L367.415 614.255C366.441 614.557 365.392 614.51 364.449 614.123C363.505 613.736 362.726 613.033 362.243 612.135L363.743 617.048L358.209 613.893L361.571 616.841C356.399 618.807 347.452 616.324 346.056 616.531L346.78 618.341C346.004 619.479 345.177 618.341 344.194 617.876L345.228 620.617C336.902 620.617 334.885 627.03 325.472 624.754C322.938 625.633 326.92 625.582 327.075 627.185C325.731 629.512 322.317 627.599 321.593 626.409C322.472 630.805 326.455 629.15 323.559 632.926C321.231 630.909 325.214 636.908 321.283 636.339L319.576 630.753C317.508 631.839 319.266 635.408 315.853 634.787C311.974 632.201 320.455 628.426 314.301 627.443C311.301 627.754 307.629 640.528 301.475 637.321C295.993 640.166 303.958 646.269 296.303 644.614L301.01 648.493C299.665 650.044 300.337 652.94 297.079 651.647C296.096 649.423 294.235 646.476 292.476 646.217C299.406 650.665 285.701 652.527 292.062 658.319L289.528 658.009C289.655 658.191 289.723 658.407 289.723 658.629C289.723 658.851 289.655 659.068 289.528 659.25L286.063 659.56C288.08 660.853 293.097 661.474 290.459 665.611L285.287 666.542C286.374 669.748 284.408 670.99 284.46 673.576L299.975 679.885C299.406 677.972 297.286 676.679 298.165 674.713C302.303 673.162 301.372 678.23 305.302 675.696L303.699 673.162C303.699 674.093 304.475 674.455 303.699 674.713C302.303 676.317 301.785 674.403 301.837 672.8C303.233 669.645 307.009 671.869 308.147 674.144C313.318 673.834 309.181 668.352 310.267 667.421C312.801 672.593 318.387 667.421 321.438 669.697L319.421 666.335C322.99 661.887 326.351 665.094 328.575 666.335L327.592 663.542C332.764 663.542 334.523 653.923 339.177 663.542L338.505 661.681C340.522 660.646 343.677 658.319 345.745 661.163C345.745 659.974 345.745 658.474 346.625 658.06C348.228 661.887 350.038 658.733 352.934 657.491C350.814 656.819 350.814 651.699 348.59 650.82C352.469 644.872 353.451 655.681 357.382 654.957C359.295 652.009 354.899 652.526 354.072 650.716C360.537 652.423 364.105 637.115 369.587 646.476L367.674 650.096C370.415 651.854 371.708 651.596 371.242 650.716C370.57 651.13 370.104 650.251 369.639 649.372C372.69 646.217 375.793 647.562 379.103 649.372C382.413 651.182 385.723 652.682 389.085 650.716C388.102 649.01 386.913 648.699 386.499 647.148C389.188 644.355 392.136 655.785 396.48 650.561L394.825 648.699C396.222 646.941 398.394 649.682 398.342 650.354C396.015 641.924 409.927 647.924 409.824 635.77C413.754 639.339 422.236 640.114 423.529 636.856C424.77 630.909 418.771 632.563 418.357 627.65C420.684 626.719 423.529 630.702 426.632 627.65C428.545 632.046 422.96 639.39 430.924 639.339V636.597C430.304 637.166 429.683 638.408 428.442 638.201C425.391 636.339 428.442 634.787 428.442 633.443L436.355 632.046C438.941 636.494 433.976 637.218 434.027 638.408C439.716 635.46 443.181 625.116 449.853 625.788L448.56 624.289C457.145 625.013 448.25 613.945 457.145 619.117C459.317 616.634 453.68 614.773 457.611 612.445C458.8 611.876 459.007 613.945 459.11 614.566C465.058 613.687 459.11 609.394 465.834 610.894L462.214 606.756C469.247 606.756 479.798 611.928 483.314 606.756C480.832 603.395 478.143 605.412 475.402 603.343C485.745 606.084 490.917 595.534 498.571 594.758C498.933 598.895 505.967 599.93 504.001 604.636C500.019 600.861 500.329 604.946 498.054 605.825C507.88 613.325 507.88 592.017 514.759 599.619L513.104 595.689C514.345 595.689 518.275 596.568 517.707 598.688L522.361 592.12C518.172 591.189 509.328 588.552 510.57 593.155C506.174 590.827 511.345 589.069 506.742 586.018C515.017 588.759 507.518 581.932 512.587 580.225C514.345 586.328 521.844 583.794 523.395 586.121C524.016 584.156 528.567 583.949 531.153 584.621C533.894 583.07 536.325 575.002 541.497 573.502C539.855 573.61 538.21 573.361 536.674 572.771C535.139 572.182 533.749 571.267 532.601 570.089C535.859 570.089 537.773 568.589 535.239 564.917C523.499 563.934 539.842 574.381 530.533 575.26C528.968 574.119 527.13 573.413 525.204 573.213C523.278 573.014 521.334 573.327 519.568 574.123C519.051 570.709 517.655 570.244 516 567.037C526.343 572.209 525.981 560.211 534.153 560.417C538.238 561.141 541.238 567.451 546.668 564.555L544.858 570.244C547.289 564.4 548.013 571.795 552.513 569.623L548.685 568.278C548.943 567.775 549.297 567.327 549.727 566.961C550.158 566.595 550.657 566.317 551.195 566.144C551.733 565.971 552.3 565.906 552.863 565.953C553.427 566 553.976 566.157 554.478 566.417L549.047 564.089C549.72 562.538 551.323 560.107 553.495 562.383C553.049 561.362 552.417 560.433 551.633 559.642C552.513 560.107 553.392 560.004 554.581 558.659C553.392 558.659 553.081 559.693 551.995 558.659C557.839 554.884 549.099 553.487 552.513 550.798C551.168 550.332 550.961 548.419 551.582 546.919C557.426 553.125 564.304 548.16 569.321 549.97L575.992 548.367C574.648 548.729 573.872 546.247 574.441 544.437C574.803 542.264 566.269 539.627 571.803 537.455L575.579 537.093C575.01 537.093 574.441 536.007 574.13 535.334L577.802 534.765C575.01 526.129 586.957 531.611 587.681 525.094C587.112 526.646 585.095 527.99 583.853 525.508C583.853 524.112 585.56 523.594 587.06 523.853L586.129 523.439L597.041 519.509C594.249 518.216 590.266 522.198 589.491 518.268C587.577 514.647 592.645 515.216 594.093 514.078C595.697 515.682 594.921 519.25 598.179 517.75C597.662 516.768 597.869 512.579 595.697 512.889C599.874 510.818 604.365 509.455 608.988 508.855C608.988 507.51 607.126 508.079 606.557 508.338L606.92 508.907C604.592 509.734 602.213 505.493 601.437 510.148C595.49 505.7 603.558 504.304 605.006 500.942L597.507 502.132C597.161 499.278 597.687 496.387 599.016 493.839C600.346 491.291 602.416 489.206 604.954 487.858C609.593 485.24 613.84 481.985 617.573 478.186C617.832 481.807 614.677 482.324 619.539 485.53C625.279 482.427 623.779 482.272 628.227 478.238H627.658C627.038 474.101 634.226 474.049 631.123 469.446C627.71 468.67 631.123 474.618 625.693 470.998L630.451 465.36C625.952 465.05 625.693 470.998 623.314 472.756C622.383 474.566 626.417 469.963 629.313 473.17C625.021 478.6 620.728 477.462 613.798 476.635C608.988 475.6 611.833 471.463 612.557 470.532C620.521 470.946 626.882 467.532 628.382 460.189L626.52 454.448C632.158 454.448 638.726 460.292 641.26 454.448L637.278 454.034C636.864 452.121 636.967 451.19 637.278 450.621C633.507 451.424 629.689 451.994 625.848 452.328C621.762 445.501 634.485 446.328 638.519 442.915C637.588 442.605 636.398 443.898 634.485 443.329C637.071 436.14 648.966 434.278 653.207 429.934C651.759 426.21 648.656 432.882 645.191 429.313C648.449 427.762 646.69 422.693 651.035 424.141C644.777 421.969 654.448 418.09 645.863 419.849C649.328 409.247 660.292 401.748 669.239 393.99C667.59 393.701 666.072 392.905 664.895 391.714C663.817 393.742 662.208 395.439 660.241 396.623C658.273 397.807 656.02 398.435 653.724 398.438C652.069 394.766 660.499 395.593 658.896 394.042C656.879 394.352 655.689 396.524 652.845 394.973C651.241 390.525 656.672 391.456 658.327 389.801L659.154 391.663C666.55 387.732 671.049 393.628 673.221 386.491C671.049 382.25 670.377 385.043 666.084 382.767C668.567 382.147 666.498 374.699 671.929 375.475L670.222 379.613C672.911 377.492 674.256 374.803 676.79 373.665C675.756 373.355 674.721 373.044 674.049 373.665C676.583 372.165 677.721 369.114 681.238 369.424L676.893 366.476C678.29 368.855 676.531 372.993 673.584 372.32C669.756 369.89 674.411 367.149 674.98 365.287C669.808 372.372 662.413 368.752 661.999 376.768L663.964 376.406C665.412 382.302 657.189 383.284 655.327 386.75C655.152 386.077 654.776 385.475 654.249 385.022C653.723 384.569 653.07 384.288 652.379 384.215C651.5 393.731 644.415 399.731 641.467 409.557H635.519L638.778 411.729C637.588 416.901 633.606 409.816 632.106 412.66C632.727 411.626 633.192 412.143 634.123 412.66C627.245 415.091 635.519 417.108 632.727 419.177C637.071 420.056 637.381 414.781 641.312 418.814C634.382 421.297 631.589 429.986 623.211 425.693C621.521 431.119 618.436 436.006 614.263 439.864C610.023 443.794 605.42 447.207 602.523 450.517C603.144 452.431 603.972 450.517 604.799 451.759C598.334 451.448 600.972 463.343 596.99 460.551C596.99 462.671 599.524 465.36 600.3 466.498C597.36 467.006 594.61 468.292 592.335 470.222L594.714 469.394L595.076 469.963L591.715 471.153V470.842C586.129 475.445 581.836 482.479 573.769 484.082C578.527 483.255 577.699 488.478 580.285 488.323C572.217 485.996 567.356 491.943 563.528 496.856C564.77 497.891 565.442 499.08 566.89 499.391L562.029 500.011L563.839 500.89C560.374 506.631 549.254 506.062 549.047 511.596C551.53 510.303 552.719 511.596 554.788 512.941C551.502 516.72 547.35 519.648 542.686 521.474C543.246 521.594 543.764 521.862 544.186 522.25C543.617 523.698 541.031 523.543 539.325 523.905L541.91 526.749C538.6 527.37 537.359 531.249 532.808 531.352C534.773 535.283 524.275 533.99 522.775 537.869C521.017 537.869 527.947 539.006 524.895 541.54C518.844 535.748 520.603 544.747 514.552 538.231L513.983 542.885L510.466 539.989C513.621 548.264 504.519 539.989 502.812 544.85C503.639 545.419 504.208 545.368 504.415 545.988C502.708 545.988 499.812 547.798 500.329 544.437C498.571 545.936 491.124 549.608 496.813 550.798C495.003 548.988 498.933 548.626 500.588 548.419C502.864 551.522 499.192 552.608 501.105 556.435C500.517 556.142 499.913 555.883 499.295 555.659L500.381 557.883C494.175 557.159 492.21 562.124 486.366 559.59C486.523 559.838 486.622 560.117 486.657 560.409C486.691 560.7 486.661 560.995 486.566 561.273C486.472 561.551 486.317 561.804 486.112 562.014C485.907 562.224 485.658 562.385 485.383 562.486L482.539 558.659L478.763 561.4L484.607 565.848C481.142 569.933 473.643 565.537 469.609 566.934C473.023 574.174 460.921 568.434 461.593 576.295H465.575C458.748 578.622 460.403 583.38 453.163 584.363C456.728 580.504 459.41 575.916 461.024 570.916C455.852 577.743 446.957 574.174 442.716 581.26C444.061 582.708 446.336 583.018 445.612 585.5C442.354 582.501 439.406 588.655 438.165 583.897C436.872 586.328 438.527 590.465 437.492 591.707L428.028 589.69L428.649 590.465C428.122 592.25 427.209 593.898 425.976 595.292C424.743 596.686 423.219 597.792 421.512 598.533C418.381 599.385 415.122 599.665 411.892 599.361C405.169 598.895 398.601 598.016 393.222 602.102L394.257 604.481L390.016 601.74C393.17 603.498 390.016 605.05 390.326 607.274L380.862 604.067C381.431 606.291 383.241 611.049 384.947 609.549ZM485.849 563.52L487.71 562.641C487.751 562.526 487.814 562.419 487.896 562.328C487.978 562.237 488.076 562.163 488.187 562.11C488.297 562.057 488.417 562.027 488.54 562.02C488.662 562.014 488.784 562.031 488.9 562.072L487.71 562.641C487.245 563.779 487.762 566.106 485.849 563.52ZM623.211 431.64C625.693 432.003 623.211 433.192 622.9 433.968L625.279 431.434C624.193 430.348 623.521 431.64 623.211 431.64ZM504.26 588.552L505.139 591.862L502.398 590.724L504.26 588.552ZM478.401 605.722H482.073V606.394H478.401V605.722ZM480.935 573.709C482.125 573.709 482.642 573.709 483.056 572.933C481.556 571.64 478.349 570.451 479.125 569.054C481.194 570.347 484.297 569.054 486.159 571.485C481.452 570.295 484.814 578.881 480.573 573.709H480.935ZM536.325 532.335L536.015 533.11H539.79L536.325 532.335ZM547.91 525.973C551.892 527.784 554.426 524.784 556.857 523.336C556.375 522.631 555.752 522.033 555.029 521.579C554.305 521.126 553.495 520.827 552.651 520.7C551.806 520.574 550.944 520.624 550.12 520.846C549.295 521.068 548.525 521.458 547.858 521.991C542.583 522.353 550.444 526.801 547.548 526.025L547.91 525.973ZM465.161 590.62L467.282 592.689L466.868 593.362H470.385C468.989 598.533 462.886 593.827 460.559 593.724C461.645 593.258 469.299 596.827 464.644 590.672L465.161 590.62ZM568.597 507.872C572.32 507.562 578.061 505.959 579.975 508.183C578.793 506.909 577.218 506.069 575.502 505.797C573.786 505.525 572.028 505.837 570.51 506.683C569.579 507.355 568.959 507.51 567.873 507.821L568.597 507.872ZM576.199 514.751C571.596 516.095 569.476 514.751 563.632 513.354C564.563 508.958 570.562 512.837 572.424 515.113C576.199 514.802 573.2 512.837 573.717 511.337L576.199 514.751ZM561.149 507.562L560.58 509.217C560.994 512.113 565.287 516.613 558.926 514.389L560.58 509.217C560.498 508.916 560.508 508.597 560.609 508.302C560.711 508.006 560.899 507.749 561.149 507.562V507.562ZM583.078 482.996H580.595C581.733 481.91 582.509 482.272 583.078 482.996H585.198C584.577 486.875 584.215 484.341 583.129 482.996H583.078ZM567.562 503.011L563.994 506.062C566.321 507.562 567.355 504.511 567.821 503.011H567.562ZM586.026 486.823C585.016 488.64 583.857 490.37 582.56 491.995C580.854 490.03 584.267 486.771 586.284 486.823H586.026ZM652.328 406.299L650.621 408.73L647.932 405.523L652.328 406.299ZM636.14 437.329L634.899 435.674L636.088 434.382L636.14 437.329ZM618.039 464.067C617.334 463.426 616.507 462.934 615.608 462.619C614.956 462.852 614.243 462.852 613.591 462.619C613.591 462.257 614.729 462.309 615.608 462.619C616.315 462.33 616.891 461.791 617.225 461.104C617.559 460.416 617.628 459.63 617.418 458.896C615.505 458.223 614.625 460.033 613.126 459.93C611.109 454.758 626.365 457.396 614.367 451.5C616.384 451.5 621.762 449.897 622.797 452.379C619.734 455.497 618.024 459.697 618.039 464.067C618.504 464.585 618.815 465.154 618.556 465.671C618.239 465.194 618.06 464.639 618.039 464.067V464.067ZM593.163 500.27C592.565 500.803 591.792 501.098 590.99 501.097C590.214 501.226 589.418 501.156 588.677 500.894C587.935 500.631 587.272 500.185 586.75 499.597C589.594 498.615 589.698 500.839 590.99 501.097C591.682 500.939 592.333 500.639 592.904 500.218L593.163 500.27ZM588.818 506.734L593.318 505.235H589.801L597.869 503.89C597.352 507.976 591.611 508.545 588.56 506.683L588.818 506.734ZM589.853 509.476L586.905 508.079L590.215 509.165L589.853 509.476L590.525 509.786L587.525 511.751L584.526 513.665L587.215 511.596L589.853 509.476ZM536.118 554.366C541.29 564.141 545.893 556.073 550.34 558.866C548.117 556.021 546.151 550.126 541.342 554.78C543.048 548.212 548.789 557.418 545.065 548.471C543.565 550.85 539.221 551.108 538.652 551.16L540.721 548.677C534.567 544.954 539.169 554.522 535.859 554.315L536.118 554.366ZM509.949 577.484L506.277 579.708L510.156 578.105L509.949 577.484ZM495.675 583.121C499.864 587.569 502.45 581.311 504.467 581.88C502.502 584.621 497.744 589.69 495.416 583.07L495.675 583.121ZM502.295 575.467C503.639 574.64 503.639 573.967 505.346 576.45C506.742 577.019 506.794 575.053 508.139 575.622C507.311 579.501 504.519 575.622 502.295 575.622C501.902 575.9 501.464 576.11 501.002 576.243C501.096 576.033 501.239 575.848 501.419 575.704C501.599 575.56 501.81 575.461 502.036 575.416L502.295 575.467ZM450.577 606.498L446.698 603.446L444.009 605.153L450.577 606.498Z" fill="#52000E"/>
<path d="M423.89 204.083C418.718 200.721 422.804 207.031 420.063 207.703C420.632 205.479 417.477 203.669 415.925 202.531C420.58 209.513 412.719 203.876 411.167 208.427C409.15 206.824 410.185 204.859 408.116 202.79C408.116 206.048 406.358 209.513 409.305 213.133C406.409 216.392 403.254 217.581 401.91 219.857C402.789 216.392 399.117 216.288 397.928 212.047C399.08 219.7 399.685 227.426 399.738 235.165C397.053 233.214 394.741 230.797 392.911 228.028C386.86 229.062 394.825 232.424 390.17 234.648L392.445 233.769C391.67 236.406 394.618 240.027 396.221 242.974L400.255 238.423C402.479 240.957 399.324 243.13 399.065 244.526C400.358 248.819 403.41 244.526 405.065 247.319C403.927 244.733 406.358 243.75 406.72 241.837L408.168 242.974C411.633 242.457 409.616 237.803 411.529 236.148C411.932 236.294 412.289 236.544 412.564 236.872C411.788 234.751 410.65 232.321 411.271 230.717L410.598 231.7C409.099 227.097 410.598 221.356 405.013 220.632C405.013 220.632 406.306 219.857 407.547 218.977L410.081 217.271C413.081 220.943 417.58 226.839 415.253 229.838L416.391 231.545C420.27 231.545 418.925 223.373 414.736 221.925C408.064 212.358 420.735 214.788 419.908 208.168C422.545 209.875 421.925 212.564 422.855 214.788C422.287 216.081 421.718 216.909 419.649 215.306C417.115 220.788 427.976 220.891 422.649 225.08C419.235 226.477 421.614 218.822 418.046 222.081L422.028 230.459C423.654 228.052 424.876 225.397 425.648 222.598C427.314 217.144 430.196 212.139 434.078 207.962C435.573 206.261 437.317 204.796 439.25 203.617L440.646 201.445L444.008 195.446C447.468 189.376 450.492 183.068 453.059 176.569C454.403 172.949 455.903 169.484 456.886 166.225L459.575 156.761C460.713 151.124 461.437 147.349 461.437 147.349C461.437 140.884 462.006 138.453 453.989 135.04C452.128 136.022 452.335 139.694 449.593 138.039C450.279 138.221 450.921 138.542 451.477 138.983C452.034 139.423 452.494 139.973 452.829 140.599C453.163 141.225 453.366 141.913 453.423 142.62C453.48 143.328 453.392 144.039 453.162 144.711C450.059 144.401 452.283 141.66 451.404 142.28L451.093 142.797C449.593 142.177 448.559 141.453 448.663 140.574C447.475 141.074 446.453 141.901 445.716 142.959C444.978 144.016 444.556 145.261 444.496 146.548C444.437 147.836 444.743 149.114 445.38 150.235C446.016 151.356 446.957 152.274 448.094 152.882C444.267 154.641 443.956 149.728 441.784 147.711C437.181 155.934 435.371 161.726 431.441 170.053C436.302 172.587 434.078 172.38 436.612 175.224H434.44C435.526 175.224 438.267 178.276 440.181 177.034C433.716 180.034 443.594 186.602 443.387 191.412L441.06 189.705C439.804 191.96 439.079 194.472 438.94 197.049C431.596 198.704 440.75 192.498 433.768 190.119V191.981C431.355 189.652 429.268 187.007 427.562 184.12C428.855 190.636 422.39 189.292 422.39 195.187C421.619 193.883 421.113 192.44 420.9 190.941C420.687 189.441 420.772 187.914 421.149 186.447C420.063 187.792 420.063 191.619 417.58 189.964L420.632 192.55C419.235 195.343 417.839 190.119 415.46 189.447C412.15 195.136 425.752 197.308 423.89 204.083Z" fill="#52000E"/>
<path d="M408.79 490.237C410.445 489.358 411.117 486.772 412.979 487.134C413.548 488.582 412.979 489.616 411.686 489.771C414.065 492.564 413.237 488.323 416.134 489.461C415.772 489.202 414.841 489.047 414.996 488.116C419.702 486.41 415.927 484.186 422.495 482.945C422.805 481.652 423.633 481.238 422.495 479.273C427.098 480.048 425.495 480.928 430.615 480.979C428.689 479.277 426.955 477.369 425.443 475.29C432.838 475.808 430.615 471.722 435.786 472.342C435.476 472.705 435.424 473.635 434.287 473.842C436.872 477.101 436.769 471.463 439.045 470.998L440.648 474.153C442.096 472.601 443.854 468.981 447.371 469.653L447.837 471.463C450.836 466.292 456.68 464.378 459.576 460.809L462.783 461.327C466.403 455.741 457.042 463.602 457.922 456.724C462.007 461.896 459.37 453.259 463.662 453.517C466.455 454.759 461.49 456.569 464.593 458.017C463.404 454.862 465.627 456.258 466.61 454.448C468.058 457.241 470.075 452.69 471.109 456.207L473.23 447.828C475.092 448.708 476.436 447.363 477.316 446.173C474.471 448.139 475.454 441.777 471.472 442.863C466.531 448.496 460.377 452.934 453.474 455.845C455.18 459.93 449.647 458.275 450.578 461.844C449.698 460.758 448.612 460.034 447.733 458.948C444.32 462.154 449.905 460.396 449.75 462.309C448.354 463.861 445.613 462.309 444.94 461.068C442.044 462.568 445.251 462.258 444.94 465.102L440.596 462.206C432.787 468.877 422.598 478.342 411.22 481.755L413.393 483.927C408.221 485.013 408.79 493.909 401.653 490.547V493.547C401.653 491.892 398.757 490.082 399.015 487.651C398.239 489.202 396.378 488.944 395.498 490.495H398.446C398.032 493.598 395.498 493.185 393.947 491.581C391.878 496.081 398.395 494.943 400.308 496.753C402.635 489.254 407.807 498.77 411.427 494.219C413.134 490.857 409.41 491.685 408.79 490.237Z" fill="#52000E"/>
</g>
<path style="mix-blend-mode:multiply" d="M786.742 439.398C786.742 633.856 630.606 791.388 438.113 791.337C245.62 791.285 89.6915 633.65 89.7432 439.191C89.7949 244.733 245.672 87.2009 438.32 87.2526C630.968 87.3044 786.794 244.991 786.742 439.398Z" fill="url(#paint1_radial_141_35)"/>
<path style="mix-blend-mode:screen" d="M740.405 322.862C740.405 451.483 605.577 555.591 439.305 555.591C273.033 555.591 138.153 451.69 138.153 322.862C138.153 194.033 272.981 90.1323 439.305 90.1323C605.629 90.1323 740.405 194.395 740.405 322.862Z" fill="url(#paint2_linear_141_35)"/>
<path style="mix-blend-mode:screen" d="M694.065 247.681C694.065 332.24 579.097 400.817 437.287 400.817C295.477 400.817 180.509 332.24 180.509 247.681C180.509 163.123 295.477 94.4935 437.287 94.4935C579.097 94.4935 694.065 163.071 694.065 247.681Z" fill="url(#paint3_linear_141_35)"/>
<defs>
<linearGradient id="paint0_linear_141_35" x1="90.965" y1="438.22" x2="785.429" y2="438.22" gradientUnits="userSpaceOnUse">
<stop stop-color="#FF8F00"/>
<stop offset="0.13" stop-color="#F88800"/>
<stop offset="0.32" stop-color="#E57500"/>
<stop offset="0.54" stop-color="#C75600"/>
<stop offset="0.79" stop-color="#9C2B00"/>
<stop offset="1" stop-color="#720000"/>
</linearGradient>
<radialGradient id="paint1_radial_141_35" cx="0" cy="0" r="1" gradientUnits="userSpaceOnUse" gradientTransform="translate(441.061 440.674) scale(350.077 353.578)">
<stop stop-color="#FFC000"/>
<stop offset="0.2" stop-color="#FDBD00"/>
<stop offset="0.35" stop-color="#F7B300"/>
<stop offset="0.49" stop-color="#EDA300"/>
<stop offset="0.62" stop-color="#DE8B00"/>
<stop offset="0.75" stop-color="#CB6D00"/>
<stop offset="0.87" stop-color="#B44800"/>
<stop offset="0.98" stop-color="#9A1D00"/>
<stop offset="1" stop-color="#951600"/>
</radialGradient>
<linearGradient id="paint2_linear_141_35" x1="441.322" y1="99.0278" x2="437.081" y2="562.78" gradientUnits="userSpaceOnUse">
<stop stop-color="#A7A9AC"/>
<stop offset="0.16" stop-color="#848688"/>
<stop offset="0.45" stop-color="#4E4F50"/>
<stop offset="0.69" stop-color="#262727"/>
<stop offset="0.88" stop-color="#0E0E0E"/>
<stop offset="1" stop-color="#050505"/>
</linearGradient>
<linearGradient id="paint3_linear_141_35" x1="438.632" y1="100.389" x2="435.839" y2="405.317" gradientUnits="userSpaceOnUse">
<stop stop-color="#A7A9AC"/>
<stop offset="0.16" stop-color="#848688"/>
<stop offset="0.45" stop-color="#4E4F50"/>
<stop offset="0.69" stop-color="#262727"/>
<stop offset="0.88" stop-color="#0E0E0E"/>
<stop offset="1" stop-color="#050505"/>
</linearGradient>
</defs>
</svg>
