<svg width="80" height="118" viewBox="0 0 80 118" fill="none" xmlns="http://www.w3.org/2000/svg">
<g clip-path="url(#clip0_231_14)">
<path d="M40 0C29.395 0.0119105 19.2278 4.23001 11.7289 11.7289C4.23001 19.2278 0.0119105 29.395 0 40C0 48.863 5.218 62.342 16.422 82.42C24.067 96.12 31.677 107.691 31.998 108.178L37.498 116.515C37.7717 116.928 38.1431 117.266 38.5794 117.5C39.0156 117.734 39.5029 117.857 39.998 117.857C40.4931 117.857 40.9804 117.734 41.4166 117.5C41.8528 117.266 42.2243 116.928 42.498 116.515L47.998 108.178C48.316 107.696 55.87 96.225 63.574 82.419C74.774 62.343 79.996 48.863 79.996 39.999C79.9838 29.3949 75.7662 19.2285 68.2682 11.7299C60.7702 4.2314 50.6041 0.0129685 40 0V0ZM58.343 79.5C50.743 93.112 43.311 104.4 42.998 104.878L39.998 109.424L36.998 104.88C36.683 104.402 29.191 93.009 21.652 79.501C11.263 60.875 5.994 47.586 5.994 40C5.994 30.981 9.57676 22.3315 15.9541 15.9541C22.3315 9.57676 30.981 5.994 40 5.994C49.019 5.994 57.6685 9.57676 64.0459 15.9541C70.4232 22.3315 74.006 30.981 74.006 40C74.006 47.586 68.737 60.875 58.343 79.5Z" fill="#FFB259"/>
<path d="M39.9998 17.572C35.6134 17.572 31.3255 18.8727 27.6784 21.3097C24.0312 23.7466 21.1886 27.2104 19.51 31.2629C17.8314 35.3154 17.3922 39.7746 18.2479 44.0767C19.1037 48.3788 21.2159 52.3306 24.3176 55.4322C27.4192 58.5339 31.371 60.6461 35.6731 61.5019C39.9752 62.3576 44.4344 61.9184 48.4869 60.2398C52.5394 58.5612 56.0032 55.7186 58.4401 52.0715C60.8771 48.4243 62.1778 44.1364 62.1778 39.75C62.172 33.8698 59.8335 28.2322 55.6756 24.0742C51.5176 19.9163 45.88 17.5778 39.9998 17.572V17.572ZM39.9998 55.933C36.7989 55.933 33.6699 54.9838 31.0084 53.2055C28.347 51.4272 26.2726 48.8996 25.0477 45.9424C23.8228 42.9851 23.5023 39.7311 24.1268 36.5917C24.7512 33.4523 26.2926 30.5686 28.556 28.3052C30.8193 26.0418 33.7031 24.5005 36.8424 23.876C39.9818 23.2515 43.2359 23.572 46.1931 24.797C49.1504 26.0219 51.678 28.0962 53.4563 30.7577C55.2346 33.4191 56.1838 36.5481 56.1838 39.749C56.1795 44.04 54.4731 48.154 51.4389 51.1882C48.4048 54.2223 44.2907 55.9288 39.9998 55.933V55.933Z" fill="#FFB259"/>
</g>
<defs>
<clipPath id="clip0_231_14">
<rect width="80" height="117.861" fill="white"/>
</clipPath>
</defs>
</svg>
