<svg id="Layer_1" data-name="Layer 1" xmlns="http://www.w3.org/2000/svg" viewBox="0 0 1920 747.45"><defs><style>.cls-1{fill:#fff;}</style></defs><path class="cls-1" d="M989.44,635c1.87-7.13,3.76-14.26,5.6-21.4.81-3.14,1.46-6.32,2.31-9.45,1.31-4.78,3.17-6.1,8.21-6,4.71,0,6.64,1.53,7.79,6.26,2.09,8.55,4.1,17.11,6.17,25.67a16.76,16.76,0,0,0,1.89,4.86c.47-1.85,1-3.68,1.4-5.54,2.09-9.1,4.11-18.22,6.25-27.32.77-3.24,2.68-4.28,6.57-3.92,2.92.26,4.84,2,4.56,5.2a116.62,116.62,0,0,1-2.24,14.23c-2.5,11.78-5.16,23.52-7.83,35.27-1.32,5.84-3.41,7.58-8.58,7.49-3.57-.07-5.6-1.32-6.58-4.82-1.87-6.69-3.37-13.48-5.19-20.18-1.4-5.15-3-10.23-4.83-16.14-1.48,5.8-2.81,10.9-4.09,16-1.57,6.29-3,12.63-4.69,18.9-1.38,5.12-3.34,6.32-8.63,6.22-3.15,0-5.21-1.57-6-4.43-1.59-6-2.91-12.06-4.34-18.1-2.25-9.55-4.57-19.09-6.7-28.66a25.32,25.32,0,0,1-.37-6.63c.11-2.56,1.91-4.16,4.48-4.39,4-.37,6,.47,6.69,3.31,1.69,7.31,3.14,14.67,4.75,22,.85,3.85,1.83,7.67,2.75,11.5Z"/><path class="cls-1" d="M406.16,624.05c-2.51,10.23-5,20.46-7.54,30.68-.92,3.72-2.79,5.41-6,5.55-4.5.19-6.59-1-7.68-5.11-2.45-9.42-4.63-18.9-6.93-28.35a3.66,3.66,0,0,0-1-2c-.07.66-.19,1.32-.2,2,0,8.82,0,17.63,0,26.45,0,5.21-2,7.16-6.74,7a4.57,4.57,0,0,1-4.66-3.6,15.86,15.86,0,0,1-.46-4.13q0-22.54,0-45.1c0-.83,0-1.67.09-2.5.42-4.16,1.84-5.56,6-5.74,2.32-.1,4.65-.1,7,0,3.9.14,5.27,1.22,6.21,5.05,1.26,5.13,2.31,10.32,3.59,15.44a123.09,123.09,0,0,0,4.43,14.26c.35-1.22.73-2.44,1-3.68,2.07-8.74,4.08-17.5,6.18-26.24.93-3.86,1.81-4.64,5.67-4.76,3-.1,6.11.06,9.16.25,2.4.15,3.58,1.74,3.93,4a21.81,21.81,0,0,1,.24,3.32q0,22.43,0,44.83c0,.93,0,1.86-.1,2.78-.3,4.2-2,5.9-5.79,5.86-3.61,0-5.47-2-5.51-6.19-.08-8.73,0-17.45,0-26.17v-3.84Z"/><path class="cls-1" d="M706.75,623.59v4.59c0,8.53,0,17.06,0,25.59-.05,4.76-2.29,6.67-7,6.51a4.7,4.7,0,0,1-4.81-3.8,16.84,16.84,0,0,1-.48-4.13q0-22.4,0-44.8c0-.74,0-1.49,0-2.23.22-4.21,1.62-6.29,5-7s7.18-.18,9.27,3.63c4.74,8.66,9.85,17.12,14.9,25.6a42.81,42.81,0,0,0,5.71,7.5V632.3q0-13.08,0-26.16a26.46,26.46,0,0,1,.2-3.33c.45-3.48,2.09-4.77,5.9-4.73,3.51,0,5.18,1.43,5.54,4.85.19,1.84.17,3.71.18,5.56q0,21.28,0,42.58c0,.74,0,1.48,0,2.22-.25,2.85-.66,5.89-3.92,6.67s-6.85.93-9-2.42c-3.76-5.82-7.3-11.78-10.9-17.7q-4.74-7.82-9.4-15.68a3.77,3.77,0,0,1-.3-1.07Z"/><path class="cls-1" d="M482.32,623.39v2.91c0,8.72,0,17.44,0,26.15a15.57,15.57,0,0,1-.38,3.86c-.77,3-2.42,4-5.79,4-2.9,0-4.49-1.53-5.06-4.17a20.44,20.44,0,0,1-.41-4.42q0-21.42,0-42.85a43.87,43.87,0,0,1,.24-4.44c.39-3.66,1.77-5.43,4.64-6.13,3.61-.89,7,.29,8.71,3.21,5.56,9.39,11,18.83,16.65,28.19a67.77,67.77,0,0,0,4.49,5.89c.08-1.43.17-2.21.18-3,0-8.35,0-16.7,0-25.05a39.17,39.17,0,0,1,.24-4.72c.43-3.5,2-4.77,5.54-4.73s5.05,1.23,5.47,4.85a41.44,41.44,0,0,1,.21,4.17q0,22.26,0,44.52a18.23,18.23,0,0,1-.07,2.22c-.3,2.54-.7,5.22-3.58,6-3.09.84-6,.7-8.68-1.84-4.5-4.29-6.63-10-9.71-15.1-4-6.55-7.78-13.16-11.66-19.74Z"/><path class="cls-1" d="M1140.21,629.37a35.62,35.62,0,0,1-4.47,18.75c-4.27,8.06-11.44,11.55-20.15,12.08-5.15.31-10.27,0-15.17-2.31a24.74,24.74,0,0,1-11.24-11.09c-5.27-9.81-5.25-20.39-2.08-30.55,3.46-11.12,10.82-18,23.88-18.18,5.88-.07,11.6.41,16.88,3.49a21.34,21.34,0,0,1,8.54,9.58A38.84,38.84,0,0,1,1140.21,629.37Zm-40.87-7.86a26.85,26.85,0,0,0-.23,12.91,39.45,39.45,0,0,0,1.6,5.7c3,7.67,11.19,10.86,17.89,7.09a14.3,14.3,0,0,0,6.78-8.45c2.72-9,2.91-17.78-3.7-25.36-5.38-6.17-14.42-5.5-19.14,1.17A21.84,21.84,0,0,0,1099.34,621.51Z"/><path class="cls-1" d="M1224.49,632.63c2.07,2.73,4.71,5.62,6.66,8.92a63.78,63.78,0,0,1,4.78,10.58c1.23,3.35.13,6.31-2.26,7.54-2.86,1.48-7.09.7-8.9-2-2.45-3.7-4.58-7.6-6.8-11.43-1.3-2.25-2.45-4.57-3.76-6.81-2.53-4.35-6.3-6-11.68-4.94,0,3.24,0,6.55,0,9.86s.09,6.87-.14,10.29c-.26,3.77-2.16,5.57-5.5,5.68-4,.14-5.8-1.26-6.54-5.21a13.77,13.77,0,0,1-.16-2.49q0-22.53,0-45.08a19,19,0,0,1,.1-2.5c.56-4.35,2.16-5.81,6.53-5.82,7.24,0,14.48-.09,21.71,0,6.22.1,12,1.76,14.81,7.83,3.15,6.72,3.47,13.82-1.1,20.05C1230.49,629.48,1227.2,630.76,1224.49,632.63Zm-22-15.7V618c0,6.18,0,6.11,6.3,6.21,3.84,0,7.58-.1,10.93-2.27a6,6,0,0,0,.5-9.66c-3.1-2.64-6.75-2.59-10.47-2.57C1202.53,609.78,1202.53,609.75,1202.54,616.93Z"/><path class="cls-1" d="M1300,623.2q8.22-9.36,16.46-18.73a62.49,62.49,0,0,1,4.74-5c2.32-2.1,7.47-1.83,9.49.33,1.84,2,1.62,7.16-.46,9.3-4.13,4.23-8.22,8.5-12.49,12.6-1.47,1.41-.78,2.27,0,3.5,5,7.45,10,14.88,14.74,22.46a18.43,18.43,0,0,1,2,6.24c.49,2.47-.24,4.65-2.65,5.87s-7.11.68-8.54-1.22c-2.21-2.94-4.17-6.08-6.09-9.22-3.27-5.35-6.42-10.76-9.88-16.57-2.72,2.68-5.14,4.92-7.35,7.34a4.72,4.72,0,0,0-.72,2.82c-.08,3.43.07,6.87-.06,10.3-.18,4.84-2.11,7-6,7-4.37,0-6.63-2-6.65-6.35q-.12-24.23,0-48.45c0-5.86,1.65-7.45,6.61-7.39,3.76.05,5.51,1.48,5.73,5.28.3,5,.3,10,.4,15,0,1.54,0,3.08,0,4.63Z"/><path class="cls-1" d="M806.7,622.7c7.67,0,14.81.18,21.93-.06,5.47-.19,6.92,3.58,5.66,7.63-.44,1.4-3.19,2.85-5,2.94-6.57.34-13.16.2-19.75.07-2.17,0-3,.58-2.88,2.81.16,3.24.11,6.49,0,9.74-.06,1.84.65,2.37,2.44,2.35,7.61-.08,15.22,0,22.83,0,4.27,0,5.64,1.51,5.61,6,0,3.56-1.79,5.26-5.57,5.26q-15.72,0-31.45,0c-4.65,0-6.91-2.08-6.94-6.77-.08-15.12,0-30.24,0-45.37,0-.46,0-.92.09-1.38.42-5.16,2-6.73,7.13-6.74q15,0,30.07,0c4.9,0,7.29,3.66,5.45,8.23-.85,2.1-2.68,2.33-4.6,2.34-7.33,0-14.66.12-22,0-2.52-.05-3.23.77-3.1,3.16C806.83,616,806.7,619.13,806.7,622.7Z"/><path class="cls-1" d="M313,622.33c0,6.58-.17,13.18-.48,19.75-.49,10.1-7.6,16.88-17.81,17.94a36.67,36.67,0,0,1-16.68-1.6c-7.63-2.77-10.51-8.66-11.42-15.94a103.61,103.61,0,0,1-.52-12.22c-.08-7.7,0-15.4,0-23.11a36,36,0,0,1,.16-3.89c.4-3.61,2.06-5.13,5.55-5.18,4.48-.07,6.26,1.06,6.63,4.9s.34,7.59.37,11.39c.06,7.52-.19,15,.16,22.55a16.54,16.54,0,0,0,2.58,8.25c2.91,4.23,7.57,4.37,12.07,3s5.78-5.46,6.07-9.45c.45-6.37.23-12.79.28-19.2,0-5.1-.05-10.21.11-15.31a6.43,6.43,0,0,1,9.68-5.59,5.54,5.54,0,0,1,2.7,3.46,110.08,110.08,0,0,1,.55,11.36c.07,3,0,5.94,0,8.91Z"/><path class="cls-1" d="M103.89,645.16c-2,0-4.1-.09-6.11-.06-3.91.07-4.93,1-5.74,4.19a54.19,54.19,0,0,1-2.91,8.09c-1.19,2.73-3.13,3.46-6.45,2.82-2.44-.47-5.08-2.75-4.89-4.93A33.19,33.19,0,0,1,79.56,647c4-11.17,8.08-22.28,12.19-33.39,1.34-3.64,2.87-7.21,4.23-10.85,1.31-3.46,4-4.57,7.41-4.73,3.92-.18,7,1.1,8.65,4.72,1.3,2.85,2.17,5.9,3.29,8.83,4.54,11.84,9.15,23.66,13.63,35.52a28.45,28.45,0,0,1,1.41,6.2c.45,3.36-1.25,6.11-3.93,6.78-3.89,1-7.14-.52-8.4-3.93-1.09-3-2.2-5.9-3.13-8.91-.49-1.59-1.21-2.24-2.94-2.13-2.69.17-5.38,0-8.08,0Zm.13-29.79c-2.43,6.81-4.56,12.79-6.77,19h13Z"/><path class="cls-1" d="M897.78,610.9c-4.1,0-7.79,0-11.48,0-5.41,0-8.23-4.86-5.27-9.45a6,6,0,0,1,4.4-2.18q18.78-.25,37.57,0c4.72,0,7.59,4.93,5,8.8-1,1.53-3.63,2.51-5.63,2.74-3.74.42-7.57.12-11.7.12-.07,1.25-.17,2.32-.17,3.39q0,18.65,0,37.29a23.86,23.86,0,0,1-.24,3.88c-.61,3.44-2.4,4.83-6,4.83s-5.44-1.3-6.07-4.74a25.21,25.21,0,0,1-.38-4.42c0-12.34,0-24.68,0-37Z"/><path class="cls-1" d="M178.13,628.8c0-7,0-14.09,0-21.14,0-1.2.05-2.41.17-3.61.48-5,4-7.38,8.71-5.61a6.86,6.86,0,0,1,3.29,3.59c.64,1.55.52,3.46.53,5.21,0,12.52.07,25,0,37.55,0,2.32.68,3,3,3,6.49-.14,13,0,19.47,0,2.46,0,4.39.85,5.22,3.3,1,3,.31,6-1.9,7.5a5.16,5.16,0,0,1-2.77.88q-14.61.11-29.21,0c-4.36,0-6.4-2.35-6.45-7.26-.06-6.76,0-13.53,0-20.3V628.8Z"/><path class="cls-1" d="M570.08,629.07c0-8.16-.09-16.32,0-24.48.08-5.1,2.59-7.16,7.45-6.47a4.63,4.63,0,0,1,4.4,4.27,41.63,41.63,0,0,1,.41,5q0,22.13,0,44.23a20.54,20.54,0,0,1-.24,3c-.61,4.26-2.36,5.8-6.38,5.64-3.57-.14-5.57-2.06-5.64-6.17C570,645.76,570.08,637.41,570.08,629.07Z"/><path class="cls-1" d="M237.28,404.66l11.9-44.7h26.3A18.91,18.91,0,0,1,294,382.52h0a27.44,27.44,0,0,1-26.93,22.14Z"/><path class="cls-1" d="M213.16,495.72l15.29-57.43H248a22.66,22.66,0,0,1,22.07,27.8h0A38.65,38.65,0,0,1,232.46,496Z"/><path class="cls-1" d="M1492.68,119,1486.79,97a2.4,2.4,0,0,0-2.31-1.78l-17.63,0a2.38,2.38,0,0,1-2.15-1.38A102.35,102.35,0,0,0,1441,61.75a2.37,2.37,0,0,1-.69-2.46l5-16.58a2.4,2.4,0,0,0-1.1-2.78L1424.52,28.6a2.42,2.42,0,0,0-2.9.38l-11.91,11.87a2.38,2.38,0,0,1-2.5.54,101.79,101.79,0,0,0-34.7-6.08c-2.7,0-4-.21-6.65,0l-9.07-15.41a2.41,2.41,0,0,0-2.62-1.12l-22,5.22a2.41,2.41,0,0,0-1.85,2.32L1330.18,43a2.37,2.37,0,0,1-1.37,2.14,99.27,99.27,0,0,0-32.52,24.45h0l-17.44-4.48a2.43,2.43,0,0,0-2.65,1.07l-11.82,19.29a2.4,2.4,0,0,0,.34,3L1276.17,100a2.4,2.4,0,0,1,.54,2.5,101.67,101.67,0,0,0-6.09,34.72c0,1.26,0,2.51.07,3.76a2.36,2.36,0,0,1-1.28,2.21l-14,7.31a2.41,2.41,0,0,0-1.25,2.56l4.1,22.26a2.41,2.41,0,0,0,2.22,2l18.82,1.1h0c5.29,13.13,10.87,20.75,20.81,30.5h0l-5.69,17.26a2.4,2.4,0,0,0,.89,2.71l18.45,13.1a2.41,2.41,0,0,0,3-.14L1329.24,231a2.39,2.39,0,0,1,2.53-.38,101.37,101.37,0,0,0,40.74,8.51,89.16,89.16,0,0,0,10.9-.6h0l10.31,16.7a2.41,2.41,0,0,0,2.81,1l21.52-7.25a2.41,2.41,0,0,0,1.63-2.42l-1-16.92a2.4,2.4,0,0,1,1.29-2.26,102.42,102.42,0,0,0,29.49-23.4l0,.09,18.46,6.05a2.4,2.4,0,0,0,2.8-1l11.77-19.43a2.39,2.39,0,0,0-.32-2.89l-12.86-13.5a2.4,2.4,0,0,1-.52-2.45,101.53,101.53,0,0,0,5.67-33.6c0-2.41-.11-4.79-.27-7.15l.23.81,17.14-9.15A2.4,2.4,0,0,0,1492.68,119Zm-119.24,72.16a54.6,54.6,0,1,1,54.6-54.59A54.59,54.59,0,0,1,1373.44,191.12Z"/><circle class="cls-1" cx="1371.12" cy="137.52" r="17.43"/><circle class="cls-1" cx="1587.98" cy="448.48" r="36.25"/><path class="cls-1" d="M1857.6,420.92c-.75-4.24-5.14-8.05-9.42-8.07-6.58,0-38.27.15-47.53,0-2.93-.05-4.76-1.89-5.74-4.53-2.88-8.66-9.39-19.92-.53-26.43,3.47-2.55,39.95-21.45,43.61-24.67,2.41-2.12,3.47-5.1,2-8.28-2.65-5.73-5.11-10.89-7.61-16.26-1.87-4-5.08-5.4-9.58-4.46-4,.83-38.25,14-41.1,15.1-4.38,1.61-9.48,2.08-12.64-1.39-2.72-3-5.16-6.25-7.8-9.33-3.46-4-5.53-12.79-.46-18q13.65-14,26.67-28.7c6.5-7.33,6.58-11,0-18.56-2.37-2.71-5.07-5.14-7.64-7.67-9.77-9.31-16.88.63-24.46,6.87-7.25,6.2-13.68,12-21.64,18.69-5.67,4.76-12.06,4.24-16.48,1.27-5.84-4.11-17.86-10.82-13.66-19.68,2.66-5.21,16.36-37.33,17.15-39.57,1.73-4.93,2-7.76.12-9.51a51.69,51.69,0,0,0-9.3-6.86c-2.39-1.34-4.29-2.3-6.89-3.51-7.53-3.51-10-3.76-13.78,1.46-1.81,2.49-19.67,33.77-23.6,40.11-2.67,4.29-6.19,5.95-10.44,5-6.78-1.55-11.42-1.37-19.57-7.22a7.19,7.19,0,0,1-2.57-5.13c-.25-4.71,1-36.42,1.11-47.54,0-3.94-2.32-7.4-6.15-7.93a169.55,169.55,0,0,0-22.08-1.49c-3.59,0-5.54-.94-7.1,10.54-1,7.26-5.08,34.73-6,41.23a7,7,0,0,1-3.62,5.59c-6,3.41-12.55,4.32-19.32,4.16-5-.12-8.23-2.29-10.2-7.21s-13.92-40.16-14.77-42.59c-1.77-5.1-5-7-10.35-6.74a46.12,46.12,0,0,0-17,4.62c-5.2,2.4-7.71,6.49-6.78,11.13,1.55,7.71,7.45,34.26,8.44,39.91.54,3.08,1.42,7.33-.26,9.33a33.08,33.08,0,0,1-17.1,10.61c-5.23,1.39-9.26,2-12.67-2.14-3.63-4.43-24.26-31.48-28.28-35.9-2.13-2.34-4.86-4.56-8.81-3.34-5.7,1.76-10.36,5.15-15,8.7-4.42,3.4-6.94,7.5-5.19,13.22.56,1.81,15.24,28.31,15.66,29.58.59,1.75-2.14,2.63-3.68,2.63-.1,0-.36.31-.74.87l.16-1.09H1024.22a20.69,20.69,0,0,0-9.14,2c-4.28,2.06-6.1,3.17-6.1,3.17-2.85,1.75-1.39.84-6.36,3.83-1.61,1-4,.49-3.7-1.35l.47-2.83c.92-4.32-.68-4.83-3.48-4.83H785.32c-2.32,0-3.32,0-4.32,1l-4.35,3.85c-2.7,2.61-4.65,1.15-6.65-.85l-2-2c-2-2-2.24-2-4.62-2h-149a10.15,10.15,0,0,0-7.9,3.78l-31.69,46.16a3.92,3.92,0,0,1-7-1.21L556.2,283a7.07,7.07,0,0,0-6.83-5.26H71a3.32,3.32,0,0,0-1.94,6L123,322.55a8.42,8.42,0,0,1,3.22,9L62.62,570.63a5.64,5.64,0,0,0,5.46,7.09H284.46a81.63,81.63,0,0,0,31.08-6.15l5.46-2.24a1.27,1.27,0,0,1,1.5.4,18.89,18.89,0,0,0,15,7.37H842.81A89.44,89.44,0,0,0,891.07,563l25-16a1.28,1.28,0,0,1,1.54.12l5.93,5.29c17.9,15.95,26.5,22.24,53.25,24.76h401.64c11.27,0,18.86-10,23.13-17.78,1.83-3.34,4.6-5,9.28-4.34a13.57,13.57,0,0,1,7.15,3.61,54.53,54.53,0,0,1,7.63,9.85c4.37,7.28,4.64,11.12-.63,16.34-.46.45-27.16,30.87-30.53,34.93-1.87,2.25-1.65,4.69,0,6.91,2.52,3.29,5.08,6.57,7.85,9.66,1.78,2,4,3.59,5.94,5.44,2.87,2.74,9.08,3.16,12.07.59,10.82-9.28,21.54-18.68,32.4-27.93,4.6-3.91,8.9-5.3,13.61-2.35,4.33,2.7,7.76,5,11.49,7.55,6.24,4.31,6.52,7.88,3.87,13.49-2.07,4.41-12.81,31.68-14.08,34.77-2.05,5-5.64,12.31-3.36,14.16a139.55,139.55,0,0,0,14.08,8.58c1.92,1.06,4,1.75,6,2.69,2.54,1.19,5.36,2.14,7.62.19,2.69-2.32,24.47-38.56,27.92-44.42,2.37-4,5.4-5.2,10-4.14,2.25.53,13.77,4.15,16,4.8,4.59,1.35,6.67,3.33,6.37,7.81-.93,13.69-2,30.22-2.83,43.93-.35,6.11,2.5,10.64,8.41,12.14a85.71,85.71,0,0,0,16.44,2.33c3.92.21,7.5-1.26,8.84-5.71.93-3.1,5.61-33.73,9-45.69,1.44-5.1,3.88-9.31,8.29-9.68a172.07,172.07,0,0,1,19.14-.21c2.7.08,4.44,2,5.36,4.63,1.21,3.39,13.22,40,15,44.54,2.4,6.93,7.4,7.7,14.09,5.91,4.53-1.3,12.14-3.35,16.61-4.85s3.56-6.35,3-9.55c-1.15-6.46-6.31-34.88-8.1-42.53-1.17-5,.26-8.73,4.14-11.75,1.08-.83,9.47-5.63,11.79-6.83,5.41-2.77,9.33-1.53,13.21,1.89,2.82,2.48,20.8,26.21,27.68,34.89,4.41,5.58,10.86,6.39,16.64,2.27,3.82-2.72,7.55-5.56,11.27-8.42a9.47,9.47,0,0,0,2.72-11.89c-2.3-4.07-20-33.3-23.19-38.22-2.31-3.52-2.43-7.78.33-11,1.09-1.26,2-2.65,3.14-3.9,3.77-4.24,12.13-13,18.17-10.4,6,3.37,32.73,20.75,35.54,22.32,3.9,2,7.88,4.77,12.36,4.93a1.32,1.32,0,0,0,.28,0c4.38-.61,12-13.79,14.89-18.07,2.48-3.62,2.19-8.09-.88-10.93-5.57-5.14-30.92-26.18-37.73-31.88a5,5,0,0,1-1.67-3.07c-.32-4.21,4.9-16,5.72-18.13a11.86,11.86,0,0,1,13.87-7.07c3.83,1,38.17,8.24,44.61,8.71,5.48.39,7.19-1.8,8.91-7.06.4-1.22,5-13.8,4.63-19.17a5.45,5.45,0,0,0-1.55-3.65,41.11,41.11,0,0,0-12-5.83c-2.67-.88-28.91-10.24-31.35-11-4.74-1.4-10.54-6.69-10.82-11.6-.37-6.56,1.38-12.67,4-18.59a8.76,8.76,0,0,1,6.27-5.06c1.8-.44,33-3.68,46.45-6.91,1.69-.4,5.13-1.73,5.54-3.31C1859.82,438.81,1858.33,425,1857.6,420.92ZM354.84,508c-18.43,30.11-37.1,41.2-68,41.2H107.32a4.52,4.52,0,0,1-4.37-5.66l46.93-179.27a4.9,4.9,0,0,1,4.74-3.65h73.06a2.41,2.41,0,0,0,1.46-4.32l-60.89-46.43a1.74,1.74,0,0,1,1.05-3.13H355.8c25.59,0,43.85,18.61,43.71,45.08.15,7.57-2.93,18.11-4.58,25.54C389.26,401.58,366.07,420,341.19,420c21.13,0,32.2,32.88,26.71,53.29a.19.19,0,0,0,0,.07A98.52,98.52,0,0,1,354.84,508Zm308.38,41.2h-91.1c-2.8,0-5.67-1.85-4.92-4.55L599,426.31a.6.6,0,0,0-1-.53c-.52-.1-59.28,74-69.76,85.36a1.27,1.27,0,0,1-2.16-.49l-26-86.82a1,1,0,0,0-1.89.05L466,546a3.78,3.78,0,0,1-3.68,3.22H372.12a4.22,4.22,0,0,1-4.09-5.3l46.94-179a4.24,4.24,0,0,1,4.1-3.15h72a3.27,3.27,0,0,0,2-5.87l-58.11-44.7a.55.55,0,0,1,.33-1h90.54a5.51,5.51,0,0,1,5.32,4.05l22,80.45a4.24,4.24,0,0,0,7.46,1.44l66.49-87.7a4.25,4.25,0,0,1,3.38-1.67h94a4.23,4.23,0,0,1,4.11,5.26L667,546A3.82,3.82,0,0,1,663.22,549.2ZM930.87,449.09l-5.12,29.71a84.78,84.78,0,0,1-83.55,70.4H692.09c-2.9,0-5.18-1.32-4.3-4.08l12.47-45.73a4.3,4.3,0,0,1,4.09-3H817.3a29.61,29.61,0,0,0,27.92-19.77c3.64-10.34-4.28-21.14-15.25-21.14H764.58a43.69,43.69,0,0,1-42.17-55.13l8-29.68A86.61,86.61,0,0,1,814,306.74h142.6a4.29,4.29,0,0,1,4.16,5.33l-11.63,46.29a5.57,5.57,0,0,1-5.4,4.21H837.23a23.71,23.71,0,0,0-21.57,13.85c-5.16,11.3,3.45,24.13,15.88,24.13H890A41.5,41.5,0,0,1,930.87,449.09Zm224.83,47.09L1143,547.46a2.29,2.29,0,0,1-2.23,1.74H981.62a42.37,42.37,0,0,1-41.09-52.7l34-128.76c9.44-37.53,40.89-61,79.59-61h146.32a3.57,3.57,0,0,1,3.44,4.52l-13.67,49.66a2.29,2.29,0,0,1-2.21,1.69H1096.1a24.26,24.26,0,0,0-23.44,18l-26.15,98a11.68,11.68,0,0,0,11.28,14.68h95.68A2.3,2.3,0,0,1,1155.7,496.18Zm3.39-98.23-16.23,61.74c-.4,1.67-3.46,2.85-5.17,2.85H1079a3.69,3.69,0,0,1-3.58-4.6L1092,396.2a3.51,3.51,0,0,1,3.42-2.79h60.1A3.69,3.69,0,0,1,1159.09,398Zm278.33-88.14-13.62,51.48a1.61,1.61,0,0,1-1.53,1.09H1309.19a2.77,2.77,0,0,0-2.68,2.09l-8.32,33.46a1.49,1.49,0,0,0,1.46,1.84h94.58a1.48,1.48,0,0,1,1.47,1.79l-14,52.52a1.21,1.21,0,0,1-.24.48,3,3,0,0,1-2.2,1H1283a1.51,1.51,0,0,0-1.46,1.13l-8.58,35.08a1.49,1.49,0,0,0,1.46,1.83h113.08a1.49,1.49,0,0,1,1.45,1.88L1375.55,546a3.1,3.1,0,0,1-2.93,2H1159.37c-1,0-2.12-.92-1.88-1.85l48.9-184.62a1.52,1.52,0,0,1,1.46-1.13H1286a1.48,1.48,0,0,0,.92-2.65l-58.53-44.87a2.76,2.76,0,0,1,1.69-4.95H1436A1.48,1.48,0,0,1,1437.42,309.81ZM1591.24,597.4A147.14,147.14,0,0,1,1444.1,450.27c7.75-195.17,286.55-195.12,294.27,0A147.13,147.13,0,0,1,1591.24,597.4Z"/></svg>