<svg width="98" height="74" viewBox="0 0 98 74" fill="none" xmlns="http://www.w3.org/2000/svg">
<g clip-path="url(#clip0_231_19)">
<path d="M88.813 5.44357e-08H9.188C7.98138 -0.000131293 6.78655 0.237434 5.67175 0.699127C4.55695 1.16082 3.54402 1.8376 2.69081 2.69081C1.8376 3.54402 1.16082 4.55695 0.699127 5.67175C0.237434 6.78655 -0.000131293 7.98138 5.44357e-08 9.188V64.313C4.7288e-08 65.5195 0.237662 66.7143 0.699414 67.8289C1.16117 68.9436 1.83797 69.9564 2.69116 70.8095C3.54436 71.6626 4.55725 72.3393 5.67198 72.801C6.78671 73.2626 7.98146 73.5001 9.188 73.5H88.813C91.2495 73.5 93.5863 72.5321 95.3092 70.8092C97.0321 69.0863 98 66.7495 98 64.313V9.188C98.0001 7.98147 97.7626 6.78672 97.301 5.67198C96.8393 4.55725 96.1626 3.54436 95.3095 2.69116C94.4564 1.83796 93.4436 1.16117 92.3289 0.699417C91.2143 0.237665 90.0195 4.7288e-08 88.813 5.44357e-08V5.44357e-08ZM88.813 9.188V17C84.521 20.495 77.679 25.929 63.052 37.383C59.829 39.919 53.443 46.01 49 45.939C44.558 46.011 38.17 39.918 34.948 37.383C20.324 25.929 13.48 20.493 9.188 17V9.19L88.813 9.188ZM9.188 64.313V28.787C13.574 32.28 19.794 37.187 29.274 44.606C33.457 47.9 40.783 55.169 49 55.125C57.176 55.169 64.41 48.005 68.725 44.608C78.205 37.185 84.425 32.281 88.813 28.788V64.313H9.188Z" fill="#FFB259"/>
</g>
<defs>
<clipPath id="clip0_231_19">
<rect width="98" height="73.5" fill="white"/>
</clipPath>
</defs>
</svg>
