<svg width="164" height="164" viewBox="0 0 164 164" fill="none" xmlns="http://www.w3.org/2000/svg">
<g filter="url(#filter0_d_173_549)">
<path d="M82 35C89.3179 35 96.4715 37.17 102.556 41.2356C108.641 45.3012 113.383 51.0798 116.184 57.8407C118.984 64.6016 119.717 72.041 118.289 79.2183C116.861 86.3956 113.337 92.9884 108.163 98.163C102.988 103.337 96.3956 106.861 89.2183 108.289C82.041 109.717 74.6016 108.984 67.8407 106.184C61.0798 103.383 55.3012 98.6407 51.2356 92.5561C47.17 86.4715 45 79.3179 45 72C45 62.187 48.8982 52.7759 55.837 45.837C62.7759 38.8982 72.187 35 82 35V35Z" fill="#0C1933"/>
</g>
<path d="M61.5 60.5H103.188" stroke="#FFB259" stroke-width="5"/>
<path d="M61.5 72.298H103.188" stroke="#FFB259" stroke-width="5"/>
<path d="M61.5 84.097H103.188" stroke="#FFB259" stroke-width="5"/>
<defs>
<filter id="filter0_d_173_549" x="15" y="15" width="134" height="134" filterUnits="userSpaceOnUse" color-interpolation-filters="sRGB">
<feFlood flood-opacity="0" result="BackgroundImageFix"/>
<feColorMatrix in="SourceAlpha" type="matrix" values="0 0 0 0 0 0 0 0 0 0 0 0 0 0 0 0 0 0 127 0" result="hardAlpha"/>
<feOffset dy="10"/>
<feGaussianBlur stdDeviation="15"/>
<feColorMatrix type="matrix" values="0 0 0 0 0 0 0 0 0 0 0 0 0 0 0 0 0 0 0.161 0"/>
<feBlend mode="normal" in2="BackgroundImageFix" result="effect1_dropShadow_173_549"/>
<feBlend mode="normal" in="SourceGraphic" in2="effect1_dropShadow_173_549" result="shape"/>
</filter>
</defs>
</svg>
