<svg width="91" height="91" viewBox="0 0 91 91" fill="none" xmlns="http://www.w3.org/2000/svg">
<circle cx="45.5" cy="45.5" r="45.5" fill="#FFB259"/>
<path d="M45.5 63.7L63.7 45.5L45.5 27.3L39.13 33.67L46.41 40.95H27.3V50.05H46.41L39.13 57.33L45.5 63.7ZM45.5 91C39.2058 91 33.2908 89.8049 27.755 87.4146C22.2192 85.0274 17.4038 81.7863 13.3088 77.6913C9.21375 73.5963 5.97263 68.7808 3.5854 63.245C1.19513 57.7092 0 51.7942 0 45.5C0 39.2058 1.19513 33.2908 3.5854 27.755C5.97263 22.2192 9.21375 17.4038 13.3088 13.3088C17.4038 9.21375 22.2192 5.97112 27.755 3.58085C33.2908 1.19362 39.2058 0 45.5 0C51.7942 0 57.7092 1.19362 63.245 3.58085C68.7808 5.97112 73.5963 9.21375 77.6913 13.3088C81.7863 17.4038 85.0274 22.2192 87.4146 27.755C89.8049 33.2908 91 39.2058 91 45.5C91 51.7942 89.8049 57.7092 87.4146 63.245C85.0274 68.7808 81.7863 73.5963 77.6913 77.6913C73.5963 81.7863 68.7808 85.0274 63.245 87.4146C57.7092 89.8049 51.7942 91 45.5 91Z" fill="#0C1933"/>
</svg>
