<svg width="157" height="157" viewBox="0 0 157 157" fill="none" xmlns="http://www.w3.org/2000/svg">
<g clip-path="url(#clip0_249_14)">
<path d="M37.3459 5.25319L37.348 5.25262C40.7354 4.32719 44.2583 5.94928 45.7678 9.06066L45.9497 9.49718L58.2153 38.9347L58.2161 38.9367C59.4494 41.893 58.6 45.3014 56.1092 47.3379C56.1091 47.3379 56.109 47.338 56.109 47.338L40.9918 59.6955L37.9645 62.1701L39.6364 65.7046C50.3421 88.3377 68.6624 106.658 91.2955 117.364L94.8256 119.033L97.3007 116.013L109.689 100.896L109.698 100.885L109.707 100.874C111.701 98.412 115.125 97.5455 118.094 98.784L118.096 98.7848L147.534 111.05L147.544 111.055C150.912 112.449 152.711 116.124 151.747 119.652L151.747 119.654L144.391 146.625C144.391 146.627 144.39 146.63 144.389 146.632C143.509 149.812 140.626 152 137.375 152C64.2735 152 5 92.7265 5 19.6251C5 16.374 7.18914 13.4906 10.3695 12.6104C10.3715 12.6098 10.3735 12.6093 10.3755 12.6087L37.3459 5.25319Z" stroke="#FFB259" stroke-width="10"/>
</g>
<defs>
<clipPath id="clip0_249_14">
<rect width="157" height="157" fill="white"/>
</clipPath>
</defs>
</svg>
