<svg width="606" height="727" viewBox="0 0 606 727" fill="none" xmlns="http://www.w3.org/2000/svg">
<path d="M-17.2835 325.61C-22.8614 366.533 -16.1792 408.191 1.91813 445.316C20.0154 482.441 48.7151 513.366 84.3879 534.181C120.061 554.996 161.105 564.765 202.329 562.253C243.554 559.742 283.109 545.062 315.991 520.071C348.873 495.08 373.606 460.899 387.063 421.852C400.519 382.804 402.095 340.643 391.59 300.7C381.086 260.757 358.973 224.826 328.048 197.45C297.123 170.074 258.774 152.483 217.852 146.902C190.678 143.195 163.041 144.878 136.517 151.853C109.994 158.828 85.1046 170.96 63.27 187.555C41.4354 204.149 23.0834 224.883 9.26197 248.57C-4.55947 272.258 -13.5797 298.436 -17.2835 325.61Z" fill="url(#paint0_linear_141_473)"/>
<path style="mix-blend-mode:screen" d="M348.96 493.542C376.589 462.032 394.254 423.038 399.721 381.489C405.189 339.94 398.213 297.703 379.676 260.119C361.14 222.535 331.875 191.291 295.581 170.338C259.288 149.386 217.597 139.666 175.78 142.407C133.963 145.148 93.8976 160.228 60.6504 185.739C27.4032 211.25 2.46733 246.047 -11.0041 285.729C-24.4756 325.412 -25.8776 368.198 -15.0329 408.678C-4.18821 449.157 18.4161 485.512 49.9219 513.145C92.1782 550.196 147.421 568.946 203.501 565.27C259.58 561.594 311.903 535.793 348.96 493.542V493.542Z" fill="url(#paint1_radial_141_473)"/>
<path style="mix-blend-mode:overlay" d="M382.399 439.317C399.284 401.184 404.482 358.9 397.336 317.812C390.191 276.724 371.023 238.677 342.256 208.482C313.489 178.287 276.415 157.3 235.721 148.174C195.028 139.047 152.542 142.192 113.635 157.21C74.7283 172.228 41.1482 198.445 17.1405 232.547C-6.86726 266.648 -20.2246 307.102 -21.2427 348.794C-22.2608 390.486 -10.894 431.544 11.4207 466.776C33.7353 502.009 65.9957 529.834 104.123 546.733C129.446 557.962 156.734 564.09 184.427 564.768C212.12 565.447 239.676 560.661 265.518 550.686C291.361 540.71 314.985 525.74 335.04 506.631C355.095 487.522 371.188 464.649 382.399 439.317Z" fill="url(#paint2_radial_141_473)"/>
<g style="mix-blend-mode:overlay">
<path d="M180.546 315.214C180.516 314.993 180.468 314.774 180.404 314.561L180.231 315.036L178.899 314.171C178.848 313.952 178.765 313.74 178.653 313.544C178.648 313.696 178.595 313.843 178.5 313.963L177.997 313.78C178.389 311.833 177.304 308.81 177.432 307.59C177.267 306.394 176.781 305.265 176.024 304.324C176.525 304.949 176.967 305.996 176.103 306.283C174.341 305.643 171.87 306.516 171.828 302.892L172.826 304.237L173.133 299.219C171.236 299.036 172.99 301.7 172.346 302.859C171.854 299.514 166.928 300.349 168.286 297.487C166.793 298.369 164.279 299.797 163.336 298.124C165.718 298.104 163.665 296.439 165.998 296.117C166.405 294.998 164.247 294.751 165.221 293.902L164.763 294.464C160.633 293.373 163.445 289.995 163.91 288.107C162.04 284.545 160.37 283.653 158.838 280.816C157.827 281.334 154.634 282.452 154.085 281.176C155.054 279.819 154.086 276.997 155.637 275.693C157.573 277.158 155.222 278.138 155.587 279.57C157.964 279.39 157.385 278.546 159.278 279.171C157.88 278.663 157.078 273.907 154.778 273.703L154.762 274.267C152.65 273.024 148.153 275.028 148.937 270.438L149.118 268.287C148.985 268.455 148.825 268.6 148.645 268.717C147.072 266.34 145.415 268.111 145.497 264.405C145.395 264.685 145.217 264.652 145.283 264.992C143.479 263.861 144.643 261.182 144.456 259.784C142.592 259.771 143.085 260.678 142.267 261.71C140.239 259.104 141.185 254.763 142.215 252.194L140.533 250.727C140.372 252.125 139.271 254.193 138.308 254.318C138.171 253.128 138.974 253.009 138.042 251.656C137.109 252.54 136.297 253.544 135.626 254.64C132.688 252.273 138.784 252.401 134.882 251.551C134.437 250.598 135.655 249.427 136.764 248.817L134.469 247.728C135.912 246.892 135.039 244.77 134.714 243.227C135.28 242.8 136.79 243.698 136.449 244.46C137.575 243.888 137.528 242.193 137.073 241.268C133.755 242.118 135.368 234.727 131.949 237.25C131.723 234.825 131.111 232.07 130.72 229.49C130.409 227.265 130.379 225.009 130.63 222.777C129.474 222.039 128.925 220.067 127.639 221.688C126.531 218.119 129.907 215.454 128.373 212.014C127.897 211.841 128.601 213.649 127.432 213.73C128.378 211.13 125.257 209.614 125.672 205.776C125.612 206.025 125.483 206.253 125.3 206.433C125.117 206.612 124.888 206.737 124.637 206.792C125.174 206.798 125.662 205.107 126.158 204.18C125.815 203.643 125.873 204.963 125.344 204.675C124.533 201.377 124.621 197.921 125.598 194.668C126.916 191.592 127.76 188.334 128.101 185.004C128.037 187.007 125.724 187.622 124.794 187.568L124.858 185.565C126.052 184.892 126.038 183.367 127.075 182.256C126.655 182.104 126.345 181.389 125.7 181.946C124.104 177.63 130.835 176.533 130.503 171.79L127.786 174.125L125.027 176.572L123.729 174.833L121.202 177.08C120.254 175.247 123.355 174.381 121.703 173.875C121.169 174.124 121.286 175.021 120.246 174.833C119.878 173.147 121.164 173.267 121.683 172.19C119.724 173.575 118.254 175.544 117.483 177.816C117.066 178.963 116.649 180.109 116.252 181.199C115.855 182.29 115.771 183.304 115.486 184.087C115.201 184.87 116.353 183.706 116.722 183.65C116.533 185.038 117.573 185.922 116.868 187.597C115.335 188.591 115.829 186.713 115.73 185.853C114.431 185.856 114.484 186.318 114.232 187.271C115.928 187.572 114.567 192.617 116.595 193.83C116.23 198.921 112.071 193.038 113.091 198.064L115.132 199.503C113.459 202.601 112.884 206.175 113.501 209.642L113.435 208.953C114.203 208.409 114.843 209.086 115.316 209.353C116.523 211.691 114.524 214.225 116.723 215.405C115.85 217.2 115.241 219.11 114.912 221.078C114.622 223.094 114.479 225.226 114.367 226.927C117.071 227.151 115.453 222.288 116.656 220.636L117.331 223.478C116.955 221.727 117.695 220.825 118.946 219.475C119.955 221.837 118 223.12 117.941 225.631C118.581 225.263 119.074 225.474 119.384 226.536L117.783 227.283C117.923 227.334 118.062 227.385 118.281 227.655L118.356 232.146C117.406 231.452 115.947 231.808 115.703 230.737C116.763 230.87 116.743 229.881 116.415 228.78C115.581 230.028 115.261 227.949 114.351 228.188C114.964 230.371 115.304 232.621 115.364 234.888L116.976 234.81C118.053 236.721 117.958 239.157 118.866 240.405L119.506 239.688C120.8 241.963 120.687 244.708 122.883 246.331C122.006 249.177 121.799 252.268 120.789 254.782C119.396 256.523 125.689 260.111 124.372 263.557C124.623 263.649 124.931 261.323 125.254 260.174C126.289 261.595 124.626 263.903 126.812 263.464C124.413 260.311 128.446 262.887 128.213 261.092C128.997 262.492 129.34 264.095 129.198 265.693C127.905 263.07 126.951 268.041 126.519 264.877C126.224 266.304 126.256 267.781 126.614 269.194C126.972 270.607 127.645 271.921 128.584 273.037C129.387 272.569 129.921 272.668 130.729 273.406L129.949 274.768C130.798 275.742 130.122 271.855 131.799 273.858C131.133 277.257 136.91 280.087 133.831 283.241C136.263 284.126 133.362 279.049 136.65 280.626C137.098 278.351 134.374 277.138 135.922 275.58C136.26 277.349 137.795 275.217 138.362 276.183L138.196 278.465L137.904 278.137C137.978 280.174 138.604 282.153 139.715 283.862C140.803 285.746 142.203 287.553 143.161 289.358C143.277 293.39 141.911 297.23 144.58 300.512C144.88 298.817 147.599 302.656 147.938 299.201C149.945 300.122 149.94 302.399 149.297 302.862C148.049 301.68 148.682 302.638 147.513 301.674C147.431 302.416 147.595 303.163 147.981 303.802C148.367 304.44 148.953 304.933 149.647 305.205C149.256 305.063 149.739 304.954 149.851 304.646C151.635 305.834 149.52 306.077 149.997 307.549C151.528 306.998 152.274 309.992 153.738 310.493L153.14 313.442C153.751 311.764 154.719 314.586 156.089 314.04C156.127 315.763 155.44 317.824 157.039 319.261C157.118 318.087 159.163 320.034 160.251 319.132C163.606 321.049 161.005 326.371 164.858 327.615C164.99 327.252 165.397 326.133 166.315 326.657C166.508 327.519 167.527 328.459 167.949 329.214C168.165 329.578 168.175 329.898 167.933 330.127C167.466 332.271 167.584 334.501 168.275 336.583C166.864 337.59 165.571 335.314 165.375 334.199L166.016 332.437C163.512 333.489 164.667 330.142 163.648 330.246C163.448 331.101 163.43 331.989 163.596 332.851C163.763 333.713 164.109 334.531 164.613 335.251C165.694 336.794 166.527 338.496 167.082 340.297C164.045 340.553 160.975 337.853 158.954 334.965L160.688 335.596L159.493 334.18L162.04 334.315C160.918 333.173 159.882 331.949 158.94 330.654C160.106 332.06 162.374 331.049 161.401 330.504C158.805 330.067 160.852 328.184 159.762 327.09C160.453 327.627 161.221 328.476 161.46 327.297C157.929 326.297 158.392 324.851 154.94 324.07C157.363 322.545 152.857 321.095 154.57 319.344L155.554 320.209L155.229 316.925C151.846 316.39 154.756 320.14 151.083 318.139C148.651 315.512 151.089 313.772 149.562 311.443C149.158 312.456 149.031 313.559 149.195 314.637C149.36 315.715 149.809 316.73 150.496 317.577L148.819 316.966C148.401 318.113 150.689 320.528 151.637 321.664C151.536 318.462 152.895 322.122 154.626 322.15C153.492 323.353 152.638 321.87 152.846 324.257C152.043 322.983 150.987 321.887 149.743 321.039C153.489 324.491 148.097 328.26 152.085 330.787C151.312 328.733 154.37 329.814 155.122 329.486C155.786 330.588 156.35 331.747 156.807 332.949L154.511 333.95C155.446 336.601 159.819 333.981 159.93 337.853C159.124 339.111 157.848 336.177 158.011 336.774C159.657 340.951 163.399 339.368 167.237 340.828C166.337 341.753 165.777 342.955 165.648 344.239C166.426 342.971 167.587 343.172 167.372 341.415C168.63 341.873 168.835 343.657 169.283 344.865C166.965 343.578 168.499 347.018 168.163 347.94C169.244 348.713 168.914 346.662 168.665 345.78C169.699 346.156 171.867 345.679 170.891 347.666C171.992 346.642 171.738 342.814 170.661 341.251L171.713 342.013C171.66 340.854 171.396 340.885 170.354 340.094C170.995 340.148 171.637 340.008 172.198 339.693C172.758 339.378 173.211 338.901 173.498 338.326C173.247 338.234 173.376 338.661 173.028 338.661C172.021 338.295 171.813 337.301 172.548 336.935C173.301 334.866 174.444 337.118 175.7 336.974L176.462 338.359L175.953 342.543L175.51 346.719C176.6 348.857 178.435 348.512 180.341 349.016L179.462 350.563C181.017 351.857 182.732 352.798 183.346 350.33C182.893 350.704 182.807 350.419 182.507 350.025C182.603 349.85 182.672 349.662 182.71 349.466L182.822 349.158C183.938 351.052 184.639 352.257 184.794 352.44C183.971 348.088 186.846 350.021 188.506 347.459C188.506 347.459 188.936 348.28 189.469 349.076L190.47 350.675C188.178 349.841 189.425 351.719 189.768 352.604C191.098 351.473 191.954 354.602 193.054 355.319L193.187 354.956C194.672 355.643 195.898 356.788 196.684 358.223C196.109 360.058 195.738 361.951 195.579 363.868C193.089 362.709 193.876 364.198 193.019 364.9C193.299 365.001 193.696 365.304 193.624 365.5C193.553 365.695 192.773 365.665 192.348 366.048C190.597 363.638 188.724 361.564 189.465 358.92C190.817 358.684 189.868 360.682 191.033 360.789C191.091 358.626 189.592 357.7 187.874 356.157L186.344 356.708L185.16 354.568C185.353 355.778 183.893 356.482 185.489 358.36C184.348 359.148 183.893 356.482 182.501 355.785L183.202 353.856C182.826 354.89 180.407 352.838 180.874 355.383C180.874 355.383 181.235 356.306 181.689 357.231C182.144 358.156 182.505 359.079 182.505 359.079L180.878 359.374L182.967 361.812L183.094 360.592C185.976 365.028 186.907 358.813 189.009 363.915C188.578 366.925 189.854 368.117 192.795 369.693C191.283 367.845 193.652 368.296 193.873 366.73C196.278 367.605 195.738 369.435 196.211 370.747C197.459 370.188 198.405 369.677 196.648 368.5C198.034 366.344 198.56 370.556 200.344 368.61C205.666 372.952 199.722 379.021 208.476 381.066L208.852 380.032C212.412 384.082 215.557 384.751 219.387 387.886L224.028 387.485C223.494 386.69 222.585 383.794 224.164 383.197C221.197 384.65 219.995 382.82 217.532 383.064C217.776 382.393 218.709 382.352 219.233 382.131C218.214 381.539 217.006 382.334 216.017 380.961C216.396 380.529 218.155 380.916 217.261 379.894L214.609 380.132C212.686 377.849 215.673 375.992 212.516 374.748C212.19 376.339 211.999 378.866 212.894 379.888C211.412 379.349 214.065 381.802 212.428 381.776C211.816 378.673 210.07 379.557 208.311 376.733C208.441 377.16 208.26 377.569 208.764 378.1L204.687 376.427C206.288 376.028 202.684 373.229 204.162 371.867C208.256 373.926 206.54 374.03 211.38 376.044C210.338 374.303 209.963 372.243 210.323 370.246C210.267 370.249 210.211 370.241 210.158 370.222C210.105 370.202 210.057 370.173 210.016 370.134C210.512 368.162 211.452 368.187 213.4 365.445C213.809 368.76 216.241 367.904 217.629 370.53C216.978 372.319 215.059 371.589 214.205 370.455L215.478 372.786L215.58 371.81L220.866 374.684C219.964 373.944 220.239 372.841 220.191 371.842C220.983 372.176 221.844 372.316 222.702 372.249C221.601 373.621 221.013 374.801 221.684 375.045C222.962 375.75 224.385 376.147 225.843 376.205C227.301 376.262 228.751 375.979 230.08 375.377L230.4 375.715C228.946 376.927 231.134 379.876 231.253 382.073C232.069 380.438 233.493 382.096 234.962 381.712C234.614 382.872 234.023 383.943 233.227 384.855C232.431 385.767 231.449 386.498 230.347 386.998C228.942 383.986 229.982 384.523 230.224 381.508L227.52 377.801L227.487 379.721C225.296 379.303 224.689 376.36 223.684 378.337C223.88 380.149 225.936 380.328 226.149 382.178L224.54 382.163C225.612 385.307 226.681 380.979 228.523 383.833C226.649 384.893 228.685 384.083 229.221 385.829C227.671 386.436 224.865 382.661 224.072 385.886C224.798 387.892 230.559 385.461 230.855 389.083L230.987 388.719C233.951 389.798 234.121 391.854 234.69 393.423C236.327 393.1 237.221 395.167 238.612 395.958L238.927 395.091L240.625 396.342C240.442 394.407 238.431 395.322 236.952 394.341L237.895 392.879C235.178 393.822 235.336 390.428 234.607 388.517C235.936 390.868 240.461 390.963 239.514 394.26L241.479 393.297L241.843 394.126C243.343 393.31 243.185 391.132 241.592 389.855C241.086 390.114 240.819 390.239 240.781 390.605C240.275 389.471 240.082 387.913 237.935 387.29L238.595 388.607C237.471 388.284 236.453 387.665 235.649 386.816C234.844 385.966 234.282 384.917 234.021 383.776C237.727 384.922 241.322 386.399 244.762 388.191C244.561 391.553 244.177 394.901 243.613 398.221C245.768 400.159 248.547 401.26 251.444 401.324L251.531 400.564C252.5 400.684 253.398 401.134 254.075 401.838C255.491 401.34 253.999 399.784 254.909 399.545L257.941 401.915C258.277 400.296 255.387 399.276 254.048 398.693C254.299 398.785 254.698 399.342 254.449 399.504C252.573 399.613 250.675 395.693 249.137 397.571C248.507 396.867 250.054 399.836 247.37 398.86C245.25 398.943 245.507 396.757 245.612 396.035C245.716 395.313 248.794 395.99 248.296 394.574C249.605 395.241 249.691 396.57 251.755 396.466C250.447 395.8 249.357 393.314 248.096 394.343C246.136 391.635 248.282 387.826 249.546 388.095C248.724 389.221 253.62 391.604 249.547 391.832C250.409 394.077 253.217 395.32 254.882 397.097L255.004 396.762L257.406 398.079C257.215 397.471 256.565 396.823 256.852 395.946L259.568 399.531C258.115 397.261 261.206 398.86 262.327 398.476C262.268 399.943 263.348 401.412 261.749 401.717C260.15 402.022 261.081 400.682 259.769 400.11L261.001 402.901L261.24 402.767L261.822 404.91C264.689 405.731 261.991 400.444 264.84 403.317L263.649 405.543C267.785 406.446 273.647 405.128 276.186 406.938C275.924 406.087 275.899 405.18 276.113 404.316C276.327 403.451 276.773 402.661 277.402 402.03C275.568 401.899 273.775 401.429 272.112 400.644C271.67 400.99 273.459 404.078 275.482 404.086C273.471 407.787 271.441 400.4 270.083 404.306C264.86 404.305 267.69 399.573 262.959 400.479C263.59 398.746 262.08 399.241 262.416 397.622C264.495 395.213 267.672 399.535 270.58 399.2C270.328 399.108 269.947 398.59 269.947 398.242C270.651 398.197 271.356 398.322 272.002 398.607C272.648 398.891 273.216 399.327 273.658 399.877L273.577 400.1C275.348 402.454 275.343 399.16 276.889 398.741C277.311 399.148 279.268 399.164 278.642 400.361L281.459 399.233L280.747 401.19C282.061 401.668 282.699 400.349 283.665 401.872L283.286 403.697L279.77 403.526C281.316 404.499 279.806 405.343 281.618 406.192C279.981 403.729 283.349 405.524 283.977 403.885L285.108 405.214L284.869 404.653C286.158 403.982 286 405.634 287.385 405.568C285.654 406.236 284.365 407.255 282.746 405.527C284.012 406.877 285.496 408.006 287.136 408.865C288.442 409.973 289.782 408.815 291.182 408.881C288.704 407.599 293.105 403.597 287.726 403.761C287.614 404.069 288.186 404.15 288.397 404.005C287.182 406.127 285.268 403.12 284.359 401.966C284.827 400.68 283.863 400.108 286.016 399.846C285.16 400.548 287.045 403.197 289.181 402.549L289.499 399.499L290.907 399.631L292.325 399.736L292.074 399.644C293.464 397.997 294.87 400.661 296.972 399.843C298.161 401.099 303.502 401.301 300.73 403.87C302.746 402.419 303.778 404.979 305.595 405.64L303.089 406.438C305.356 408.909 304.896 407.476 306.557 411.088C306.832 410.333 307.506 409.787 307.341 408.935C311.037 409.393 316.364 409.369 318.138 411.977C320.738 412.227 321.583 408.862 324.94 410.685C325.642 411.193 323.984 413.313 326.455 412.787C326.536 412.564 324.488 410.362 327.126 410.942C328.707 413.385 331.643 410.275 333.803 412.517C335.176 411.877 337.372 412.454 337.141 410.565C335.095 410.707 332.264 409.962 331.959 409.06C332.088 410.183 330.383 409.911 331.758 410.918C328.532 411.865 329.94 409.56 327.073 410.131C326.961 409.394 328.731 408.36 329.229 409.079C329.557 406.698 324.001 407.177 326.779 404.674C329.87 404.88 329.958 409.946 332.823 407.728C332 406.162 330.241 407.168 329.278 404.507L331.5 403.795L332.765 405.712L332.877 405.405C336.69 403.626 335.96 408.331 339.078 409.941C336.978 411.361 339.001 414.155 337.425 415.006C339.565 415.563 341.215 415.467 341.525 413.047C337.706 410.581 341.623 410.518 338.153 407.609C338.881 406.829 337.697 403.992 339.974 403.998C342.383 406.078 338.99 405.919 341.407 407.02C341.513 406.928 341.593 406.81 341.642 406.678C341.69 406.546 341.703 406.404 341.682 406.266C342.698 407.648 343.11 405.994 344.376 407.562L344.117 407.057C346.034 405.791 345.807 408.938 347.492 407.525C346.673 409.253 348.305 409.119 349.091 410.354C347.487 410.847 346.347 413.282 343.368 412.768C343.201 411.314 343.514 410.541 342.388 409.72L344.297 410.13C343.941 409.821 343.607 409.488 343.298 409.133L341.318 409.616C343.57 410.91 342.308 412.287 343.122 413.881C345.333 413.546 344.855 414.512 346.182 414.172C346.304 412.095 350.791 411.163 353.397 410.18C353.01 410.198 352.542 410.091 352.25 410.111C350.626 408.57 353.704 408.551 353.842 407.999L355.023 409.189C354.772 409.097 354.515 408.497 355.105 408.269C356.838 408.899 356.444 410.94 358.149 411.561C358.546 410.471 357.197 408.523 358.376 408.066C358.743 407.06 360.446 404.64 362.66 405.952C362.789 406.222 362.977 406.46 363.21 406.648C363.442 406.837 363.713 406.972 364.004 407.043L363.725 406.941L365.474 405.963C364.422 403.807 362.675 406.432 361.603 404.333L361.748 402.454C361.14 402.318 360.568 402.052 360.071 401.674C359.575 401.297 359.166 400.817 358.871 400.268C360.511 400.199 360.77 400.705 362.503 401.336C362.92 400.19 361.772 399.17 361.606 399.015L361.746 400.111C359.397 401.346 358.813 397.904 356.154 398.076C355.791 397.944 356.073 398.3 355.961 398.607C354.05 396.551 351.62 398.706 349.856 396.069L350.392 397.119C349.063 396.161 346.524 394.002 343.965 391.899L344.041 391.167C344.41 390.763 343.34 390.659 342.75 390.887C341.451 389.845 340.31 388.892 339.202 388.109C339.588 387.71 340.095 387.449 340.644 387.367C340.976 388.279 343.612 387.909 342.941 389.754C344.258 388.745 345.976 390.637 346.924 390.032C345.193 391.048 347.803 391.966 347.943 393.062C348.614 391.913 350.276 393.436 350.274 391.789C350.632 391.413 349.343 392.78 348.807 391.73C347.348 389.996 352.005 390.772 350.132 389.046C352.745 390.567 356.163 390.481 358.682 392.347L357.06 392.802C358.313 392.751 361.089 393.476 361.43 392.714C360.403 392.476 359.393 392.172 358.405 391.803C358.596 389.973 361.153 392.17 361.456 391.077L364.363 394.573L362.878 394.476C363.646 395.673 366.869 394.82 369.07 394.861C368.128 392.143 365.651 394.25 363.478 392.826C361.893 391.616 364.905 390.559 363.377 389.623C363.532 389.508 363.71 389.426 363.898 389.385C364.087 389.343 364.282 389.341 364.471 389.38C364.661 389.419 364.839 389.497 364.996 389.61C365.153 389.723 365.284 389.868 365.38 390.036L366.105 389.698C364.941 387.153 361.606 387.269 359.683 384.986C359.852 385.235 359.954 385.523 359.98 385.823C359.153 386.116 358.273 386.23 357.399 386.158C356.525 386.085 355.676 385.828 354.909 385.402C355.895 384.78 356.172 385.324 356.625 385.646C356.818 385.115 355.25 384.64 354.741 383.948C356.363 383.493 355.219 382.634 356.196 382.388C355.315 381.825 354.249 381.63 353.227 381.846C352.5 382.626 353.598 383.089 353.313 384.22C352.169 383.36 351.269 386.009 349.617 384.458C352.077 384.309 349.272 381.926 348.542 381.059L348.967 381.024C348.366 379.602 347.72 379.462 347.03 380.604C347.953 381.288 348.967 381.024 348.517 382.348C347.799 382.259 347.111 382.009 346.504 381.616L347.068 382.676L343.868 381.986C343.252 380.399 342.79 378.757 342.486 377.083C341.566 378.046 340.577 377.021 339.914 376.495L340.191 377.039C338.642 377.9 335.59 376.631 335.478 375.546C334.327 376.362 341.793 383.163 334.73 381.257C332.01 380.901 333.483 377.637 332.087 376.338C332.092 376.533 332.023 376.723 331.894 376.869C330.687 376.968 330.74 375.69 329.818 375.006C330.601 374.594 331.643 374.689 331.92 375.233C331.752 373.779 329.421 375.052 328.674 373.798C329.533 376.137 326.297 374.327 327.055 375.552C325.921 375.876 324.708 375.774 323.645 375.265C322.582 374.756 321.742 373.874 321.285 372.788C319.345 375.248 318.576 372.055 315.899 372.886C316.313 372.878 316.961 373.272 317.528 373.194C318.689 375.136 314.785 373.684 316.663 375.57C316.221 375.219 316.773 374.66 317.215 375.011C317.657 375.362 318.717 376.191 318.404 376.963L316.104 378.152L316.767 378.679L313.269 380.287C313.317 379.924 313.505 379.595 313.793 379.37C310 379.699 305.974 377.886 302.812 377.527C303.126 372.576 295.444 374.023 293.706 370.446C294.059 372.098 293.897 373.818 293.243 375.375C293.774 375.568 294.473 377.912 295.85 377.78C296.125 377.025 297.965 376.491 297.129 375.396C300.568 376.647 296.377 377.465 296.907 379.399C293.077 378.005 291.415 374.741 289.24 373.063L289.036 373.622L287.486 372.14C289.057 372.174 289.64 369.441 287.489 369.957L287.713 370.038C286.332 370.961 284.498 368.868 282.762 368.68L282.078 366.816C280.383 366.516 279.467 369.381 278.399 370.923C275.674 370.407 274.915 367.534 273.586 365.531C272.384 366.487 268.421 365.456 269.933 367.653C267.981 365.708 270.852 359.471 265.806 361.592L266.337 363.178C262.792 361.35 258.548 357.178 256.499 357.414C255.908 362.17 250.093 359.357 247.388 362.964C248.031 362.153 246.806 361.169 246.887 360.597C246.333 360.902 245.593 361.108 245.462 360.078C247.299 359.987 246.639 355.536 248.499 358.429C248.569 356.883 248.359 355.338 247.88 353.866C247.664 353.167 247.31 352.517 246.841 351.955C246.372 351.393 245.795 350.93 245.146 350.592L244.291 352.244L246.752 353.139C245.867 354.179 247.036 354.794 247.221 355.59C242.547 354.079 245.716 359.727 241.489 356.987C241.675 355.693 241.744 356.288 240.813 355.189C241.312 355.56 240.762 356.722 239.891 356.247L239.807 354.475C236.701 356.226 241.329 357.688 238.927 358.808C239.91 361.066 242.535 363.509 240.85 365.27C237.553 364.324 240.459 359.904 236.952 359.103L236.133 359.787C235.46 358.592 236.131 357.095 236.078 355.936C235.904 356.176 235.651 356.348 235.364 356.422C235.077 356.497 234.773 356.469 234.504 356.345C233.839 353.923 233.383 351.448 233.143 348.947C236.124 353.198 237.528 349.688 240.91 353.705C240.628 352.652 237.922 350.433 239.132 348.151L238.176 349.734C237.886 348.86 237.416 348.056 236.798 347.373C236.18 346.69 235.426 346.143 234.585 345.768L235.022 347.352C233.587 344.771 229.776 347.152 229.792 343.454C230.091 343.535 230.369 343.679 230.608 343.875C230.848 344.071 231.043 344.316 231.182 344.593C230.388 343.239 229.122 342.225 227.626 341.748L227.104 337.442C226.547 338.189 225.035 337.037 224.846 338.773C222.274 338.534 223.169 335.725 222.453 334.736C219.428 334.87 223.4 336.569 221.987 338.714C220.614 338.223 219.398 337.374 218.464 336.254C217.529 335.135 216.911 333.787 216.673 332.348C217.344 332.592 217.837 332.455 218.091 332.105C217.639 332.478 216.777 331.626 216.294 331.039L216.742 329.809C215.344 329.649 214.96 330.269 215.102 331.618C214.111 331.036 214.722 328.314 212.673 328.898C213.107 331.272 215.778 332.023 215.933 333.251C213.791 329.653 210.476 333.196 207.721 328.585C207.279 328.93 207.08 330.346 206.384 329.649C205.045 327.674 207.658 327.453 208.075 325.959C208.835 327.787 209.963 327.817 211.766 327.302L212.132 326.295C211.728 326.623 210.902 325.848 210.332 326.02L211.497 324.386C210.058 326.079 207.684 326.165 207.186 324.401C209.326 324.261 208.993 324.045 210.999 322.622C211.261 319.552 207.796 322.723 208 319.378C207.756 320.049 208.605 321.719 207.054 320.933C205.504 320.148 207.362 318.956 207.121 317.792C206.567 319.838 205.407 320.587 204.675 322.949C206.26 324.855 205.409 323.627 206.57 325.918L204.011 325.556C205.292 327.257 203.639 328.144 203.283 328.774C199.364 327.538 203.287 324.85 201.289 323.553C201.391 321.88 203.012 324.908 202.723 322.745C201 321.39 203.16 321.543 202.034 319.328L201.719 320.195C200.423 320.452 200.858 318.995 200.408 318.23C199.958 317.465 205.721 314.591 203.221 311.718C203.077 312.047 202.881 312.35 202.641 312.616C202.641 312.616 200.469 315.973 198.336 319.313L194.105 326.068C190.891 322.793 187.339 319.866 183.51 317.337C180.513 318.526 183.923 321.508 182.756 322.192L184.701 323.374C185.555 322.419 181.89 319.787 184.905 319.681C186.826 323.103 189.05 323.342 189.664 327.745C186.703 329.01 186.795 323.883 183.468 323.717C184.181 324.321 184.672 325.146 184.863 326.061L179.035 321.629L179.107 320.737C179.879 321.419 180.725 322.013 181.628 322.509C181.221 322.166 180.891 321.742 180.659 321.263C180.427 320.784 180.297 320.263 180.279 319.731C180.261 319.199 180.354 318.67 180.553 318.176C180.751 317.683 181.051 317.237 181.433 316.866L181.797 316.999L181.797 315.954L180.546 315.214Z" fill="#8D413A"/>
<path d="M103.73 222.739L102.682 209.694C103.025 213.365 103.421 216.802 103.73 222.739Z" fill="#360015"/>
<path d="M102.985 191.727L102.327 190.664C102.774 191.175 102.911 191.32 102.985 191.727Z" fill="#360015"/>
<path d="M83.2202 243.518C83.1693 243.428 83.1011 243.349 83.0194 243.286C83.2177 243.264 83.2431 243.368 83.2202 243.518Z" fill="#360015"/>
<path d="M67.7177 213.119C67.5998 213.538 67.5281 213.968 67.504 214.402C67.3973 214.174 67.4456 213.78 67.7177 213.119Z" fill="#360015"/>
<path d="M127.378 349.784L129.455 350.255C129.969 347.276 128.459 346.727 130.965 346.626C127.292 349.848 134.614 351.911 131.055 355.08L132.565 355.281C132.257 355.169 132.501 354.846 132.263 354.633C135.374 354.783 130.653 358.099 133.016 359.783C133.916 360.268 134.834 360.444 134.869 359.475L135.388 361.88C135.903 362.289 136.392 361.644 135.914 361.217L137.893 363.868C137.681 364.871 137.574 365.893 137.575 366.919C138.653 367.089 137.789 366.331 138.211 366.042L138.67 368.172C140.053 367.852 139.899 365.928 138.905 365.091C143.534 363.071 139.087 367.026 143.622 367.789L142.867 366.121C145.57 365.047 145.826 366.691 148.297 366.862C147.356 367.185 142.626 367.047 143.129 369.319C143.744 369.543 144.415 369.787 144.458 371.322C145.685 370.123 146.138 371.142 146.974 372.238L148.497 370.576C149.023 372.002 148.156 372.731 148.054 374.056C149.365 374.976 150.786 373.942 152.06 373.139C154.118 374.616 148.885 373.947 150.74 376.331C152.865 377.104 153.23 378.884 154.27 381.51C155.896 381.912 154.989 380.315 155.831 380.178L155.601 382.374C155.909 382.486 156.156 382.069 156.331 381.848C156.674 383.081 154.882 383.569 155.817 385.175C154.543 387.371 160.863 384.795 160.653 388.328C161.457 388.209 161.345 387.124 162.029 386.549C162.87 388.476 163.352 390.54 163.454 392.64L166.001 392.775C163.741 393.156 164.032 395.921 164.373 398.293C163.442 398.588 162.626 398.829 162.181 398.92L163.614 401.595C164.115 401.524 164.372 400.731 164.578 399.729C164.61 399.967 164.629 400.206 164.634 400.446C165.943 400.416 166.309 399.061 166.536 397.655L164.914 398.11C165.086 396.642 165.668 395.251 166.595 394.099C166.579 394.471 166.692 394.837 166.915 395.134C166.91 394.806 167.026 394.488 167.241 394.239C167.441 394.122 167.36 394.694 167.36 395.391L169.389 393.818L168.875 394.707L172.614 395.656C173.19 399.032 172.75 403.462 175.494 406.709C175.721 404.607 177.071 404.116 178.286 402.343C176.041 403.552 176.296 399.719 174.334 398.847C174.491 398.928 174.667 398.965 174.843 398.955C175.02 398.945 175.19 398.887 175.336 398.788C175.483 398.689 175.6 398.552 175.675 398.392C175.75 398.232 175.78 398.054 175.763 397.879L177.541 401.692C178.533 400.185 178.97 401.072 180.185 401.039C177.559 403.471 181.097 404.537 181.734 406.352C182.495 405.394 182.818 404.245 181.194 403.401C184.336 402.423 181.032 408.281 183.979 407.58C183.559 407.427 183.28 407.326 183.465 406.728C183.765 408.167 186.398 408.935 186.429 407.807L186.038 407.664C188.732 408.961 193.693 412.729 192.528 415.408C193.174 414.163 193.746 412.88 194.242 411.568L193.9 417.205L193.66 422.912C194.545 420.479 199.274 416.185 197.884 413.653C198.428 413.652 198.96 413.812 199.414 414.112C199.868 414.412 200.223 414.84 200.436 415.341C199.813 415.399 197.476 417.905 197.952 418.426C200.967 416.927 199.833 417.781 202.982 416.869C202.067 416.948 200.747 420.837 201.825 421.355C202.049 420.74 203.884 417.957 203.722 417.36L204.295 422.223C204.011 421.264 205.826 419.234 206.955 418.568C206.281 419.114 209.135 419.71 209.634 420.429L208.131 420.642C211.207 421.761 208.277 427.028 211.269 428.464C211.295 427.524 212.767 423.564 214.442 423.92C214.129 426.086 212.905 434.062 214.874 436.741L215.911 435.979L217.339 438.145C217.304 433.47 216.883 428.806 216.081 424.2C217.604 423.931 217.004 423.143 218.608 424.043C219.643 423.375 218.443 422.147 218.009 421.862L222.088 423.093C220.875 425.121 223.958 426.654 222.895 428.357L219.887 424.097C218.656 426.087 219.278 431.252 222.178 432.244C223.284 431.728 223.633 428.246 223.897 427.519C223.882 428.431 225.783 430.168 226.245 429.766L225.633 428.055C227.517 428.013 226.746 432.133 229.537 430.901C230.208 431.145 232.735 428.898 232.226 430.296C229.418 433.684 227.374 437.638 226.235 441.888C228.219 441.605 230.152 441.04 231.975 440.209C233.897 438.756 232.449 434.905 234.084 433.631C233.956 434.289 234.016 434.969 234.256 435.594C235.156 435.383 234.78 433.632 236.13 434.534C235.306 436.799 239.177 435.643 236.005 436.705C237.156 437.979 237.692 436.939 239.304 437.905C238.132 439.125 238.779 443.35 240.065 444.514C240.282 443.944 240.65 443.443 241.13 443.066C244.178 444.175 246.224 443.684 249.017 444.796C249.49 444.366 251.084 444.25 250.853 443.057C251.102 443.591 251.18 444.506 252.065 444.86C254.444 443.541 250.238 443.878 252.378 441.998C251.9 443.312 253.936 444.591 254.899 445.859C253.775 447.73 251.95 445.262 250.942 443.945C250.482 445.512 250.481 447.178 250.937 448.746C251.392 450.314 252.287 451.719 253.515 452.796C255.657 454.304 255.183 451.345 255.459 451.889C260.098 452.975 257.576 458.168 262.019 457.442C264.116 456.115 263.301 453.919 264.058 452.707C262.305 451.435 260.825 452.891 259.392 452.307L261.301 452.02C261.077 451.566 260.728 451.187 260.294 450.928C259.86 450.669 259.361 450.542 258.856 450.56C260.607 449.488 266.501 452.867 270.439 452.4C270.878 453.193 271.727 454.167 271.015 454.731L270.006 454.111C268.544 455.257 271.439 456.785 269.833 457.024C270.996 458.524 272.181 460.664 274.557 460.484L275.552 458.535C275.428 458.704 275.266 458.842 275.079 458.937C274.892 459.032 274.685 459.082 274.476 459.083C274.266 459.084 274.059 459.035 273.871 458.941C273.684 458.847 273.521 458.71 273.396 458.542C274.031 459.755 277.405 456.835 277.638 459.674L275.747 460.695C276.931 462.139 278.252 464.773 280.268 464.715C278.854 466.512 279.92 464.367 277.888 466.382C279.9 463.726 273.008 465.176 275.802 462.457C273.639 464.836 273.088 462.957 270.601 464.744C270.845 464.073 271.639 463.633 269.948 463.493C269.909 463.245 269.85 463.001 269.77 462.763V462.763C270.198 462.605 270.578 462.34 270.874 461.993C270.584 460.178 268.063 459.451 267.471 458.381C266.444 458.419 267.616 459.288 266.932 459.862L266.053 458.276C265.513 459.758 262.768 459.994 264.842 461.603L262.885 460.891C262.235 461.176 261.516 461.264 260.817 461.145C260.118 461.025 259.469 460.703 258.95 460.219C257.916 460.191 257.164 457.733 257.586 459.184L254.808 457.161L254.675 457.524C251.567 456.583 249.313 452.945 244.903 454.19C243.957 453.17 242.695 452.5 241.322 452.285L240.5 453.411C239.387 452.468 236.075 453.13 236.07 451.577C233.215 454.464 229.497 449.629 227.014 449.232L227.624 447.554C225.949 446.772 224.433 445.684 223.156 444.346L223.919 442.945C222.822 441.089 219.306 441.963 216.803 440.577C216.599 441.136 217.43 441.376 218.035 441.279C213.467 442.783 212.782 435.79 208.852 436.671C208.735 436.347 208.5 436.079 208.194 435.92C207.888 435.762 207.533 435.725 207.2 435.817C207.231 435.812 207.263 435.814 207.292 435.825C207.322 435.836 207.348 435.854 207.368 435.878L207.089 435.776C206.654 435.84 206.199 435.959 205.746 435.984C206.128 435.838 206.526 435.738 206.931 435.687C206.239 435.232 205.634 434.658 205.142 433.992L203.995 435.316L203.827 435.255C202.76 435.404 203.601 434.223 204.54 433.297C204.288 432.845 204.114 432.353 204.024 431.843C202.076 433.889 202.438 429.937 200.188 432.031C200.361 430.511 196.836 428.975 197.95 426.087C197.818 426.451 197.403 426.458 197.736 426.675C196.725 426.496 195.706 426.252 195.398 425.096L193.952 426.722L193.607 423.146C191.825 423.605 190.968 423.959 191.222 426.045C189.835 422.375 189.529 423.91 188.607 420.44L187.972 421.665C187.176 421.154 186.912 418.747 185.822 419.395C182.68 420.373 176.855 414.106 171.093 412.801C174.319 410.112 167.931 412.79 169.66 410.126C168.844 410.716 167.893 410.718 168.096 411.9C166.411 409.483 163.763 410.672 163.842 407.408C162.998 407.987 163.323 408.834 162.881 409.18C162.972 408.928 162.688 407.97 162.116 408.236C161.544 408.503 161.801 409.103 162.037 409.759C159.849 407.855 161.471 405.311 163.022 402.962C161.098 403.117 160.653 402.512 160.992 400.45C160.02 400.857 158.772 401.068 159.949 402.446C159.098 401.914 154.357 399.714 155.738 397.747C155.138 398.004 154.571 397.038 154.554 396.652C153.254 395.827 152.058 394.85 150.991 393.74L151.634 393.974C152.819 391.24 150.681 392.33 149.57 390.944L149.479 391.196C145.135 389.995 148.785 389.36 144.322 388.401L145.603 387.316C147.782 384.373 141.618 386.436 140.889 383.828L142.162 383.721C142.107 381.96 136.252 384.737 134.938 384.259C134.514 384.294 134.91 384.945 135.04 385.372C131.118 384.578 136.258 383.504 134.827 381.432C133.655 381.955 133.111 383.973 131.736 382.967C130.455 383.007 131.135 376.701 127.927 376.642C128.941 376.378 129.927 376.103 129.643 374.797C128.705 373.284 123.726 373.657 124.865 370.525C124.589 370.524 124.322 370.616 124.105 370.787C123.78 369.244 122.177 366.603 122.861 364.984C117.598 367.786 119.497 356.826 115.508 360.219L113.203 356.721L112.835 357.125C112.143 356.533 111.67 355.727 111.489 354.836C111.309 353.944 111.432 353.017 111.839 352.204C111.168 351.959 111.038 352.577 110.853 352.826C107.559 350.393 107.613 349.811 107.951 345.66L106.332 346.369C106.8 345.083 100.797 343.31 100.465 338.915C100.227 339.116 100.069 339.396 100.02 339.703C99.5553 334.975 90.4431 333.306 95.1414 328.746L95.1522 325.584C97.2461 328.531 97.2725 323.76 98.9067 324.576C98.5689 323.155 95.5062 322.262 95.9786 323.922L96.37 324.065C93.7591 326.281 93.2061 320.666 91.2461 321.789C89.5539 318.608 87.699 315.527 85.8516 312.512C83.8582 309.649 82.1598 306.591 80.7825 303.386L83.4337 303.148L82.4377 301.012C81.6549 300.727 80.2746 300.953 80.9758 302.507C79.3186 302.188 81.0985 299.385 81.5942 299.154C79.4189 296.431 79.2628 301.472 78.8461 300.529L78.516 299.174L79.2149 299.428C79.7439 297.974 80.8192 297.542 79.9478 295.674C79.0151 294.67 78.2269 295.618 77.9474 295.168C77.6679 294.718 77.6678 295.066 77.6374 294.453L76.4993 291.665L78.8098 291.841C79.3795 290.275 77.8368 289.207 80.4471 289.777C76.4312 288.98 75.8484 279.619 74.6692 278.683C75.0541 277.716 75.2316 276.678 75.1902 275.638C75.1489 274.597 74.8895 273.577 74.429 272.644C75.0008 273.073 77.2834 272.891 76.5517 271.073C72.1184 272.816 73.7054 268.106 70.2004 267.211C72.6607 268.106 69.7313 261.626 73.2642 263.228C72.5807 261.713 71.5077 263.444 70.1988 262.429C70.5237 260.297 70.2166 258.116 69.3155 256.156C68.4132 253.957 67.882 251.624 67.7435 249.252C68.3688 249.1 69.3651 249.842 70.1686 248.678L66.8214 246.479C67.0275 245.477 70.2328 245.282 67.9785 243.734C68.5097 243.927 69.2925 244.212 69.4502 243.604C68.0946 239.002 67.6976 234.17 68.2839 229.408C68.9472 224.448 68.1801 219.402 66.0729 214.863C67.1834 216.248 67.359 215.331 67.4786 214.393C67.7149 215.049 69.0011 214.472 69.8247 214.645L67.8174 210.59C70.1942 210.062 68.3292 206.313 70.5737 206.148L70.1261 207.378C72.8843 205.975 75.743 210.213 79.1212 210.239C76.0096 211.83 83.1261 215.243 78.6494 217.888C79.2898 218.564 79.7831 217.382 80.5354 217.751C79.0204 218.434 78.733 219.311 79.3554 220.994L79.7087 220.806C79.3468 225.455 80.4699 227.415 81.7398 232.626L80.0546 232.298C80.2587 233.031 80.7058 233.674 81.3227 234.121C78.8568 235.503 81.0539 230.857 78.3059 232.231C81.7727 233.493 78.7389 240.177 82.6151 240.923C82.7291 242.611 80.6859 240.569 80.7999 242.257L81.8623 242.643L80.5303 243.172C80.7551 243.664 81.1271 244.075 81.5951 244.347C82.063 244.62 82.6038 244.74 83.143 244.692C83.0185 244.426 83.4177 243.938 83.3415 243.625C84.7367 244.924 83.4195 247.674 83.8769 248.157L83.0257 246.581C82.9618 249.081 83.1109 251.582 83.4716 254.057C83.9368 256.526 83.938 259.06 83.4752 261.53L82.6643 261.235C81.896 264.913 84.0059 263.813 84.0611 267.663L84.1323 267.468C83.8344 267.905 83.6429 268.406 83.5731 268.93C83.5032 269.454 83.557 269.988 83.7301 270.487C84.4014 269.339 85.9234 271.855 86.6125 270.396C85.9864 274.379 85.8597 272.465 83.6273 275.642L85.033 275.869C84.1177 276.992 83.5279 277.221 83.6724 279.173C84.3336 277.356 85.8252 279.956 86.8551 277.735C90.6317 280.755 85.8878 284.221 90.3817 284.749C87.5089 287.597 87.4058 282.051 86.9963 283.263C85.5984 282.755 84.8327 285.642 85.6154 286.623C86.3981 287.605 90.6609 287.288 91.5575 290.305C91.4432 290.01 91.6999 289.914 91.5856 289.619C92.8055 290.443 91.2419 292.217 93.1761 293.079C91.4117 294.621 93.9764 294.795 91.4674 296.035L91.0028 293.048C90.9161 294.853 88.4626 297.506 90.9583 299.522C91.4429 298.891 91.7839 298.161 91.9577 297.384C93.048 297.781 92.0158 299.052 93.1138 299.515C95.5949 298.265 92.3138 296.058 93.7225 293.404C95.0925 293.903 93.071 297.283 95.5523 295.336C92.4507 297.944 97.1251 298.062 95.2232 301.2L96.7129 300.413C96.5603 300.832 96.2042 301.811 96.4532 302.345L97.7703 300.639C96.9055 303.016 100.632 303.042 100.471 304.788C99.0613 301.616 98.3032 304.917 96.5851 304.07C96.368 308.93 101.58 304.526 102.855 309.201C102.789 308.512 100.936 307.427 100.666 308.69C101.419 309.493 102.393 310.057 103.465 310.31C104.598 313.286 101.667 310.637 101.377 312.304C103.701 312.358 101.377 314.046 101.506 315.517L103.024 314.74C105.697 317.486 100.367 317.256 103.099 319.58L104.49 317.236L104.762 319.013L106.282 317.793C105.908 320.127 106.51 320.473 107.829 321.807C107.488 321.862 107.163 321.994 106.881 322.193C106.598 322.393 106.365 322.654 106.2 322.958C106.034 323.262 105.94 323.599 105.926 323.945C105.911 324.29 105.976 324.635 106.115 324.951C107.541 325.47 107.168 323.625 108.184 325.704C108.795 324.723 109.654 323.579 107.811 323.51C108.225 323.155 108.449 322.539 108.864 322.184C110.429 322.753 110.653 324.576 111.057 325.293C110.854 325.024 110.574 324.822 110.254 324.716L109.973 328.793C110.789 328.9 111.013 328.285 111.237 327.669C111.435 328.343 111.018 329.141 111.378 330.064C112.421 329.113 113.654 328.422 113.479 326.902L113.826 330.385C114.441 330.26 116.053 330.878 116.277 330.263C117.888 331.229 116.461 335.238 118.637 336.567C118.546 336.736 118.491 336.921 118.476 337.112C118.461 337.303 118.486 337.495 118.55 337.676C120.088 339.28 122.403 339.964 122.507 343.073L125.376 342.756C126.162 344.688 121.688 343.06 123.012 346.296C123.85 348.691 125.239 345.745 126.296 345.971C125.996 347.667 125.296 350.895 128.219 351.388C128.146 350.633 127.53 350.41 127.378 349.784Z" fill="#8D413A"/>
<path d="M66.2114 207.695L65.594 206.172L66.7326 207.22L66.2114 207.695Z" fill="#360015"/>
<path d="M69.167 205.224L66.943 204.637L69.0402 204.007C68.8444 204.284 68.5927 204.889 69.167 205.224Z" fill="#360015"/>
<path d="M16.3241 270.75C16.2781 271.747 15.9171 271.869 15.7189 271.892C15.8557 271.48 16.0603 271.095 16.3241 270.75V270.75Z" fill="#360015"/>
<path d="M93.8997 405.07L93.6914 404.424L93.5185 404.899L92.0825 404.06C92.0825 404.06 91.9148 403.651 91.7802 403.412C91.7845 403.489 91.7732 403.565 91.747 403.638C91.7208 403.71 91.6801 403.776 91.6276 403.832L91.0963 403.638C91.3204 401.63 89.9256 398.59 89.9792 397.311C89.7104 396.065 89.0957 394.92 88.2057 394.007C88.8105 394.607 89.3364 395.684 88.4899 396.01C86.6726 395.348 84.1865 396.438 83.7983 392.719L84.9673 394.031L84.7599 388.859C82.8053 388.749 84.8408 391.421 84.3271 392.659C83.5271 389.201 78.4431 390.296 79.702 387.271C78.2631 388.268 75.9039 389.879 74.6791 388.198C77.1117 388.039 74.8498 386.424 77.2341 385.962C77.641 384.844 75.2847 384.619 76.1847 383.712L75.7728 384.322C71.4493 383.414 73.9665 379.802 74.0966 377.792C72.0587 374.169 70.0482 373.343 68.1678 370.506C67.1815 371.128 64.1082 372.353 63.3585 371.193C64.1697 369.747 62.912 366.852 64.3536 365.413C66.4223 366.863 64.1599 368.034 64.6959 369.432C67.1133 369.14 66.4119 368.284 68.4122 368.79C66.9304 368.251 65.6503 363.416 63.2508 363.398L63.3295 363.964C61.0166 362.838 56.7509 365.338 56.8841 360.448L56.765 358.251C56.6938 358.447 56.4549 358.582 56.3659 358.739C54.4828 356.345 53.0742 358.302 52.6785 354.517C52.5869 354.768 52.5564 354.852 52.475 355.076C50.4773 354.127 51.2328 351.268 50.8112 349.816C48.9429 349.991 49.568 350.884 48.8789 351.994C46.4036 349.574 46.9155 344.948 47.5693 342.02L45.6098 340.705C45.6833 342.157 45.0575 344.399 43.9695 344.604C43.6444 343.409 44.4782 343.206 43.2329 341.93C42.4604 342.943 41.8227 344.052 41.336 345.229C37.938 343.169 44.1275 342.604 40.0352 342.191C39.4203 341.271 40.417 339.924 41.4542 339.162L39.0218 338.277C40.3209 337.23 39.1444 335.155 38.5957 333.531C39.0991 333.017 40.7436 333.806 40.5045 334.637C41.5417 333.875 41.2319 332.116 40.6551 331.177C37.4369 332.539 37.5935 324.713 34.7053 327.778C33.3337 322.846 30.5034 316.529 30.5905 312.983C29.2485 312.495 28.3338 310.484 27.4082 312.332C25.5686 308.687 28.1518 305.416 25.7911 302.246C25.2879 302.062 26.4237 303.9 25.3332 304.2C25.7074 301.17 22.1032 300.46 21.5524 296.492C21.7226 297.156 21.1455 297.611 20.8201 297.809C21.3692 297.692 21.3721 295.857 21.5452 294.685C21.0674 294.258 21.4179 295.557 20.9045 295.402C19.0557 292.251 18.1726 288.628 18.3647 284.98C18.4509 281.421 18.1533 277.863 17.4772 274.367C17.6052 275.161 17.4364 275.974 17.0031 276.652C16.5698 277.329 15.9022 277.823 15.1278 278.04L14.5716 276.001C15.5047 274.916 15.1237 273.353 15.6247 271.889C15.2054 271.736 14.5776 271.286 14.2089 272.038C10.9205 268.372 17.0598 264.812 14.9383 260.115C14.9383 260.115 14.1017 261.805 13.2371 263.485L11.5232 266.977L9.67551 265.703L8.13956 268.88C6.60711 267.436 9.19259 265.464 7.50733 265.484C7.10055 265.906 7.39777 266.742 6.48012 266.915C5.53231 265.43 6.76519 265.087 6.85439 263.885C5.5055 265.949 4.83087 268.381 4.92372 270.844C4.89271 273.366 5.33448 275.806 5.30361 277.631C5.10015 278.19 6.01803 276.973 6.34343 276.775C6.5592 278.183 7.81475 278.735 7.63135 280.631C6.49993 282.087 6.37325 280.173 6.04045 279.261C4.83298 279.708 5.00065 280.117 5.04874 281.116C6.67303 280.915 7.17016 286.162 9.51617 286.762C10.4963 291.9 5.03225 287.252 7.23763 291.98L9.58612 292.835C8.9557 296.347 9.35394 299.966 10.7329 303.257L10.545 302.555C11.1577 301.828 11.9049 302.385 12.4463 302.55C14.1794 304.574 12.8367 307.568 15.2285 308.217C14.6079 312.205 14.6819 316.27 15.4472 320.232C18.1467 319.948 15.5981 315.38 16.478 313.484L17.7306 316.219C16.9861 314.523 17.571 313.438 18.461 311.862C19.9831 314.031 18.2899 315.726 18.7469 318.298C19.2961 317.833 19.8298 317.933 20.3685 318.889L18.9576 319.895C18.9576 319.895 19.2371 319.997 19.5447 320.108L20.0297 322.343C20.2252 323.459 20.525 324.549 20.525 324.549C19.3787 324.132 18.0746 324.671 17.7291 323.532C18.7942 323.476 18.5478 322.5 18.0397 321.46C17.5208 322.886 16.6697 320.962 15.8994 321.252C16.8929 323.377 17.665 325.6 18.2036 327.884L19.8482 327.627C21.2027 329.387 21.4741 331.86 22.6101 333.001L23.1314 332.178C24.7577 334.321 25.1537 337.061 27.6597 338.353C27.2016 341.352 27.4144 344.596 26.7682 347.242C25.5376 349.232 32.6288 351.844 31.5935 355.646C31.8451 355.738 31.9219 353.264 32.095 352.093C33.2919 353.415 31.9239 355.956 34.0872 355.319C31.3731 352.336 35.6505 354.589 35.2722 352.584C36.1846 353.958 36.6981 355.559 36.7557 357.208C35.1498 354.661 34.8437 359.678 33.9852 356.643C33.866 358.135 34.0876 359.636 34.6334 361.03C35.1792 362.424 36.0348 363.676 37.1355 364.691C37.9033 364.147 38.4573 364.191 39.3621 364.836L38.8128 366.346C39.7658 367.294 38.6787 363.321 40.5745 365.246C40.1747 368.868 46.351 371.21 43.6406 374.656C46.2103 375.338 42.673 370.442 46.1755 371.78C46.3717 369.413 43.4335 368.439 44.8547 366.708C45.3704 368.511 46.6849 366.203 47.366 367.116L47.4621 369.462L47.1317 369.152C47.5173 372.964 51.3014 376.747 53.6722 380.238C54.2001 384.356 53.3503 388.257 56.2347 391.555C56.3774 389.77 59.5031 393.536 59.5241 389.997C61.6769 390.781 61.923 393.15 61.3027 393.81C59.9125 392.671 60.6596 393.576 59.3381 392.684C59.3461 393.456 59.5941 394.206 60.0476 394.83C60.5011 395.455 61.1376 395.923 61.869 396.169C61.4496 396.017 61.7928 395.857 62.0725 395.61C64.0092 396.726 61.8815 397.092 62.4913 398.549C64.0242 397.903 64.9971 400.885 66.5272 401.379L66.1809 404.419C66.5498 402.622 67.9015 405.52 69.1904 404.849C69.3679 406.623 68.849 408.745 70.656 410.131C70.585 408.934 72.8088 410.914 73.9096 409.89C77.4653 411.691 75.301 417.203 79.3678 418.208C79.4899 417.873 79.7392 416.665 80.733 417.154C81.0099 418.046 82.1612 418.971 82.6491 419.719C82.893 420.093 82.9692 420.405 82.7175 420.662C82.3825 422.893 82.6452 425.174 83.4787 427.271C82.1414 428.336 80.6829 426.254 80.3425 424.927L81.0139 423.081C78.5252 424.265 79.4283 420.826 78.3327 420.966C77.4017 424.395 81.6154 427.606 82.6137 431.04C79.5532 431.446 76.2951 428.741 73.9521 425.957L75.7948 426.375L74.4962 424.984L77.0737 425.035C75.8607 423.902 74.7119 422.702 73.6327 421.44C74.9313 422.831 77.1176 421.695 76.134 421.179C73.4422 420.833 75.3693 418.843 74.213 417.757C74.9323 418.304 75.776 419.118 75.9592 417.918C72.294 417.027 72.579 415.548 69.0485 414.897C71.4001 413.22 66.9139 412.062 68.2564 410.113L69.3442 410.952L68.7399 407.566C65.2678 407.189 68.5461 410.883 64.6345 409.017C61.9559 406.459 64.2185 404.591 62.5032 402.257C62.1722 403.326 62.1284 404.462 62.3763 405.553C62.6242 406.643 63.155 407.65 63.9153 408.47L62.3776 407.91C62.1562 409.128 64.4942 411.403 65.6683 412.527C65.2877 409.223 66.9824 413.005 68.8761 412.934C67.8438 414.205 66.8477 412.766 67.2717 415.168C66.3375 413.909 65.1638 412.848 63.818 412.044C67.9148 415.402 62.7972 419.461 67.0238 421.853C66.0532 419.822 69.2558 420.766 69.9905 420.4C70.7416 421.475 71.385 422.621 71.9114 423.822L69.6972 424.947C70.8583 427.586 75.086 424.755 75.5249 428.683C74.8028 429.971 73.263 427.068 73.4637 427.648C75.3464 431.784 79.1849 430.109 83.1118 431.411C82.325 432.433 81.8737 433.674 81.8198 434.962C82.5242 433.635 83.7062 433.781 83.3684 432.011C84.6825 432.49 85.0304 434.231 85.3199 435.349C82.8495 434.134 84.7043 437.563 84.4804 438.526C85.6267 439.292 84.9789 437.156 84.8037 436.333C85.8941 436.73 88.2149 436.181 87.2944 438.189C88.3494 437.116 87.8063 433.215 86.5331 431.58L87.6794 432.345C87.5423 431.156 87.278 431.186 86.1318 430.421C86.8046 430.486 87.4796 430.32 88.0456 429.951C88.6117 429.581 89.035 429.03 89.246 428.388C89.0223 428.307 89.1137 428.751 88.7934 428.761C87.731 428.375 87.4363 427.444 88.1914 427.023C88.9442 424.954 90.1079 427.15 91.3839 426.95L92.2682 428.348C92.2682 428.348 92.1636 430.463 92.0767 432.616L91.9233 436.866C93.2015 439.009 95.0292 438.597 97.0117 439.065L96.2336 440.682C97.9313 441.933 99.7333 442.81 100.179 440.281C99.754 440.665 99.6296 440.398 99.2407 440.161C99.3553 439.984 99.4283 439.783 99.4543 439.574L99.5561 439.295C100.842 441.155 101.609 442.353 101.569 442.465C100.446 438.067 103.509 440.005 105.052 437.242L106.099 438.889L107.194 440.491C104.874 439.646 106.195 441.584 106.502 442.392C107.776 441.241 108.942 444.388 109.979 445.018L110.111 444.655C111.674 445.276 112.992 446.389 113.865 447.825C113.338 449.701 112.998 451.624 112.852 453.567C110.4 452.39 111.195 453.946 110.376 454.629C110.628 454.721 111.075 454.884 110.943 455.247C110.811 455.61 110.119 455.422 109.723 455.816C108.02 453.36 105.959 451.281 106.593 448.757C107.927 448.483 107.034 450.501 108.247 450.562C108.202 448.424 106.636 447.506 104.791 446.138L103.278 446.728L101.952 444.63C102.211 445.833 100.798 446.585 102.508 448.41C101.394 449.208 100.787 446.613 99.3564 445.934L100.069 443.977C99.6922 445.011 97.0491 442.878 97.7933 445.618L98.6851 447.431L99.6328 449.264L97.9577 449.604L100.265 451.963L100.337 450.723C103.457 455.024 103.926 448.863 106.492 453.818C106.266 456.616 107.452 457.966 110.281 459.502C108.787 457.692 111.11 458.094 111.349 456.566C113.797 457.235 113.235 459.215 113.659 460.573C114.889 459.976 115.845 459.437 114.069 458.316C115.465 456.133 115.99 460.344 117.747 458.388C123.158 462.573 116.893 468.651 125.543 470.722L125.919 469.688C129.385 473.735 132.451 474.534 135.993 477.849L140.648 477.675C140.18 476.871 139.372 474.045 141.017 473.44C137.989 474.713 136.871 472.913 134.479 472.961C134.734 472.262 135.646 472.277 136.178 472.122C135.217 471.456 134.022 472.13 132.99 470.963C133.369 470.531 135.146 470.956 134.279 469.944L131.593 470.106C129.745 467.787 132.796 466.016 129.659 464.717C129.278 466.287 129.031 468.794 129.887 469.834C128.405 469.294 131.02 471.766 129.236 471.623C128.718 468.522 126.888 469.375 125.272 466.508C125.353 466.981 125.182 467.362 125.686 467.893L123.645 467.151C122.61 466.774 121.604 466.408 121.604 466.408C123.205 466.009 119.632 463.126 121.155 461.812C125.191 463.946 123.483 464.116 128.246 466.165C127.265 464.399 126.948 462.341 127.35 460.362C127.249 460.352 127.153 460.317 127.07 460.26C127.586 458.232 128.507 458.314 130.5 455.62C130.908 458.934 133.339 458.172 134.744 460.836C134.093 462.626 132.1 461.837 131.267 460.648L132.519 463.035L132.621 462.059L137.857 465.072C136.982 464.342 137.257 463.239 137.247 462.222C138.045 462.586 138.919 462.752 139.794 462.706C138.665 464.068 137.994 465.217 138.777 465.501C140.017 466.3 141.427 466.796 142.894 466.95C144.361 467.105 145.844 466.913 147.223 466.39L147.533 466.756C145.987 467.872 148.041 470.93 148.043 473.274C148.999 471.69 150.325 473.439 151.751 473.262C151.332 474.381 150.673 475.395 149.822 476.234C148.97 477.072 147.945 477.714 146.819 478.116C145.633 475.025 146.614 475.635 147.072 472.636L144.551 468.774L144.414 470.718C142.207 470.169 141.771 467.192 140.665 469.101C140.784 470.949 142.837 471.221 142.918 473.087L141.302 473.006C142.176 476.173 143.524 471.946 145.213 474.872C143.248 475.835 145.376 475.121 145.77 476.911C144.155 477.431 141.589 473.522 140.6 476.676C141.156 478.715 147.015 476.446 147.108 480.279L147.18 480.083C148.116 480.538 148.909 481.242 149.473 482.117C150.037 482.992 150.349 484.005 150.376 485.046C152.057 484.865 152.816 487.041 154.026 487.893L154.341 487.027L155.866 488.405C155.91 486.457 153.828 487.22 152.455 486.119L153.518 484.764C150.76 485.47 151.302 482.153 150.728 480.076C151.838 482.507 156.353 482.978 155.043 486.142L157.135 485.352L157.374 486.262C158.952 485.665 159.062 483.362 157.565 481.994C157.052 482.187 156.795 482.284 156.701 482.63C156.289 481.498 156.285 479.945 154.152 479.106L154.716 480.514C152.259 479.177 150.436 477.311 150.584 475.338C154.185 476.832 157.65 478.633 160.941 480.722C160.356 484.069 159.574 487.379 158.601 490.634C160.455 492.834 163.08 494.243 165.938 494.571L166.193 493.872C166.711 493.957 167.206 494.148 167.647 494.434C168.088 494.72 168.465 495.093 168.754 495.532C170.239 495.281 168.989 493.496 169.932 493.428L172.575 496.257C173.144 494.692 170.511 493.227 169.225 492.411C169.388 492.66 169.769 493.178 169.512 493.275C167.664 493.046 166.308 488.943 164.46 490.803C163.916 490.035 165.064 493.144 162.548 491.881C160.415 491.738 160.944 489.588 161.143 488.868C161.341 488.149 164.353 489.182 163.998 487.722C165.218 488.546 165.154 489.853 167.22 490.003C166 489.179 165.289 486.609 163.835 487.473C162.191 484.596 164.802 480.987 166.022 481.462C165.071 482.509 169.707 485.431 165.564 485.158C166.168 487.499 168.857 488.984 170.242 491.008L170.364 490.672L172.558 492.388C172.471 491.756 171.928 490.988 172.355 490.162L174.497 494.107C173.445 491.603 176.182 493.739 177.412 493.49C177.11 494.931 177.989 496.518 176.283 496.593C174.578 496.669 175.767 495.488 174.565 494.702L175.36 497.651L175.599 497.516L175.906 499.717C178.501 500.852 176.731 495.363 179.137 498.582L177.614 500.592C181.584 502.037 187.55 502.086 189.748 504.311C189.637 503.422 189.773 502.52 190.143 501.705C190.512 500.889 191.1 500.192 191.841 499.69C190.003 499.287 188.272 498.496 186.766 497.368C186.26 497.627 187.512 501.059 189.495 501.527C186.845 504.806 186.095 497.124 184.086 500.731C178.898 499.761 182.506 495.502 177.577 495.735C178.365 494.09 176.917 494.418 177.476 492.88C180.003 490.634 182.478 495.492 185.416 495.769C185.254 495.52 184.89 495.04 184.956 494.684C185.673 494.781 186.358 495.042 186.958 495.446C187.557 495.851 188.055 496.389 188.413 497.018L188.146 497.142C189.541 499.834 190.073 496.545 191.583 496.398C191.984 496.861 193.959 497.263 193.112 498.285L196.196 497.729L195.214 499.556C196.485 500.24 197.334 499.124 197.929 500.797L197.298 502.53L193.755 501.653C195.188 502.934 193.48 503.452 195.17 504.637C193.956 501.884 197.051 504.34 197.939 502.858L198.856 504.427L198.731 503.812C200.173 503.418 199.725 504.996 201.034 505.314C199.181 505.622 197.701 506.381 196.345 504.368C197.386 505.955 198.684 507.358 200.184 508.52C201.295 509.905 202.853 509.016 204.312 509.357C202.007 507.6 207.33 504.629 201.721 503.601C201.734 503.672 201.766 503.738 201.813 503.792C201.86 503.847 201.92 503.889 201.987 503.913C202.055 503.938 202.127 503.945 202.198 503.933C202.269 503.921 202.336 503.891 202.392 503.846C200.787 505.731 199.421 502.353 198.666 501.034C199.515 499.918 198.511 499.109 200.728 499.283C199.754 499.783 201.22 502.628 203.452 502.585L204.273 499.718L205.671 500.227L207.041 500.725L206.79 500.634C208.511 499.297 209.433 502.07 211.83 501.834C212.778 503.319 218.296 504.599 214.958 506.55C217.312 505.475 217.96 508.307 219.711 509.324L218.333 509.456L216.966 509.56C219.029 512.59 218.668 510.971 219.814 514.871C220.312 514.197 221.039 513.765 220.849 512.809C224.677 513.949 230.276 515.005 231.803 518.03C234.543 518.679 235.891 515.497 239.355 517.897C240.044 518.527 237.962 520.334 240.74 520.269C240.821 520.045 238.905 517.48 241.625 518.533C243.02 521.225 246.579 518.752 248.754 521.127C250.338 520.69 252.658 521.534 252.455 519.656C250.191 519.528 247.189 518.468 246.864 517.621C246.899 518.742 245.069 518.203 246.457 519.436C242.842 519.799 244.629 517.758 241.447 517.803C241.457 517.079 243.463 516.352 243.931 517.156C244.587 514.83 238.603 514.394 241.888 512.328C245.004 512.987 244.609 518.162 247.96 516.437C247.253 514.724 245.164 515.42 244.572 512.608L247.028 512.299L248.156 514.419L248.268 514.111C252.734 512.887 251.228 517.373 254.514 519.392C252.064 520.558 254.033 523.586 252.218 524.224C254.567 525.078 256.417 525.213 256.982 522.791C252.969 519.811 257.277 520.239 253.773 516.906C254.619 516.232 253.646 513.251 256.076 513.533C258.394 515.865 254.823 515.325 257.344 516.749C257.45 516.657 257.53 516.539 257.578 516.407C257.626 516.275 257.64 516.133 257.619 515.994C258.595 517.489 259.185 515.867 260.389 517.604L260.122 517.032C262.296 516.018 261.805 519.195 263.759 517.912C262.755 519.541 264.562 519.534 265.355 520.835C263.586 521.173 262.126 523.618 258.886 522.692C258.795 521.203 259.191 520.461 258.022 519.497L260.063 520.24C259.649 519.899 259.397 519.459 259.021 519.101L256.85 519.324C259.206 520.941 257.696 522.133 258.385 523.808C260.909 523.745 260.253 524.678 261.867 524.505C262.139 522.451 267.19 521.883 270.108 521.172C269.666 521.169 269.115 521.032 268.832 521.024C267.089 519.377 270.5 519.573 270.676 519.004L271.921 520.28C271.641 520.178 271.395 519.55 272.058 519.38C273.932 520.062 273.461 522.139 275.352 522.858C275.738 521.796 274.326 519.762 275.635 519.384C276.197 518.448 277.926 516.133 280.338 517.422C280.457 517.877 281.097 518.205 281.842 518.508C281.732 518.496 281.627 518.458 281.535 518.396L283.398 517.364C282.242 515.234 280.353 517.903 279.148 515.818L279.311 513.978C278.67 513.832 278.067 513.548 277.547 513.145C277.026 512.742 276.6 512.231 276.297 511.646C278.01 511.636 278.254 512.358 280.133 512.852C280.55 511.706 279.373 510.676 279.198 510.549L279.319 511.606C276.841 512.762 276.249 509.254 273.42 509.112C273.057 508.979 273.349 509.307 273.227 509.643C271.301 507.454 268.639 509.461 266.906 506.741L267.432 507.819C265.235 505.988 263.146 504.033 261.173 501.964L261.417 501.293C261.831 500.937 260.736 500.728 260.131 500.825C258.949 499.635 257.793 498.549 256.819 497.657C257.25 497.291 257.795 497.087 258.36 497.078C258.588 498.016 261.217 497.927 260.555 499.745C262.009 498.881 263.603 500.854 264.602 500.457C262.744 501.301 265.308 502.519 265.382 503.622C266.182 502.552 267.776 504.177 267.896 502.542C268.282 502.176 266.902 503.447 266.376 502.369C265.014 500.544 269.812 501.625 267.952 499.777C270.514 501.437 273.994 501.532 276.489 503.548L274.832 503.926C276.103 503.914 278.978 504.802 279.308 504.067C278.414 503.742 277.407 503.375 276.261 502.958C276.518 501.121 279.209 503.556 279.382 502.384C279.382 502.384 280.081 503.335 280.821 504.174L282.307 505.918L280.795 505.811C281.58 507.047 284.928 506.112 287.289 506.148C286.299 503.476 283.802 505.639 281.606 504.365C279.982 503.173 283.071 502.08 281.505 501.162C281.66 501.041 281.839 500.954 282.029 500.907C282.22 500.859 282.419 500.852 282.613 500.887C282.806 500.922 282.99 500.997 283.153 501.107C283.315 501.218 283.453 501.361 283.556 501.529L284.291 501.163C283.115 498.74 279.754 498.752 277.937 496.35C278.096 496.607 278.185 496.902 278.196 497.204C277.358 497.467 276.472 497.542 275.601 497.422C274.73 497.303 273.897 496.992 273.161 496.511C274.183 495.965 274.422 496.527 274.864 496.878C275.068 496.319 273.548 495.797 273.088 495.06C274.707 494.699 273.556 493.774 274.633 493.596C274.216 493.296 273.743 493.081 273.243 492.964C272.742 492.847 272.223 492.83 271.715 492.914C270.943 493.646 272.01 494.193 271.651 495.266C270.584 494.371 269.46 496.938 267.923 495.334C270.408 495.288 267.765 492.807 267.123 491.876L267.486 492.009C267.019 490.509 266.393 490.313 265.641 491.337C266.505 492.095 267.486 492.009 266.955 493.208C266.255 493.038 265.606 492.704 265.061 492.234L265.511 493.348L262.407 492.219C261.926 490.458 261.606 488.656 261.453 486.837C260.431 487.732 259.605 486.608 259.02 485.952L259.231 486.504C257.594 487.175 254.737 485.629 254.768 484.5C253.469 485.199 260.114 492.777 253.28 490.069C250.591 489.28 252.498 486.302 251.316 484.764C251.324 484.959 251.255 485.15 251.123 485.295C249.921 485.206 250.134 483.922 249.347 483.129C250.183 482.832 251.164 483.094 251.375 483.645C251.395 482.196 248.953 483.08 248.386 481.766C248.904 484.171 245.925 481.916 246.482 483.258C245.304 483.429 244.105 483.15 243.123 482.476C242.142 481.802 241.451 480.783 241.188 479.622C238.788 481.693 238.494 478.325 235.754 478.721C236.117 478.853 236.714 479.387 237.347 479.301C238.193 481.413 234.477 479.27 236.157 481.527C235.773 481.103 236.473 480.661 236.8 481.065C237.128 481.469 238.135 482.532 237.664 483.215L235.112 483.965L235.696 484.621L231.878 485.543C231.99 485.235 232.367 484.897 232.588 484.724C228.605 484.446 224.904 481.739 221.684 480.757C222.897 475.943 214.73 475.852 213.521 471.866C213.618 473.57 213.149 475.258 212.186 476.668C212.664 477.095 213.014 479.438 214.31 479.53C214.826 478.895 216.733 478.702 216.07 477.479C219.407 479.358 214.788 479.261 215.126 481.378C211.341 479.336 210.277 475.561 208.31 473.484L208.117 474.016L206.745 472.218C208.354 472.582 209.439 470.033 207.124 470.045L207.348 470.126C205.779 470.695 204.051 468.484 202.338 467.797L201.904 465.771C200.142 465.13 198.762 467.794 197.521 469.115C194.725 468.098 194.319 465.037 193.165 462.813C191.704 463.611 187.708 461.714 189.004 464.243C187.185 461.935 191.006 456.044 185.203 457.288L185.637 458.966C181.906 456.69 177.891 451.367 175.685 451.513C174.728 456.231 168.633 452.62 165.577 455.972C166.294 455.22 165.064 454.076 165.156 453.476C164.594 453.715 163.801 453.806 163.766 452.685C165.69 452.879 165.226 448.151 166.999 451.456C167.254 447.971 166.785 444.824 163.747 442.991L162.763 444.564L165.559 445.581C164.601 446.562 165.861 447.274 166.016 448.154C161.037 446.089 164.269 452.172 159.799 449.057C160.023 447.746 160.053 448.358 159.098 447.156C159.226 447.287 159.298 447.463 159.296 447.647C159.295 447.83 159.221 448.006 159.09 448.135C158.959 448.263 158.782 448.335 158.599 448.333C158.415 448.332 158.24 448.258 158.111 448.127L158.066 446.337C154.73 447.846 159.572 449.767 157.025 450.676C157.996 453.055 160.69 455.745 158.811 457.341C155.4 456.1 158.611 451.886 154.877 450.749L153.985 451.374C153.276 450.103 154.031 448.637 153.988 447.45C153.794 447.687 153.518 447.844 153.215 447.892C152.912 447.939 152.601 447.873 152.344 447.706C151.74 445.175 151.267 442.614 150.924 440.035C154.121 444.649 155.55 441.243 159.121 445.613C158.821 444.523 155.964 441.932 157.259 439.68L156.257 441.215C155.94 440.267 155.434 439.393 154.77 438.645C154.107 437.897 153.298 437.292 152.394 436.865L152.849 438.487C151.248 435.752 147.282 437.949 147.217 434.127C147.847 434.369 148.376 434.818 148.716 435.4C147.806 433.953 146.469 432.825 144.889 432.171L144.089 427.67C143.56 428.427 141.835 427.166 141.748 428.971C138.972 428.594 139.766 425.717 138.96 424.537C135.788 424.554 140.111 426.507 138.726 428.662C137.254 428.082 135.942 427.16 134.899 425.971C133.856 424.781 133.112 423.361 132.728 421.826C133.455 422.091 133.948 421.953 134.213 421.575C133.76 421.948 132.759 421.046 132.2 420.494L132.647 419.264C131.166 419.073 130.838 419.713 131.091 421.104C130.006 420.519 130.403 417.687 128.268 418.335C128.964 420.773 131.796 421.518 132.088 422.891C129.478 419.187 126.279 422.93 123.06 418.118C122.635 418.502 122.604 419.979 121.786 419.269C120.203 417.268 122.941 416.967 123.18 415.439C124.1 417.262 125.246 417.331 127.066 416.853L127.432 415.847C127.056 416.185 126.146 415.379 125.549 415.541L126.215 413.884C124.888 415.617 122.402 415.662 121.769 414.008C123.968 413.795 123.597 413.596 125.654 412.033C125.665 408.871 122.42 412.218 122.289 408.751C122.035 409.45 123.117 411.174 121.435 410.403C120.283 409.478 121.557 408.327 121.25 407.17C120.835 409.267 119.711 410.093 119.296 412.538C121.126 414.47 120.087 413.237 121.38 415.512L118.724 415.242C120.193 416.948 118.558 417.873 118.22 418.542C114.092 417.356 117.906 414.533 115.748 413.241C115.71 411.518 117.641 414.563 117.146 412.357C115.253 411.035 117.594 411.127 116.178 408.839L115.863 409.706C114.528 409.98 114.89 408.465 114.374 407.707C113.858 406.95 119.524 403.819 116.686 400.919C116.563 401.262 116.383 401.582 116.152 401.864C116.152 401.864 114.24 405.379 112.31 408.856L108.541 415.906C105.103 412.611 101.354 409.656 97.3461 407.084C94.3642 408.405 98.0951 411.377 96.946 412.099L99.0326 413.238C99.8411 412.234 95.8738 409.651 98.947 409.471C101.178 412.91 103.516 413.096 104.405 417.789C101.497 419.169 101.15 413.945 97.726 413.871C98.5154 414.451 99.0835 415.283 99.337 416.23L93.0366 411.879L93.1284 410.931C94.0046 411.595 94.9326 412.186 95.9037 412.701C95.4634 412.378 95.0948 411.967 94.821 411.494C94.5472 411.022 94.3743 410.497 94.3131 409.955C94.2518 409.412 94.3036 408.862 94.4651 408.341C94.6266 407.819 94.8944 407.336 95.2516 406.923L95.6151 407.055L95.5416 405.952L93.8997 405.07ZM14.6072 276.077C14.419 276.289 14.1942 276.464 13.9436 276.596C14.208 276.565 14.4647 276.469 14.6072 276.077Z" fill="#8D4139"/>
<path d="M16.6139 268.735C16.7752 268.68 16.9245 268.595 17.0537 268.484C16.9203 268.589 16.7721 268.674 16.6139 268.735Z" fill="#360015"/>
<path d="M17.054 268.483C17.7049 267.739 16.2056 266.117 17.2047 265.372L16.8615 265.532L17.3498 264.19C17.5225 265.108 17.9922 267.558 17.054 268.483Z" fill="#360015"/>
<path d="M59.8613 295.014L59.3224 295.103L60.502 294.297L59.8613 295.014Z" fill="#360015"/>
<path d="M54.8336 296.825L55.0777 296.154C56.8314 295.058 58.6989 294.156 60.6475 293.463C59.8091 294.429 58.8243 295.256 57.7289 295.916C57.8001 295.72 59.0611 294.691 58.5222 294.78C57.5434 295.468 57.7748 295.616 56.4884 296.541C55.2174 296.901 57.2612 295.809 56.5749 295.781L54.8336 296.825Z" fill="#8E423D"/>
<path d="M58.3091 294.322C57.6862 294.729 57.1015 295.118 56.5753 295.433C57.1047 294.992 57.6872 294.619 58.3091 294.322V294.322Z" fill="#360015"/>
<path d="M58.5559 293.906C58.3043 293.814 57.2544 294.699 57.0256 294.805L59.2246 293.199L58.5559 293.906Z" fill="#360015"/>
<path d="M57.9639 293.184C57.9824 293.096 58.0133 293.011 58.0555 292.932C58.5512 292.701 58.2232 292.993 57.9639 293.184Z" fill="#360015"/>
<path d="M58.0466 292.517C58.9134 292.136 58.438 292.66 58.1685 292.878C57.4084 293.14 55.8068 294.235 56.3736 294.157C56.2109 294.604 57.7159 293.6 56.7651 294.299L55.3009 294.843C55.1281 294.622 57.4186 293.112 58.0466 292.517Z" fill="#8E423D"/>
<path d="M57.9639 293.184C57.9284 293.233 57.9072 293.291 57.9028 293.351C57.608 293.466 57.7808 293.339 57.9639 293.184Z" fill="#360015"/>
<path d="M58.3989 293.468L58.0989 293.771L57.382 294.175L58.3989 293.468Z" fill="#360015"/>
<path d="M57.7729 291.88C55.5536 293.193 58.3321 292.083 56.5678 293.277C56.5018 292.937 54.7122 293.679 53.5148 294.446L54.0614 293.727C55.2328 292.987 56.4764 292.368 57.7729 291.88V291.88Z" fill="#8E423D"/>
<path d="M54.8093 290.801L52.8644 292.753C53.4472 292.449 53.9888 292.071 54.4761 291.63C54.9514 291.803 53.5176 292.611 53.8811 292.743C56.0571 291.635 53.7922 292.204 55.7929 291.318C55.7318 291.485 55.8639 291.818 54.1378 292.995L55.7519 292.474L53.3573 293.661C52.5972 293.922 55.0479 292.408 53.4997 293.269C52.9834 293.481 52.5257 293.814 52.165 294.24C52.5439 293.808 50.0349 294.7 50.1163 294.128C50.1978 293.556 53.7974 291.668 54.8093 290.801Z" fill="#8E423D"/>
<path d="M52.1755 292.122L51.24 292.605L52.4907 291.952L52.1755 292.122Z" fill="#360015"/>
<path d="M54.8366 289.766L53.573 290.889C53.7408 290.95 54.2874 290.579 54.7348 290.394L52.8612 291.454C50.614 292.409 53.1766 290.587 53.5808 290.259C52.32 290.244 52.4063 290.877 50.2659 291.712C50.4337 291.773 50.9471 291.58 51.1886 291.7C48.5754 292.617 50.566 291.062 51.0694 290.548C51.2651 290.62 51.9922 290.188 51.8549 290.391L52.4726 289.824C54.2876 289.187 54.8443 289.136 54.8366 289.766Z" fill="#8E423D"/>
<path d="M55.1667 290.424C55.248 290.201 55.0269 290.374 54.8032 290.292C55.3726 290.12 55.82 289.934 55.1667 290.424Z" fill="#360015"/>
<path d="M51.0928 290.399C51.0928 290.399 51.0928 290.399 51.042 290.538C50.9912 290.678 50.7984 290.513 51.0928 290.399Z" fill="#360015"/>
<path d="M53.7563 289.341L53.3929 289.209L54.458 288.805C54.2718 289.039 54.0308 289.223 53.7563 289.341Z" fill="#360015"/>
<path d="M45.8485 280.449C46.7891 280.126 47.2898 280.055 47.1881 280.335C48.4159 279.832 48.0347 279.661 48.6855 279.265C49.3362 278.868 50.1217 278.711 51.3648 278.34C51.6113 278.62 50.0479 279.349 50.5232 279.522C50.9475 279.347 51.3822 279.199 51.8247 279.077C51.2323 279.748 50.3552 280.854 51.5702 280.821C52.1573 281.035 51.7302 281.512 51.3462 282.132C52.5127 283.19 51.8387 285.129 53.5441 286.098L51.3172 287.346C52.4967 286.889 51.4391 287.707 52.9466 286.957C52.606 287.023 52.8068 286.906 52.8119 286.718C54.965 286.109 52.9948 287.608 53.9454 287.606C52.9882 287.974 52.0631 288.421 51.1796 288.942C53.6989 287.674 51.3549 289.417 54.3469 288.068C55.2595 288.084 52.1048 289.184 52.7402 289.352C51.2505 290.139 51.7896 289.354 50.6278 289.849C49.4661 290.345 51.2709 290.083 49.7482 290.701C48.6858 290.314 51.1646 287.765 51.6809 286.433L50.2954 287.196C51.1217 286.23 50.9261 285.462 48.3308 286.069C49.7569 285.543 47.2963 285.693 50.4663 284.377C49.6706 284.562 49.7952 284.481 49.4393 284.415L50.413 283.914C50.3063 283.685 48.781 284.397 48.7531 284.038C49.7541 283.765 50.7037 283.33 51.5647 282.75C49.9379 283.045 48.4559 283.202 47.1138 283.41C47.6266 283.223 48.1494 283.065 48.6797 282.935C48.1052 282.948 49.455 282.457 49.8567 282.224C50.2583 281.99 48.1205 282.732 47.2257 283.103C46.5826 282.869 49.8212 281.451 48.6113 281.644L50.045 281.184C50.2281 280.681 48.5733 280.965 48.8708 280.409C46.8702 280.947 47.348 281.374 46.6006 281.862C46.1687 281.851 45.7372 281.896 45.3169 281.997C46.1991 281.399 47.4346 280.614 48.2964 280.073C46.1508 281.097 46.0442 280.52 45.8485 280.449Z" fill="#8E423D"/>
<path d="M45.3267 281.969L44.6098 282.373C44.6098 282.373 44.6912 282.149 44.681 282.177C44.8908 282.092 45.1066 282.022 45.3267 281.969V281.969Z" fill="#360015"/>
<path d="M45.4976 283.677L47.1245 283.383C46.6209 283.632 46.0569 283.735 45.4976 283.677V283.677Z" fill="#360015"/>
<path d="M48.0811 285.535C47.9997 285.759 47.4226 285.865 47.021 286.099C46.6193 286.333 47.3134 285.73 48.0811 285.535Z" fill="#360015"/>
<path d="M44.7804 281.643L45.0855 281.152L45.4033 280.888L44.7804 281.643Z" fill="#360015"/>
<path d="M49.9732 272.769C51.7601 272.469 50.8958 273.104 51.2923 273.407C50.5804 274.319 47.6317 274.766 47.5579 275.404L51.1777 274.157C51.1319 274.805 52.1053 275.349 49.2199 276.927C49.731 276.841 50.2232 276.667 50.674 276.411C50.5316 276.803 45.7551 278.357 47.0692 278.487C49.0801 277.224 49.174 277.923 51.3576 276.882L51.5788 276.709C51.4364 277.1 50.4907 277.959 50.7219 278.107C49.8373 278.45 48.3884 278.777 48.3985 279.098C47.6783 279.251 46.9775 279.485 46.3089 279.794C47.1555 279.12 46.5226 279.206 47.575 278.576C46.3345 278.853 47.2572 278.841 46.0269 279.089L47.0133 278.467C46.6778 278.345 45.8769 279.067 45.572 278.861C46.238 278.596 46.8914 278.106 46.6702 277.93L46.3067 278.146C46.7109 277.819 46.0348 277.763 48.0277 277.158L46.0374 277.669L47.377 277.206C46.6781 276.952 43.4624 277.871 44.9344 276.697C45.4209 276.626 45.8821 276.434 46.2766 276.141C47.2756 276.093 45.364 276.822 45.2622 277.102C46.5917 276.667 48.0662 275.747 48.9228 275.742C47.2604 275.961 48.9407 275.084 45.6285 276.095C45.2701 275.775 46.8513 275.084 46.0252 275.005L45.5499 275.18C47.7081 274.382 44.467 275.198 46.6126 274.174L47.1666 274.217C48.0691 273.912 48.0818 273.79 48.181 273.605C47.9331 273.714 47.6714 273.789 47.4031 273.828C48.188 273.533 48.9139 273.1 49.5462 272.55C49.8817 272.672 48.6411 273.297 48.2928 273.645C48.9029 273.361 50.3188 272.863 49.9732 272.769Z" fill="#8E423D"/>
<path d="M45.4191 278.583L46.1538 278.217C45.927 278.373 45.6797 278.496 45.4191 278.583Z" fill="#360015"/>
<path d="M46.6424 271.999C46.223 271.847 45.3027 272.462 44.53 272.497C45.5443 271.885 46.8762 272.053 48.4498 271.296C47.4483 271.438 49.0498 270.691 49.0524 270.597C47.8943 271.026 46.7088 271.378 45.5037 271.648C46.0757 271.382 44.9725 271.455 44.8327 271.404C46.2917 271.397 45.5064 270.858 47.0621 270.759C48.6177 270.66 49.1517 269.715 48.1222 269.847C47.0927 269.979 47.4536 270.205 47.4409 270.327C45.7402 270.911 46.4242 270.337 44.8405 270.774C47.1106 269.669 46.5948 268.563 50.5501 267.786C51.3152 267.684 50.4484 268.065 50.3771 268.261C49.5053 268.134 48.3563 268.855 47.6623 269.109C48.341 269.071 47.2224 269.709 48.5621 269.247L49.917 268.568C50.9082 269.151 50.9893 270.32 50.7146 271.423L50.5265 271.07C49.9709 271.252 49.4616 271.552 49.0343 271.951L46.4389 272.558C46.6626 272.64 46.3372 272.838 47.2396 272.533C46.4223 272.916 45.5569 273.187 44.6671 273.338C44.3061 273.809 45.3102 273.572 43.7468 274.302C41.5023 274.466 45.3077 273.318 43.3123 273.32L46.6424 271.999Z" fill="#8E423D"/>
<path d="M45.6308 273.563L46.8408 273.022L46.2841 273.421L45.6308 273.563Z" fill="#360015"/>
<path d="M51.1069 271.566L49.7851 272.066C49.3555 271.942 50.1232 271.746 51.1069 271.566Z" fill="#360015"/>
<path d="M44.681 270.431L45.0319 269.989L45.5352 270.172C45.2377 270.208 44.9488 270.296 44.681 270.431V270.431Z" fill="#360015"/>
<path d="M50.6544 266.368C50.4713 266.871 49.3655 267.387 50.822 267.474C49.2307 268.193 47.6471 268.281 46.1422 268.937C45.6948 268.774 48.5393 268.004 49.002 267.603C47.5251 267.92 49.1648 267.156 48.8013 267.023C49.4333 266.847 50.0524 266.629 50.6544 266.368V266.368Z" fill="#8E423D"/>
<path d="M44.7423 266.432C44.7423 266.432 45.7592 265.726 44.9865 265.761C44.2137 265.797 43.7688 266.236 44.0408 266.272C41.9665 266.752 44.3128 265.959 42.8868 266.137C43.2286 266.092 43.565 266.013 43.8909 265.901C43.2809 265.489 45.5305 265.136 44.2876 264.81C44.8661 264.48 45.496 264.249 46.1509 264.127C44.3233 264.19 44.3843 264.371 42.8973 264.368C43.7031 264.154 45.5664 263.819 47.2721 263.395C44.6946 263.344 47.5365 262.668 45.5107 262.754C45.5107 262.754 45.015 262.986 45.3886 263.09C43.0017 263.646 45.7496 262.62 45.2159 262.52L43.1594 263.039C43.4492 262.764 44.6923 262.045 43.1087 262.134L42.1021 262.464C43.5206 261.524 42.6209 261.038 43.2794 260.359L41.9322 260.407C43.3432 259.401 42.8828 260.753 45.7731 259.684C41.9576 260.512 46.9196 259.056 45.3106 259.041C43.7016 259.025 44.6369 259.587 42.8423 259.82C44.787 259.262 43.3787 259.477 43.877 259.152C42.0569 259.63 43.5288 258.804 41.48 259.388L44.7389 257.914C43.6535 258.026 43.801 257.795 43.9841 257.64C44.0958 258.029 46.7141 256.924 47.6495 257.137C46.9122 257.945 46.551 259.112 47.6948 259.623C45.2188 260.337 47.8599 260.126 45.8288 260.749L48.1573 260.266C47.7454 260.876 46.749 260.482 45.8644 260.825C45.7321 261.189 47.1226 260.935 48.0326 260.696C48.2689 261.004 47.359 260.894 46.0651 261.405L48.8638 260.935C48.3755 262.277 46.8271 264.183 48.7155 264.997L46.9641 265.373C48.0265 265.759 43.4305 267.253 47.1773 266.875L45.769 267.439C46.5773 267.132 48.3643 266.832 49.4879 266.354C48.9617 266.669 49.6302 266.659 49.254 266.997L48.3796 266.964C46.9611 267.556 47.9219 267.526 49.1904 267.259C47.566 268.156 46.1908 267.846 44.7241 268.135C47.7289 266.664 41.4604 268.404 42.6552 267.382C43.8501 266.361 43.8501 266.709 44.7423 266.432Z" fill="#8E423D"/>
<path d="M49.6328 265.869L49.2032 266.092L49.6328 265.869Z" fill="#360015"/>
<path d="M43.7 257.378C43.7 257.378 43.7 257.378 43.7712 257.183C43.8424 256.987 43.9211 257.206 43.7 257.378Z" fill="#360015"/>
<path d="M48.8423 266.911L48.8074 266.929L48.8423 266.911Z" fill="#360015"/>
<path d="M44.7268 268.39L44.6175 268.255L45.4233 268.042L44.7268 268.39Z" fill="#360015"/>
<path d="M41.1348 256.16L42.0347 255.949L41.1348 256.16Z" fill="#360015"/>
<path d="M39.3575 240.253C40.0642 239.624 40.8946 239.15 41.7954 238.861L40.8676 239.062C41.9268 238.393 43.1536 238.038 44.4061 238.038L43.618 238.289C42.3394 238.932 45.2093 238.267 45.8625 238.473C45.4837 238.905 42.0723 239.753 42.9619 239.919C42.9009 240.086 43.8007 239.876 44.4922 239.716C44.8556 239.848 42.1713 240.612 41.8814 240.887C48.6837 239.594 40.1603 242.223 44.6773 241.904C44.1764 242.323 44.8652 242.606 43.5586 243.238C45.2389 242.71 43.7848 243.574 45.6989 243.099C41.7029 243.988 47.7398 243.842 42.6381 244.898C44.1657 245.137 42.3254 244.974 43.6446 245.264C44.2216 245.158 44.1962 245.053 44.3106 245C45.4112 245.021 42.1906 245.78 44.5418 245.496C45.0196 245.923 43.2047 245.864 41.9006 246.403C42.6276 246.667 43.2249 246.505 45.3932 246.375C42.9885 246.893 44.2009 246.955 43.0112 247.44C42.755 247.356 42.4844 247.323 42.2155 247.345C41.9466 247.367 41.6848 247.442 41.4454 247.567C41.9588 248.07 39.9558 248.354 39.4015 249.008C42.1188 248.762 39.3787 248.461 41.5698 248.53C42.762 247.951 42.5715 247.691 44.4881 247.122C44.7117 247.552 44.4117 248.203 43.3948 248.909C43.8142 249.062 44.6098 248.528 44.9352 248.678C46.1984 248.948 42.3676 249.992 43.6156 250.129L44.9807 249.771C43.2038 250.391 45.5525 250.549 44.6398 251.23C44.0977 251.276 43.5619 251.378 43.0409 251.535C46.4777 250.791 41.3758 252.544 43.8999 252.481C41.7138 252.92 40.5469 253.603 40.3867 253.957C41.0095 253.898 41.9373 253.698 42.4864 253.581C41.1265 253.403 44.7996 252.618 45.7377 252.041C44.6497 252.595 45.9613 252.819 44.4106 253.426L46.0985 252.964C46.4466 253.312 42.3109 254.15 44.0215 254.234L45.2824 253.902C45.2949 254.824 47.7375 255.333 45.0937 256.683C44.0413 256.964 41.5324 257.16 40.747 257.317C41.5452 256.689 43.3323 256.042 44.1967 255.406L42.2368 255.833C43.5739 255.465 44.2857 254.901 45.4067 254.865C46.5277 254.83 43.6223 255.071 44.6518 254.59C42.5776 255.07 42.4301 255.302 40.7066 255.688L41.6422 255.205C40.8541 255.456 40.9177 255.195 40.1195 255.474C42.5294 254.42 39.0012 255.067 40.0308 254.239L40.4781 254.402C41.6246 254.122 41.4772 254.005 41.8026 253.807C41.0762 253.99 40.3154 253.985 39.5912 253.794C40.4402 253.375 42.4789 252.818 42.4027 252.506C40.214 253.039 41.1191 252.292 39.2101 252.579C41.3606 252.063 39.861 251.834 41.0837 251.519C41.4853 251.285 41.2261 251.128 40.0721 251.341L39.7085 251.557L39.2256 251.666C39.2256 251.666 40.7533 251.209 39.6324 251.244C39.0553 251.351 39.0705 251.483 38.8697 251.6C38.6689 251.717 42.0499 250.256 39.996 250.332C41.0526 249.81 42.1782 249.441 43.3388 249.237C42.4999 249.28 40.6723 249.692 40.9087 249.303C42.8254 248.734 40.1539 249.028 41.1834 248.548C39.2057 249.285 40.6064 248.654 38.7151 249.328C37.8687 249.305 40.4336 248.433 39.9711 248.138L38.4687 248.352C39.1348 248.087 40.7007 247.612 39.0586 247.775L40.4388 247.549C39.7119 247.284 40.0501 246.964 38.5097 246.847L41.0924 246.014C38.2277 246.143 40.6198 245.05 42.9382 244.247C42.5626 244.034 42.1188 243.974 41.7003 244.082L40.7775 244.443C40.5539 244.361 39.0517 244.226 41.2505 243.665C41.853 243.314 39.6847 243.792 39.2831 243.677C42.3056 242.592 36.7109 242.741 41.4187 241.637C41.5076 241.827 42.509 242.033 42.3564 242.453C42.9081 242.242 43.8715 242.117 43.9503 241.988C44.0291 241.858 42.3108 241.708 43.0125 241.172L40.0028 241.786C36.8179 241.925 43.8948 239.878 39.3575 240.253Z" fill="#8E423D"/>
<path d="M40.3459 245.108L38.7827 245.141L40.0689 244.913C39.896 245.04 39.9037 245.106 40.3459 245.108Z" fill="#360015"/>
<path d="M40.0989 244.829L40.709 244.544C40.709 244.544 40.709 244.544 40.4395 244.763L40.0989 244.829Z" fill="#360015"/>
<path d="M39.6539 239.094C39.6539 239.094 39.2904 238.962 39.5777 238.781C39.8649 238.601 40.0911 238.937 39.6539 239.094Z" fill="#360015"/>
<path d="M40.5027 238.58L40.9907 238.631L40.6399 238.725L40.5027 238.58Z" fill="#360015"/>
<path d="M41.545 230.063L43.2711 229.235C42.3458 229.341 43.3449 228.597 41.7689 229.1C43.8966 228.386 41.6699 228.241 44.8346 227.809C44.0768 229.37 46.26 230.766 43.766 232.834L44.9557 232.349C42.6246 233.622 47.9245 232.891 43.0997 234.491L45.5909 233.91C46.3737 234.195 42.0803 235.292 44.823 235.15L43.7833 235.31C43.7833 235.31 44.2306 235.473 44.2866 235.493L43.8239 235.546C42.8325 236.009 43.0079 236.136 43.7577 236.25C44.5075 236.365 44.0831 236.052 44.2839 235.935C45.1507 235.903 43.4603 236.459 43.4933 236.629C44.0109 236.633 44.5236 236.529 44.9981 236.322C44.0066 237.133 46.7036 236.942 43.0126 238.037C42.3389 238.235 41.7111 238.134 41.4111 238.436C40.1555 238.232 41.6858 237.681 42.5298 237.102C46.0785 236.05 41.6656 237.041 43.1553 236.253C41.6759 236.664 41.7546 236.883 40.9488 237.096C38.0307 237.111 42.9571 235.928 39.2866 236.27C38.9511 236.148 39.5866 235.967 39.9018 235.797C40.2687 235.776 40.6366 235.783 41.0024 235.818C41.8521 235.509 42.724 235.265 43.6105 235.089C41.9684 235.251 44.363 234.761 43.4988 234.7C41.9965 234.913 42.1693 235.134 41.3813 235.386L42.3447 234.913C42.4363 234.662 40.6671 234.999 39.8283 235.042C40.9315 234.621 40.6671 234.999 42.2609 234.534C40.3291 234.623 40.6344 233.436 42.002 232.636C41.9105 232.887 40.4006 233.034 40.6979 233.174C40.3624 233.052 41.0768 232.742 42.2308 232.529C43.3849 232.316 42.3403 231.619 41.2422 231.504L42.4039 231.357C44.3231 230.694 40.8433 230.948 41.8703 230.213C41.9619 229.962 44.8699 229.278 44.2065 229.1C43.3435 229.485 42.4541 229.806 41.545 230.063V230.063Z" fill="#8E423D"/>
<path d="M43.8211 227.726L42.245 228.229C41.8816 228.096 43.8567 227.454 44.9065 227.266C44.6193 227.446 45.3539 227.429 44.4337 227.695C44.2074 227.708 43.6202 227.842 43.8211 227.726Z" fill="#360015"/>
<path d="M43.2584 224.228C43.722 224.068 44.1937 223.934 44.6717 223.824C44.6411 224.605 44.1986 225.647 45.4975 225.644C46.0007 225.828 43.624 226.356 43.1511 226.785L44.7856 226.557C43.8145 226.963 45.6751 227.07 42.9629 227.477C42.7951 227.416 44.1882 227.068 43.7001 227.017L42.7901 227.255L42.9427 226.836L41.8318 227.192C40.1212 227.107 45.2025 226.107 44.0155 225.802L41.7049 226.322C41.5067 225.997 42.2414 225.631 40.7823 225.638C40.7823 225.638 41.9288 225.359 41.4814 225.544C42.0775 225.508 42.6676 225.404 43.2404 225.235C44.9233 224.264 41.8931 225.631 40.8713 225.481C42.3153 224.645 43.4594 223.415 41.5529 223.608C42.9866 223.496 44.3797 222.8 44.1789 222.569C43.4898 222.704 42.8179 222.916 42.1757 223.201C41.8962 223.099 41.2912 223.196 41.6166 222.998C42.886 222.823 44.1108 222.409 45.2263 221.778C47.064 222.035 42.9153 223.692 43.2584 224.228Z" fill="#8E423D"/>
<path d="M45.231 223.584C45.0927 223.72 44.9161 223.811 44.7251 223.843C44.7596 223.761 44.7901 223.677 44.8166 223.592L45.231 223.584Z" fill="#360015"/>
</g>
<path d="M-185.082 68.6736C-157.93 46.2599 -62.2899 96.1303 52.7048 191.478C50.4295 193.468 48.088 195.466 46.0922 197.557C-62.0984 104.653 -157.211 59.5972 -177.951 76.3972C-204.899 98.2517 -151.7 186.976 -61.3436 306.095C-30.725 346.459 20.9626 402.53 61.9082 445.923C114.264 501.635 165.149 543.642 210.745 581.477C327.407 678.508 407.031 713.053 431.908 690.888C444.843 679.353 421.999 604.048 342.864 500.03C343.96 498.845 345.056 497.661 346.075 496.512C431.343 604.472 472.954 686.669 446.871 708.236C419.228 731.041 325.157 692 200.395 592.085C144.739 547.11 91.9381 498.714 42.2975 447.177C1.67171 405.505 -36.7116 361.705 -72.6899 315.961C-169.169 192.524 -213.781 92.2968 -185.082 68.6736Z" fill="url(#paint3_linear_141_473)"/>
<path d="M421.347 679.193C402.496 695.066 301.719 644.783 234.007 589.941C188.195 552.787 128.995 501.961 75.2919 445.948C25.1516 393.543 -44.1586 312.031 -76.1874 268.844C-133.839 190.879 -169.315 100.086 -155.801 92.8779C-143.174 86.1064 -47.5929 125.001 40.7082 202.785C39.1498 204.37 37.6574 205.949 36.2133 207.481C-43.8638 149.121 -102.291 122.796 -115.889 129.974C-130.47 137.681 -117.613 185.702 -56.0986 266.276C-21.9095 311.009 26.0587 382.348 79.6327 436.542C136.869 494.505 201.18 548.077 244.203 584.628C313.709 643.763 360.555 656.408 380.937 639.636C395.756 627.362 381.559 579.455 333.824 508.866C335.484 507.349 337.078 505.839 338.655 504.291C385.566 575.404 435.073 667.661 421.347 679.193Z" fill="url(#paint4_linear_141_473)"/>
<path d="M-155.888 92.8471C-169.318 100.086 -133.892 191.018 -76.2411 268.983C-44.2529 312.283 25.098 393.682 75.2382 446.088C128.992 501.961 188.192 552.787 234.004 589.941C301.716 644.782 402.493 695.065 421.344 679.193C435.042 667.65 385.563 575.404 338.566 504.355C340.007 502.916 341.431 501.44 342.806 500.009C421.941 604.028 444.785 679.332 431.85 690.867C407.014 712.92 327.265 678.457 210.687 581.456C165.111 543.566 114.206 501.615 61.8503 445.902C20.8487 402.489 -30.8388 346.418 -61.4016 306.075C-151.786 186.945 -204.985 98.2207 -178.009 76.3764C-157.269 59.5764 -62.1564 104.632 46.0343 197.536C44.1885 199.303 42.4368 201.071 40.7614 202.805C-47.5957 125.001 -143.177 86.1061 -155.888 92.8471Z" fill="url(#paint5_linear_141_473)"/>
<path d="M-155.888 92.8471C-169.318 100.086 -133.892 191.018 -76.2411 268.983C-44.2529 312.283 25.098 393.682 75.2382 446.088C128.992 501.961 188.192 552.787 234.004 589.941C301.716 644.782 402.493 695.065 421.344 679.193C435.042 667.65 385.563 575.404 338.566 504.355C340.007 502.916 341.431 501.44 342.806 500.009C421.941 604.028 444.785 679.332 431.85 690.867C407.014 712.92 327.265 678.457 210.687 581.456C165.111 543.566 114.206 501.615 61.8503 445.902C20.8487 402.489 -30.8388 346.418 -61.4016 306.075C-151.786 186.945 -204.985 98.2207 -178.009 76.3764C-157.269 59.5764 -62.1564 104.632 46.0343 197.536C44.1885 199.303 42.4368 201.071 40.7614 202.805C-47.5957 125.001 -143.177 86.1061 -155.888 92.8471Z" fill="url(#paint6_linear_141_473)"/>
<defs>
<linearGradient id="paint0_linear_141_473" x1="354.748" y1="452.189" x2="-56.9281" y2="206.915" gradientUnits="userSpaceOnUse">
<stop stop-color="#0C1933"/>
<stop offset="0.54" stop-color="#766A83"/>
<stop offset="1" stop-color="#82748C"/>
</linearGradient>
<radialGradient id="paint1_radial_141_473" cx="0" cy="0" r="1" gradientUnits="userSpaceOnUse" gradientTransform="translate(207.705 430.982) rotate(-138.755) scale(299.746 299.745)">
<stop offset="0.73"/>
<stop offset="0.74" stop-color="#090909"/>
<stop offset="0.77" stop-color="#343434"/>
<stop offset="0.8" stop-color="#595959"/>
<stop offset="0.83" stop-color="#777777"/>
<stop offset="0.87" stop-color="#8E8E8E"/>
<stop offset="0.9" stop-color="#9E9E9E"/>
<stop offset="0.95" stop-color="#A8A8A8"/>
<stop offset="1" stop-color="#ABABAB"/>
</radialGradient>
<radialGradient id="paint2_radial_141_473" cx="0" cy="0" r="1" gradientUnits="userSpaceOnUse" gradientTransform="translate(255.605 428.891) rotate(-155.961) scale(303.397 303.397)">
<stop offset="0.16" stop-color="#50426E"/>
<stop offset="0.27" stop-color="#272B47"/>
<stop offset="0.47" stop-color="#292E4B"/>
<stop offset="0.64" stop-color="#383E4F"/>
<stop offset="0.78" stop-color="#1D2438"/>
<stop offset="0.87" stop-color="#22253B"/>
<stop offset="0.88" stop-color="#242C3E"/>
<stop offset="0.9" stop-color="#2D2E4E"/>
<stop offset="0.92" stop-color="#2C2E4F"/>
<stop offset="0.95" stop-color="#39395A"/>
<stop offset="0.97" stop-color="#807390"/>
<stop offset="1" stop-color="white"/>
</radialGradient>
<linearGradient id="paint3_linear_141_473" x1="453.501" y1="694.693" x2="-102.219" y2="-3.22146" gradientUnits="userSpaceOnUse">
<stop stop-color="#E79F72"/>
<stop offset="0.27" stop-color="#E0986B"/>
<stop offset="0.68" stop-color="#CE8657"/>
<stop offset="1" stop-color="#BB7242"/>
</linearGradient>
<linearGradient id="paint4_linear_141_473" x1="453.502" y1="694.693" x2="-102.219" y2="-3.22152" gradientUnits="userSpaceOnUse">
<stop stop-color="#8E4543"/>
<stop offset="0.26" stop-color="#8B3A2D"/>
<stop offset="0.75" stop-color="#8D3C2F"/>
<stop offset="1" stop-color="#883A2D"/>
</linearGradient>
<linearGradient id="paint5_linear_141_473" x1="453.499" y1="694.693" x2="-102.221" y2="-3.2218" gradientUnits="userSpaceOnUse">
<stop offset="0.02" stop-color="#EFE6DA"/>
<stop offset="0.11" stop-color="#EFE4D3"/>
<stop offset="0.25" stop-color="#F1DDBF"/>
<stop offset="0.42" stop-color="#F3D29E"/>
<stop offset="0.62" stop-color="#F5C470"/>
<stop offset="0.82" stop-color="#F9B137"/>
<stop offset="1" stop-color="#FC9F00"/>
</linearGradient>
<linearGradient id="paint6_linear_141_473" x1="433.908" y1="676.419" x2="-99.8035" y2="6.14408" gradientUnits="userSpaceOnUse">
<stop stop-color="#F7685A"/>
<stop offset="0.39" stop-color="#C76E30"/>
<stop offset="0.97" stop-color="#491800"/>
</linearGradient>
</defs>
</svg>
